G04 Layer_Color=255*
%FSLAX25Y25*%
%MOIN*%
G70*
G01*
G75*
%ADD11C,0.06000*%
%ADD12C,0.10630*%
%ADD13C,0.04724*%
%ADD14R,0.06000X0.06000*%
%ADD15C,0.02362*%
%ADD16R,0.02756X0.03347*%
%ADD17R,0.03740X0.05512*%
%ADD18R,0.05512X0.03740*%
%ADD19R,0.18701X0.03543*%
%ADD20R,0.05512X0.01181*%
%ADD21R,0.01181X0.05512*%
%ADD22O,0.02362X0.05709*%
%ADD23R,0.03150X0.02756*%
%ADD24R,0.07283X0.13189*%
%ADD25R,0.06102X0.02362*%
D11*
X428346Y325197D02*
D03*
X402756D02*
D03*
X428346Y342913D02*
D03*
X402756D02*
D03*
X570866Y53150D02*
D03*
Y78740D02*
D03*
X553150Y53150D02*
D03*
Y78740D02*
D03*
X547244Y104331D02*
D03*
Y129921D02*
D03*
X529528Y104331D02*
D03*
Y129921D02*
D03*
X522778Y53150D02*
D03*
Y78740D02*
D03*
X505062Y53150D02*
D03*
Y78740D02*
D03*
X500000Y104331D02*
D03*
Y129921D02*
D03*
X482283Y104331D02*
D03*
Y129921D02*
D03*
X474691Y53150D02*
D03*
Y78740D02*
D03*
X456974Y53150D02*
D03*
Y78740D02*
D03*
X452756Y104331D02*
D03*
Y129921D02*
D03*
X435039Y104331D02*
D03*
Y129921D02*
D03*
X426603Y53150D02*
D03*
Y78740D02*
D03*
X408886Y53150D02*
D03*
Y78740D02*
D03*
X378515Y53150D02*
D03*
Y78740D02*
D03*
X360799Y53150D02*
D03*
Y78740D02*
D03*
X356299Y104331D02*
D03*
Y129921D02*
D03*
X338583Y104331D02*
D03*
Y129921D02*
D03*
X330427Y53150D02*
D03*
Y78740D02*
D03*
X312711Y53150D02*
D03*
Y78740D02*
D03*
X307087Y104331D02*
D03*
Y129921D02*
D03*
X289370Y104331D02*
D03*
Y129921D02*
D03*
X282340Y53150D02*
D03*
Y78740D02*
D03*
X264623Y53150D02*
D03*
Y78740D02*
D03*
X234252Y53150D02*
D03*
Y78740D02*
D03*
X216535Y53150D02*
D03*
Y78740D02*
D03*
X231102Y351181D02*
D03*
X216929Y357480D02*
D03*
X488780Y187008D02*
D03*
X498622D02*
D03*
X508465D02*
D03*
X386713D02*
D03*
X396555D02*
D03*
X406398D02*
D03*
X284646D02*
D03*
X294488D02*
D03*
X304331D02*
D03*
X540551Y269685D02*
D03*
X550394D02*
D03*
X560236D02*
D03*
X438484D02*
D03*
X448327D02*
D03*
X458169D02*
D03*
X310236Y271654D02*
D03*
Y261653D02*
D03*
Y281653D02*
D03*
X480709Y305512D02*
D03*
X500000D02*
D03*
D12*
X481299Y214567D02*
D03*
X515945D02*
D03*
X379232D02*
D03*
X413878D02*
D03*
X277165D02*
D03*
X311811D02*
D03*
X533071Y297244D02*
D03*
X567717D02*
D03*
X431004D02*
D03*
X465650D02*
D03*
D13*
X263779Y249606D02*
D03*
Y277165D02*
D03*
D14*
X310236Y251654D02*
D03*
D15*
X234252Y95866D02*
D03*
X282283Y95965D02*
D03*
X330709D02*
D03*
X378346D02*
D03*
X426378D02*
D03*
X474803Y95177D02*
D03*
X522835D02*
D03*
X571260Y95965D02*
D03*
X547244Y147539D02*
D03*
X500000D02*
D03*
X452362D02*
D03*
X356299D02*
D03*
X307087D02*
D03*
X357874Y286221D02*
D03*
X413779Y273622D02*
D03*
X417717D02*
D03*
X421260D02*
D03*
D16*
X229921Y251575D02*
D03*
Y257874D02*
D03*
X248228Y312402D02*
D03*
Y318701D02*
D03*
D17*
X217618Y295669D02*
D03*
X224902D02*
D03*
X398917Y281890D02*
D03*
X391634D02*
D03*
X558366Y65945D02*
D03*
X565650D02*
D03*
X534744Y117126D02*
D03*
X542028D02*
D03*
X510278Y65945D02*
D03*
X517562D02*
D03*
X487500Y117126D02*
D03*
X494783D02*
D03*
X369390Y317323D02*
D03*
X362106D02*
D03*
X462191Y66535D02*
D03*
X469474D02*
D03*
X440256Y117126D02*
D03*
X447539D02*
D03*
X414469Y65945D02*
D03*
X421752D02*
D03*
X380610Y337008D02*
D03*
X387894D02*
D03*
X366015Y65945D02*
D03*
X373299D02*
D03*
X332579Y255512D02*
D03*
X339862D02*
D03*
X315453Y337008D02*
D03*
X308169D02*
D03*
X343799Y117126D02*
D03*
X351083D02*
D03*
X317927Y65945D02*
D03*
X325211D02*
D03*
X294587Y117126D02*
D03*
X301870D02*
D03*
X269840Y65945D02*
D03*
X277123D02*
D03*
X221752D02*
D03*
X229035D02*
D03*
X217028Y341732D02*
D03*
X209744D02*
D03*
D18*
X218110Y267421D02*
D03*
Y260138D02*
D03*
X232283Y269193D02*
D03*
Y276476D02*
D03*
X231102Y342224D02*
D03*
Y334941D02*
D03*
X207874Y318996D02*
D03*
Y311713D02*
D03*
X216929D02*
D03*
Y318996D02*
D03*
X571260Y88583D02*
D03*
Y95866D02*
D03*
X547244Y140157D02*
D03*
Y147441D02*
D03*
X522835Y87697D02*
D03*
Y94980D02*
D03*
X500000Y140157D02*
D03*
Y147441D02*
D03*
X474803Y87697D02*
D03*
Y94980D02*
D03*
X452362Y140157D02*
D03*
Y147441D02*
D03*
X426378Y88583D02*
D03*
Y95866D02*
D03*
X378346Y88583D02*
D03*
Y95866D02*
D03*
X356299Y140157D02*
D03*
Y147441D02*
D03*
X330709Y88583D02*
D03*
Y95866D02*
D03*
X307087Y140157D02*
D03*
Y147441D02*
D03*
X282283Y88583D02*
D03*
Y95866D02*
D03*
X234252Y88583D02*
D03*
Y95866D02*
D03*
X391339Y266043D02*
D03*
Y273327D02*
D03*
X390551Y297933D02*
D03*
Y305217D02*
D03*
X436614Y337894D02*
D03*
Y330610D02*
D03*
X326378Y306791D02*
D03*
Y299508D02*
D03*
X500787Y263484D02*
D03*
Y256201D02*
D03*
X510236Y263484D02*
D03*
Y256201D02*
D03*
X448032Y287106D02*
D03*
Y279823D02*
D03*
X500000Y280610D02*
D03*
Y287894D02*
D03*
X232283Y284154D02*
D03*
Y291437D02*
D03*
X326378Y293012D02*
D03*
Y285728D02*
D03*
D19*
X364764Y337008D02*
D03*
X331299D02*
D03*
D20*
X335433Y301181D02*
D03*
Y299213D02*
D03*
Y297244D02*
D03*
Y295276D02*
D03*
Y293307D02*
D03*
Y291339D02*
D03*
Y289370D02*
D03*
Y287402D02*
D03*
Y285433D02*
D03*
Y283465D02*
D03*
Y281496D02*
D03*
Y279528D02*
D03*
Y277559D02*
D03*
Y275591D02*
D03*
Y273622D02*
D03*
Y271654D02*
D03*
X380315D02*
D03*
Y273622D02*
D03*
Y275591D02*
D03*
Y277559D02*
D03*
Y279528D02*
D03*
Y281496D02*
D03*
Y283465D02*
D03*
Y285433D02*
D03*
Y287402D02*
D03*
Y289370D02*
D03*
Y291339D02*
D03*
Y293307D02*
D03*
Y295276D02*
D03*
Y297244D02*
D03*
Y299213D02*
D03*
Y301181D02*
D03*
D21*
X343110Y263976D02*
D03*
X345079D02*
D03*
X347047D02*
D03*
X349016D02*
D03*
X350984D02*
D03*
X352953D02*
D03*
X354921D02*
D03*
X356890D02*
D03*
X358858D02*
D03*
X360827D02*
D03*
X362795D02*
D03*
X364764D02*
D03*
X366732D02*
D03*
X368701D02*
D03*
X370669D02*
D03*
X372638D02*
D03*
Y308858D02*
D03*
X370669D02*
D03*
X368701D02*
D03*
X366732D02*
D03*
X364764D02*
D03*
X362795D02*
D03*
X360827D02*
D03*
X358858D02*
D03*
X356890D02*
D03*
X354921D02*
D03*
X352953D02*
D03*
X350984D02*
D03*
X349016D02*
D03*
X347047D02*
D03*
X345079D02*
D03*
X343110D02*
D03*
D22*
X225964Y326476D02*
D03*
X230964D02*
D03*
X235964D02*
D03*
X240965D02*
D03*
X225964Y305020D02*
D03*
X230964D02*
D03*
X235964D02*
D03*
X240965D02*
D03*
D23*
X241142Y296063D02*
D03*
X254921D02*
D03*
D24*
X480709Y266929D02*
D03*
Y286417D02*
D03*
D25*
X530315Y285846D02*
D03*
Y280847D02*
D03*
Y275847D02*
D03*
Y270847D02*
D03*
X509055Y285846D02*
D03*
Y280847D02*
D03*
Y275847D02*
D03*
Y270847D02*
D03*
M02*
