G04 Layer_Color=65535*
%FSLAX25Y25*%
%MOIN*%
G70*
G01*
G75*
%ADD10C,0.01000*%
D10*
X563484Y66437D02*
X570866D01*
X557579D02*
X561024Y69882D01*
X553150Y66437D02*
X557579D01*
X570866Y59055D02*
Y73819D01*
X553150Y59055D02*
Y73819D01*
X550197Y77756D02*
X573819D01*
Y54134D02*
Y77756D01*
X550197Y54134D02*
X573819D01*
X550197D02*
Y77756D01*
X539862Y117618D02*
X547244D01*
X533957D02*
X537402Y121063D01*
X529528Y117618D02*
X533957D01*
X547244Y110236D02*
Y125000D01*
X529528Y110236D02*
Y125000D01*
X526575Y128937D02*
X550197D01*
Y105315D02*
Y128937D01*
X526575Y105315D02*
X550197D01*
X526575D02*
Y128937D01*
X515396Y66437D02*
X522778D01*
X509491D02*
X512936Y69882D01*
X505062Y66437D02*
X509491D01*
X522778Y59055D02*
Y73819D01*
X505062Y59055D02*
Y73819D01*
X502109Y77756D02*
X525731D01*
Y54134D02*
Y77756D01*
X502109Y54134D02*
X525731D01*
X502109D02*
Y77756D01*
X492618Y117618D02*
X500000D01*
X486713D02*
X490157Y121063D01*
X482283Y117618D02*
X486713D01*
X500000Y110236D02*
Y125000D01*
X482283Y110236D02*
Y125000D01*
X479331Y128937D02*
X502953D01*
Y105315D02*
Y128937D01*
X479331Y105315D02*
X502953D01*
X479331D02*
Y128937D01*
X467309Y66437D02*
X474691D01*
X461403D02*
X464848Y69882D01*
X456974Y66437D02*
X461403D01*
X474691Y59055D02*
Y73819D01*
X456974Y59055D02*
Y73819D01*
X454021Y77756D02*
X477643D01*
Y54134D02*
Y77756D01*
X454021Y54134D02*
X477643D01*
X454021D02*
Y77756D01*
X445374Y117618D02*
X452756D01*
X439469D02*
X442913Y121063D01*
X435039Y117618D02*
X439469D01*
X452756Y110236D02*
Y125000D01*
X435039Y110236D02*
Y125000D01*
X432087Y128937D02*
X455709D01*
Y105315D02*
Y128937D01*
X432087Y105315D02*
X455709D01*
X432087D02*
Y128937D01*
X419221Y66437D02*
X426603D01*
X413315D02*
X416760Y69882D01*
X408886Y66437D02*
X413315D01*
X426603Y59055D02*
Y73819D01*
X408886Y59055D02*
Y73819D01*
X405934Y77756D02*
X429556D01*
Y54134D02*
Y77756D01*
X405934Y54134D02*
X429556D01*
X405934D02*
Y77756D01*
X371133Y66437D02*
X378515D01*
X365228D02*
X368673Y69882D01*
X360799Y66437D02*
X365228D01*
X378515Y59055D02*
Y73819D01*
X360799Y59055D02*
Y73819D01*
X357846Y77756D02*
X381468D01*
Y54134D02*
Y77756D01*
X357846Y54134D02*
X381468D01*
X357846D02*
Y77756D01*
X348917Y117618D02*
X356299D01*
X343012D02*
X346457Y121063D01*
X338583Y117618D02*
X343012D01*
X356299Y110236D02*
Y125000D01*
X338583Y110236D02*
Y125000D01*
X335630Y128937D02*
X359252D01*
Y105315D02*
Y128937D01*
X335630Y105315D02*
X359252D01*
X335630D02*
Y128937D01*
X323046Y66437D02*
X330427D01*
X317140D02*
X320585Y69882D01*
X312711Y66437D02*
X317140D01*
X330427Y59055D02*
Y73819D01*
X312711Y59055D02*
Y73819D01*
X309758Y77756D02*
X333380D01*
Y54134D02*
Y77756D01*
X309758Y54134D02*
X333380D01*
X309758D02*
Y77756D01*
X299705Y117618D02*
X307087D01*
X293799D02*
X297244Y121063D01*
X289370Y117618D02*
X293799D01*
X307087Y110236D02*
Y125000D01*
X289370Y110236D02*
Y125000D01*
X286417Y128937D02*
X310039D01*
Y105315D02*
Y128937D01*
X286417Y105315D02*
X310039D01*
X286417D02*
Y128937D01*
X274958Y66437D02*
X282340D01*
X269052D02*
X272497Y69882D01*
X264623Y66437D02*
X269052D01*
X282340Y59055D02*
Y73819D01*
X264623Y59055D02*
Y73819D01*
X261670Y77756D02*
X285292D01*
Y54134D02*
Y77756D01*
X261670Y54134D02*
X285292D01*
X261670D02*
Y77756D01*
X226870Y66437D02*
X234252D01*
X220965D02*
X224409Y69882D01*
X216535Y66437D02*
X220965D01*
X234252Y59055D02*
Y73819D01*
X216535Y59055D02*
Y73819D01*
X213583Y77756D02*
X237205D01*
Y54134D02*
Y77756D01*
X213583Y54134D02*
X237205D01*
X213583D02*
Y77756D01*
X275475Y180632D02*
X273476D01*
X272476Y179632D01*
Y175634D01*
X273476Y174634D01*
X275475D01*
X276475Y175634D01*
Y179632D01*
X275475Y180632D01*
X282473Y178633D02*
X279474D01*
X278474Y177633D01*
Y175634D01*
X279474Y174634D01*
X282473D01*
X285472Y179632D02*
Y178633D01*
X284472D01*
X286472D01*
X285472D01*
Y175634D01*
X286472Y174634D01*
X290471Y178633D02*
X292470D01*
X293470Y177633D01*
Y174634D01*
X290471D01*
X289471Y175634D01*
X290471Y176633D01*
X293470D01*
X295469Y178633D02*
X297468Y174634D01*
X299468Y178633D01*
X304466Y174634D02*
X302467D01*
X301467Y175634D01*
Y177633D01*
X302467Y178633D01*
X304466D01*
X305466Y177633D01*
Y176633D01*
X301467D01*
X272453Y223269D02*
Y229267D01*
X275453D01*
X276452Y228267D01*
Y226268D01*
X275453Y225268D01*
X272453D01*
X274453D02*
X276452Y223269D01*
X278452D02*
X280451D01*
X279451D01*
Y229267D01*
X278452Y228267D01*
X283450D02*
X284450Y229267D01*
X286449D01*
X287449Y228267D01*
Y227267D01*
X286449Y226268D01*
X287449Y225268D01*
Y224268D01*
X286449Y223269D01*
X284450D01*
X283450Y224268D01*
Y225268D01*
X284450Y226268D01*
X283450Y227267D01*
Y228267D01*
X284450Y226268D02*
X286449D01*
X378480Y179630D02*
X377480Y180630D01*
X375481D01*
X374481Y179630D01*
Y178630D01*
X375481Y177630D01*
X377480D01*
X378480Y176631D01*
Y175631D01*
X377480Y174632D01*
X375481D01*
X374481Y175631D01*
X380479Y172632D02*
Y178630D01*
X383478D01*
X384478Y177630D01*
Y175631D01*
X383478Y174632D01*
X380479D01*
X389476D02*
X387477D01*
X386477Y175631D01*
Y177630D01*
X387477Y178630D01*
X389476D01*
X390476Y177630D01*
Y176631D01*
X386477D01*
X395474Y174632D02*
X393475D01*
X392475Y175631D01*
Y177630D01*
X393475Y178630D01*
X395474D01*
X396474Y177630D01*
Y176631D01*
X392475D01*
X402472Y180630D02*
Y174632D01*
X399473D01*
X398473Y175631D01*
Y177630D01*
X399473Y178630D01*
X402472D01*
X374560Y223269D02*
Y229267D01*
X377559D01*
X378559Y228267D01*
Y226268D01*
X377559Y225268D01*
X374560D01*
X376559D02*
X378559Y223269D01*
X384557D02*
X380558D01*
X384557Y227267D01*
Y228267D01*
X383557Y229267D01*
X381558D01*
X380558Y228267D01*
X386556Y223269D02*
X388555D01*
X387556D01*
Y229267D01*
X386556Y228267D01*
X476548Y174598D02*
Y180596D01*
X478547Y178596D01*
X480547Y180596D01*
Y174598D01*
X483546D02*
X485545D01*
X486545Y175597D01*
Y177597D01*
X485545Y178596D01*
X483546D01*
X482546Y177597D01*
Y175597D01*
X483546Y174598D01*
X492543Y180596D02*
Y174598D01*
X489544D01*
X488544Y175597D01*
Y177597D01*
X489544Y178596D01*
X492543D01*
X497541Y174598D02*
X495542D01*
X494542Y175597D01*
Y177597D01*
X495542Y178596D01*
X497541D01*
X498541Y177597D01*
Y176597D01*
X494542D01*
X476566Y223269D02*
Y229267D01*
X479565D01*
X480565Y228267D01*
Y226268D01*
X479565Y225268D01*
X476566D01*
X478566D02*
X480565Y223269D01*
X486563D02*
X482564D01*
X486563Y227267D01*
Y228267D01*
X485563Y229267D01*
X483564D01*
X482564Y228267D01*
X492561Y223269D02*
X488562D01*
X492561Y227267D01*
Y228267D01*
X491561Y229267D01*
X489562D01*
X488562Y228267D01*
X206100Y56698D02*
Y50700D01*
X209099D01*
X210099Y51700D01*
Y52699D01*
X209099Y53699D01*
X206100D01*
X209099D01*
X210099Y54699D01*
Y55698D01*
X209099Y56698D01*
X206100D01*
X218099Y90098D02*
X217099Y91098D01*
X215100D01*
X214100Y90098D01*
Y89099D01*
X215100Y88099D01*
X217099D01*
X218099Y87099D01*
Y86100D01*
X217099Y85100D01*
X215100D01*
X214100Y86100D01*
X220098Y91098D02*
Y85100D01*
X222097Y87099D01*
X224097Y85100D01*
Y91098D01*
X226096Y85100D02*
X228096D01*
X227096D01*
Y91098D01*
X226096Y90098D01*
X258216Y55698D02*
X257217Y56698D01*
X255217D01*
X254218Y55698D01*
Y51700D01*
X255217Y50700D01*
X257217D01*
X258216Y51700D01*
X266216Y90098D02*
X265217Y91098D01*
X263217D01*
X262218Y90098D01*
Y89099D01*
X263217Y88099D01*
X265217D01*
X266216Y87099D01*
Y86100D01*
X265217Y85100D01*
X263217D01*
X262218Y86100D01*
X268216Y91098D02*
Y85100D01*
X270215Y87099D01*
X272214Y85100D01*
Y91098D01*
X278212Y85100D02*
X274214D01*
X278212Y89099D01*
Y90098D01*
X277213Y91098D01*
X275214D01*
X274214Y90098D01*
X290936Y96909D02*
X289936Y97909D01*
X287937D01*
X286937Y96909D01*
Y92911D01*
X287937Y91911D01*
X289936D01*
X290936Y92911D01*
X293935Y91911D02*
Y97909D01*
X295934D02*
Y91911D01*
X292935Y95910D02*
X295934D01*
X296934D01*
X292935Y93910D02*
X296934D01*
X290899Y141298D02*
X289899Y142298D01*
X287900D01*
X286900Y141298D01*
Y140299D01*
X287900Y139299D01*
X289899D01*
X290899Y138299D01*
Y137300D01*
X289899Y136300D01*
X287900D01*
X286900Y137300D01*
X292898Y142298D02*
Y136300D01*
X294897Y138299D01*
X296897Y136300D01*
Y142298D01*
X298896Y137300D02*
X299896Y136300D01*
X301895D01*
X302895Y137300D01*
Y141298D01*
X301895Y142298D01*
X299896D01*
X298896Y141298D01*
Y140299D01*
X299896Y139299D01*
X302895D01*
X302235Y56698D02*
Y50700D01*
X305234D01*
X306234Y51700D01*
Y55698D01*
X305234Y56698D01*
X302235D01*
X314299Y90098D02*
X313299Y91098D01*
X311300D01*
X310300Y90098D01*
Y89099D01*
X311300Y88099D01*
X313299D01*
X314299Y87099D01*
Y86100D01*
X313299Y85100D01*
X311300D01*
X310300Y86100D01*
X316298Y91098D02*
Y85100D01*
X318297Y87099D01*
X320297Y85100D01*
Y91098D01*
X322296Y90098D02*
X323296Y91098D01*
X325295D01*
X326295Y90098D01*
Y89099D01*
X325295Y88099D01*
X324295D01*
X325295D01*
X326295Y87099D01*
Y86100D01*
X325295Y85100D01*
X323296D01*
X322296Y86100D01*
X336111Y97909D02*
Y91911D01*
X339110D01*
X340110Y92911D01*
Y96909D01*
X339110Y97909D01*
X336111D01*
X343109Y91911D02*
Y97909D01*
X345108D02*
Y91911D01*
X342109Y95910D02*
X345108D01*
X346108D01*
X342109Y93910D02*
X346108D01*
X340099Y141298D02*
X339099Y142298D01*
X337100D01*
X336100Y141298D01*
Y140299D01*
X337100Y139299D01*
X339099D01*
X340099Y138299D01*
Y137300D01*
X339099Y136300D01*
X337100D01*
X336100Y137300D01*
X342098Y142298D02*
Y136300D01*
X344097Y138299D01*
X346097Y136300D01*
Y142298D01*
X348096Y136300D02*
X350096D01*
X349096D01*
Y142298D01*
X348096Y141298D01*
X353095D02*
X354094Y142298D01*
X356094D01*
X357093Y141298D01*
Y137300D01*
X356094Y136300D01*
X354094D01*
X353095Y137300D01*
Y141298D01*
X354352Y56698D02*
X350353D01*
Y50700D01*
X354352D01*
X350353Y53699D02*
X352352D01*
X362299Y90098D02*
X361299Y91098D01*
X359300D01*
X358300Y90098D01*
Y89099D01*
X359300Y88099D01*
X361299D01*
X362299Y87099D01*
Y86100D01*
X361299Y85100D01*
X359300D01*
X358300Y86100D01*
X364298Y91098D02*
Y85100D01*
X366297Y87099D01*
X368297Y85100D01*
Y91098D01*
X373295Y85100D02*
Y91098D01*
X370296Y88099D01*
X374295D01*
X402401Y56698D02*
X398402D01*
Y53699D01*
X400401D01*
X398402D01*
Y50700D01*
X410399Y90098D02*
X409399Y91098D01*
X407400D01*
X406400Y90098D01*
Y89099D01*
X407400Y88099D01*
X409399D01*
X410399Y87099D01*
Y86100D01*
X409399Y85100D01*
X407400D01*
X406400Y86100D01*
X412398Y91098D02*
Y85100D01*
X414397Y87099D01*
X416397Y85100D01*
Y91098D01*
X422395D02*
X418396D01*
Y88099D01*
X420396Y89099D01*
X421395D01*
X422395Y88099D01*
Y86100D01*
X421395Y85100D01*
X419396D01*
X418396Y86100D01*
X436569Y97909D02*
X432570D01*
Y94910D01*
X434569D01*
X432570D01*
Y91911D01*
X439568D02*
Y97909D01*
X441567D02*
Y91911D01*
X438568Y95910D02*
X441567D01*
X442567D01*
X438568Y93910D02*
X442567D01*
X436599Y141298D02*
X435599Y142298D01*
X433600D01*
X432600Y141298D01*
Y140299D01*
X433600Y139299D01*
X435599D01*
X436599Y138299D01*
Y137300D01*
X435599Y136300D01*
X433600D01*
X432600Y137300D01*
X438598Y142298D02*
Y136300D01*
X440597Y138299D01*
X442597Y136300D01*
Y142298D01*
X444596Y136300D02*
X446595D01*
X445596D01*
Y142298D01*
X444596Y141298D01*
X449594Y136300D02*
X451594D01*
X450594D01*
Y142298D01*
X449594Y141298D01*
X450533Y55728D02*
X449534Y56728D01*
X447534D01*
X446535Y55728D01*
Y51730D01*
X447534Y50730D01*
X449534D01*
X450533Y51730D01*
Y53729D01*
X448534D01*
X458499Y90098D02*
X457499Y91098D01*
X455500D01*
X454500Y90098D01*
Y89099D01*
X455500Y88099D01*
X457499D01*
X458499Y87099D01*
Y86100D01*
X457499Y85100D01*
X455500D01*
X454500Y86100D01*
X460498Y91098D02*
Y85100D01*
X462497Y87099D01*
X464497Y85100D01*
Y91098D01*
X470495D02*
X468496Y90098D01*
X466496Y88099D01*
Y86100D01*
X467496Y85100D01*
X469495D01*
X470495Y86100D01*
Y87099D01*
X469495Y88099D01*
X466496D01*
X483786Y96979D02*
X482786Y97979D01*
X480787D01*
X479787Y96979D01*
Y92981D01*
X480787Y91981D01*
X482786D01*
X483786Y92981D01*
Y94980D01*
X481787D01*
X486785Y91981D02*
Y97979D01*
X488785D02*
Y91981D01*
X485785Y95980D02*
X488785D01*
X489784D01*
X485785Y93980D02*
X489784D01*
X483799Y141298D02*
X482799Y142298D01*
X480800D01*
X479800Y141298D01*
Y140299D01*
X480800Y139299D01*
X482799D01*
X483799Y138299D01*
Y137300D01*
X482799Y136300D01*
X480800D01*
X479800Y137300D01*
X485798Y142298D02*
Y136300D01*
X487797Y138299D01*
X489797Y136300D01*
Y142298D01*
X491796Y136300D02*
X493795D01*
X492796D01*
Y142298D01*
X491796Y141298D01*
X500793Y136300D02*
X496795D01*
X500793Y140299D01*
Y141298D01*
X499793Y142298D01*
X497794D01*
X496795Y141298D01*
X494652Y50730D02*
Y54729D01*
X496652Y56728D01*
X498651Y54729D01*
Y50730D01*
Y53729D01*
X494652D01*
X506599Y90130D02*
X505599Y91130D01*
X503600D01*
X502600Y90130D01*
Y89130D01*
X503600Y88130D01*
X505599D01*
X506599Y87131D01*
Y86131D01*
X505599Y85132D01*
X503600D01*
X502600Y86131D01*
X508598Y91130D02*
Y85132D01*
X510597Y87131D01*
X512597Y85132D01*
Y91130D01*
X514596D02*
X518595D01*
Y90130D01*
X514596Y86131D01*
Y85132D01*
X527055Y91981D02*
Y95980D01*
X529054Y97979D01*
X531053Y95980D01*
Y91981D01*
Y94980D01*
X527055D01*
X534053Y91981D02*
Y97979D01*
X536052D02*
Y91981D01*
X533053Y95980D02*
X536052D01*
X537051D01*
X533053Y93980D02*
X537051D01*
X531053Y141279D02*
X530054Y142279D01*
X528054D01*
X527055Y141279D01*
Y140280D01*
X528054Y139280D01*
X530054D01*
X531053Y138280D01*
Y137281D01*
X530054Y136281D01*
X528054D01*
X527055Y137281D01*
X533053Y142279D02*
Y136281D01*
X535052Y138280D01*
X537051Y136281D01*
Y142279D01*
X539051Y136281D02*
X541050D01*
X540051D01*
Y142279D01*
X539051Y141279D01*
X544049D02*
X545049Y142279D01*
X547048D01*
X548048Y141279D01*
Y140280D01*
X547048Y139280D01*
X546049D01*
X547048D01*
X548048Y138280D01*
Y137281D01*
X547048Y136281D01*
X545049D01*
X544049Y137281D01*
X542700Y56698D02*
Y50700D01*
X545699D01*
X546699Y51700D01*
Y52699D01*
X545699Y53699D01*
X542700D01*
X545699D01*
X546699Y54699D01*
Y55698D01*
X545699Y56698D01*
X542700D01*
X554699Y90098D02*
X553699Y91098D01*
X551700D01*
X550700Y90098D01*
Y89099D01*
X551700Y88099D01*
X553699D01*
X554699Y87099D01*
Y86100D01*
X553699Y85100D01*
X551700D01*
X550700Y86100D01*
X556698Y91098D02*
Y85100D01*
X558697Y87099D01*
X560697Y85100D01*
Y91098D01*
X562696Y90098D02*
X563696Y91098D01*
X565695D01*
X566695Y90098D01*
Y89099D01*
X565695Y88099D01*
X566695Y87099D01*
Y86100D01*
X565695Y85100D01*
X563696D01*
X562696Y86100D01*
Y87099D01*
X563696Y88099D01*
X562696Y89099D01*
Y90098D01*
X563696Y88099D02*
X565695D01*
X221654Y359841D02*
Y355906D01*
X223621D01*
X224277Y356561D01*
Y357217D01*
X223621Y357873D01*
X221654D01*
X223621D01*
X224277Y358529D01*
Y359185D01*
X223621Y359841D01*
X221654D01*
X226245Y358529D02*
X227557D01*
X228213Y357873D01*
Y355906D01*
X226245D01*
X225589Y356561D01*
X226245Y357217D01*
X228213D01*
X230181Y359185D02*
Y358529D01*
X229525D01*
X230837D01*
X230181D01*
Y356561D01*
X230837Y355906D01*
X232805Y357873D02*
X235429D01*
X234117Y359185D02*
Y356561D01*
X236221Y353148D02*
Y349213D01*
X238188D01*
X238844Y349869D01*
Y350524D01*
X238188Y351181D01*
X236221D01*
X238188D01*
X238844Y351836D01*
Y352492D01*
X238188Y353148D01*
X236221D01*
X240812Y351836D02*
X242124D01*
X242780Y351181D01*
Y349213D01*
X240812D01*
X240156Y349869D01*
X240812Y350524D01*
X242780D01*
X244748Y352492D02*
Y351836D01*
X244092D01*
X245404D01*
X244748D01*
Y349869D01*
X245404Y349213D01*
X247372Y351181D02*
X249996D01*
X528364Y263256D02*
Y260632D01*
X529676Y259320D01*
X530988Y260632D01*
Y263256D01*
X532956Y259320D02*
X534267D01*
X534923Y259976D01*
Y261288D01*
X534267Y261944D01*
X532956D01*
X532300Y261288D01*
Y259976D01*
X532956Y259320D01*
X536235D02*
X537547D01*
X536891D01*
Y263256D01*
X536235D01*
X539515Y261944D02*
Y259976D01*
X540171Y259320D01*
X542139D01*
Y261944D01*
X543451Y259320D02*
Y261944D01*
X544107D01*
X544763Y261288D01*
Y259320D01*
Y261288D01*
X545419Y261944D01*
X546075Y261288D01*
Y259320D01*
X549354D02*
X548042D01*
X547387Y259976D01*
Y261288D01*
X548042Y261944D01*
X549354D01*
X550010Y261288D01*
Y260632D01*
X547387D01*
X528364Y305921D02*
Y309856D01*
X530332D01*
X530988Y309200D01*
Y307888D01*
X530332Y307232D01*
X528364D01*
X529676D02*
X530988Y305921D01*
X534923D02*
X532300D01*
X534923Y308544D01*
Y309200D01*
X534267Y309856D01*
X532956D01*
X532300Y309200D01*
X538859Y309856D02*
X536235D01*
Y307888D01*
X537547Y308544D01*
X538203D01*
X538859Y307888D01*
Y306576D01*
X538203Y305921D01*
X536891D01*
X536235Y306576D01*
X426263Y263288D02*
Y259352D01*
X428887D01*
X430855D02*
X432167D01*
X432823Y260008D01*
Y261320D01*
X432167Y261976D01*
X430855D01*
X430199Y261320D01*
Y260008D01*
X430855Y259352D01*
X434134Y261976D02*
Y260008D01*
X434790Y259352D01*
X435446Y260008D01*
X436102Y259352D01*
X436758Y260008D01*
Y261976D01*
X442006Y259352D02*
Y263288D01*
X443974D01*
X444630Y262632D01*
Y261320D01*
X443974Y260664D01*
X442006D01*
X446598Y261976D02*
X447910D01*
X448565Y261320D01*
Y259352D01*
X446598D01*
X445942Y260008D01*
X446598Y260664D01*
X448565D01*
X449877Y259352D02*
X451845D01*
X452501Y260008D01*
X451845Y260664D01*
X450533D01*
X449877Y261320D01*
X450533Y261976D01*
X452501D01*
X453813Y259352D02*
X455781D01*
X456437Y260008D01*
X455781Y260664D01*
X454469D01*
X453813Y261320D01*
X454469Y261976D01*
X456437D01*
X426263Y305952D02*
Y309888D01*
X428231D01*
X428887Y309232D01*
Y307920D01*
X428231Y307264D01*
X426263D01*
X427575D02*
X428887Y305952D01*
X432823D02*
X430199D01*
X432823Y308576D01*
Y309232D01*
X432167Y309888D01*
X430855D01*
X430199Y309232D01*
X434134D02*
X434790Y309888D01*
X436102D01*
X436758Y309232D01*
Y308576D01*
X436102Y307920D01*
X435446D01*
X436102D01*
X436758Y307264D01*
Y306608D01*
X436102Y305952D01*
X434790D01*
X434134Y306608D01*
X586645Y87039D02*
Y88038D01*
X585645Y89038D01*
X580647D01*
Y86039D01*
X581647Y85039D01*
X583646D01*
X584646Y86039D01*
Y89038D01*
Y91037D02*
Y93037D01*
Y92037D01*
X580647D01*
Y91037D01*
X579647Y97035D02*
X580647D01*
Y96036D01*
Y98035D01*
Y97035D01*
X583646D01*
X584646Y98035D01*
X578648Y101034D02*
X584646D01*
X581647D01*
X580647Y102034D01*
Y104033D01*
X581647Y105033D01*
X584646D01*
X580647Y107032D02*
X583646D01*
X584646Y108032D01*
Y111031D01*
X580647D01*
X578648Y113030D02*
X584646D01*
Y116029D01*
X583646Y117029D01*
X582646D01*
X581647D01*
X580647Y116029D01*
Y113030D01*
X584646Y119028D02*
X583646D01*
Y120028D01*
X584646D01*
Y119028D01*
X580647Y128025D02*
Y125026D01*
X581647Y124027D01*
X583646D01*
X584646Y125026D01*
Y128025D01*
Y131025D02*
Y133024D01*
X583646Y134023D01*
X581647D01*
X580647Y133024D01*
Y131025D01*
X581647Y130025D01*
X583646D01*
X584646Y131025D01*
Y136023D02*
X580647D01*
Y137023D01*
X581647Y138022D01*
X584646D01*
X581647D01*
X580647Y139022D01*
X581647Y140022D01*
X584646D01*
Y142021D02*
X580647Y146020D01*
X578648Y152018D02*
Y148019D01*
X584646D01*
Y152018D01*
X581647Y148019D02*
Y150018D01*
X578648Y158016D02*
X584646D01*
Y155017D01*
X583646Y154017D01*
X581647D01*
X580647Y155017D01*
Y158016D01*
Y160015D02*
X583646D01*
X584646Y161015D01*
X583646Y162014D01*
X584646Y163014D01*
X583646Y164014D01*
X580647D01*
Y167013D02*
Y169012D01*
X581647Y170012D01*
X584646D01*
Y167013D01*
X583646Y166013D01*
X582646Y167013D01*
Y170012D01*
X580647Y172011D02*
X584646D01*
X582646D01*
X581647Y173011D01*
X580647Y174011D01*
Y175010D01*
X578648Y182008D02*
X584646D01*
Y179009D01*
X583646Y178009D01*
X581647D01*
X580647Y179009D01*
Y182008D01*
X578648Y188006D02*
Y184007D01*
X584646D01*
Y188006D01*
X581647Y184007D02*
Y186007D01*
X584646Y190005D02*
Y192005D01*
Y191005D01*
X580647D01*
Y190005D01*
X584646Y195004D02*
Y198003D01*
X583646Y199003D01*
X582646Y198003D01*
Y196003D01*
X581647Y195004D01*
X580647Y196003D01*
Y199003D01*
X584646Y204001D02*
Y202002D01*
X583646Y201002D01*
X581647D01*
X580647Y202002D01*
Y204001D01*
X581647Y205001D01*
X582646D01*
Y201002D01*
X584646Y207000D02*
X580647D01*
Y209999D01*
X581647Y210999D01*
X584646D01*
X578648Y212998D02*
X584646D01*
X581647D01*
X580647Y213998D01*
Y215997D01*
X581647Y216997D01*
X584646D01*
X580647Y219996D02*
Y221995D01*
X581647Y222995D01*
X584646D01*
Y219996D01*
X583646Y218996D01*
X582646Y219996D01*
Y222995D01*
X580647Y224994D02*
X583646D01*
X584646Y225994D01*
Y228993D01*
X580647D01*
X584646Y233991D02*
Y231992D01*
X583646Y230992D01*
X581647D01*
X580647Y231992D01*
Y233991D01*
X581647Y234991D01*
X582646D01*
Y230992D01*
X580647Y236990D02*
X584646D01*
X582646D01*
X581647Y237990D01*
X580647Y238990D01*
Y239989D01*
X584646Y242988D02*
X580647Y246987D01*
X584646Y248986D02*
Y251985D01*
X583646Y252985D01*
X582646Y251985D01*
Y249986D01*
X581647Y248986D01*
X580647Y249986D01*
Y252985D01*
X579647Y255984D02*
X580647D01*
Y254984D01*
Y256984D01*
Y255984D01*
X583646D01*
X584646Y256984D01*
Y259983D02*
X580647D01*
Y260982D01*
X581647Y261982D01*
X584646D01*
X581647D01*
X580647Y262982D01*
X581647Y263982D01*
X584646D01*
X579647Y265981D02*
X578648Y266981D01*
Y268980D01*
X579647Y269980D01*
X580647D01*
X581647Y268980D01*
Y267980D01*
Y268980D01*
X582646Y269980D01*
X583646D01*
X584646Y268980D01*
Y266981D01*
X583646Y265981D01*
X584646Y275978D02*
Y271979D01*
X580647Y275978D01*
X579647D01*
X578648Y274978D01*
Y272979D01*
X579647Y271979D01*
X581647Y277977D02*
Y281976D01*
X584646Y283975D02*
Y286974D01*
X583646Y287974D01*
X582646Y286974D01*
Y284975D01*
X581647Y283975D01*
X580647Y284975D01*
Y287974D01*
Y289973D02*
X583646D01*
X584646Y290973D01*
Y293972D01*
X585645D01*
X586645Y292972D01*
Y291972D01*
X584646Y293972D02*
X580647D01*
X584646Y295971D02*
X580647D01*
Y298970D01*
X581647Y299970D01*
X584646D01*
X579647Y302969D02*
X580647D01*
Y301969D01*
Y303969D01*
Y302969D01*
X583646D01*
X584646Y303969D01*
X578648Y306968D02*
X584646D01*
X581647D01*
X580647Y307967D01*
Y309967D01*
X581647Y310966D01*
X584646D01*
Y315965D02*
Y313965D01*
X583646Y312966D01*
X581647D01*
X580647Y313965D01*
Y315965D01*
X581647Y316964D01*
X582646D01*
Y312966D01*
X584646Y318964D02*
Y321963D01*
X583646Y322962D01*
X582646Y321963D01*
Y319963D01*
X581647Y318964D01*
X580647Y319963D01*
Y322962D01*
X584646Y324962D02*
Y326961D01*
Y325961D01*
X580647D01*
Y324962D01*
Y329960D02*
Y333959D01*
X584646Y329960D01*
Y333959D01*
Y338957D02*
Y336958D01*
X583646Y335958D01*
X581647D01*
X580647Y336958D01*
Y338957D01*
X581647Y339957D01*
X582646D01*
Y335958D01*
X580647Y341956D02*
X584646D01*
X582646D01*
X581647Y342956D01*
X580647Y343956D01*
Y344955D01*
M02*
