G04 Layer_Color=255*
%FSLAX25Y25*%
%MOIN*%
G70*
G01*
G75*
%ADD11C,0.06000*%
%ADD12C,0.10630*%
%ADD13C,0.04724*%
%ADD14R,0.06000X0.06000*%
%ADD15C,0.02362*%
D11*
X428346Y325197D02*
D03*
X402756D02*
D03*
X428346Y342913D02*
D03*
X402756D02*
D03*
X570866Y53150D02*
D03*
Y78740D02*
D03*
X553150Y53150D02*
D03*
Y78740D02*
D03*
X547244Y104331D02*
D03*
Y129921D02*
D03*
X529528Y104331D02*
D03*
Y129921D02*
D03*
X522778Y53150D02*
D03*
Y78740D02*
D03*
X505062Y53150D02*
D03*
Y78740D02*
D03*
X500000Y104331D02*
D03*
Y129921D02*
D03*
X482283Y104331D02*
D03*
Y129921D02*
D03*
X474691Y53150D02*
D03*
Y78740D02*
D03*
X456974Y53150D02*
D03*
Y78740D02*
D03*
X452756Y104331D02*
D03*
Y129921D02*
D03*
X435039Y104331D02*
D03*
Y129921D02*
D03*
X426603Y53150D02*
D03*
Y78740D02*
D03*
X408886Y53150D02*
D03*
Y78740D02*
D03*
X378515Y53150D02*
D03*
Y78740D02*
D03*
X360799Y53150D02*
D03*
Y78740D02*
D03*
X356299Y104331D02*
D03*
Y129921D02*
D03*
X338583Y104331D02*
D03*
Y129921D02*
D03*
X330427Y53150D02*
D03*
Y78740D02*
D03*
X312711Y53150D02*
D03*
Y78740D02*
D03*
X307087Y104331D02*
D03*
Y129921D02*
D03*
X289370Y104331D02*
D03*
Y129921D02*
D03*
X282340Y53150D02*
D03*
Y78740D02*
D03*
X264623Y53150D02*
D03*
Y78740D02*
D03*
X234252Y53150D02*
D03*
Y78740D02*
D03*
X216535Y53150D02*
D03*
Y78740D02*
D03*
X231102Y351181D02*
D03*
X216929Y357480D02*
D03*
X488780Y187008D02*
D03*
X498622D02*
D03*
X508465D02*
D03*
X386713D02*
D03*
X396555D02*
D03*
X406398D02*
D03*
X284646D02*
D03*
X294488D02*
D03*
X304331D02*
D03*
X540551Y269685D02*
D03*
X550394D02*
D03*
X560236D02*
D03*
X438484D02*
D03*
X448327D02*
D03*
X458169D02*
D03*
X310236Y271654D02*
D03*
Y261653D02*
D03*
Y281653D02*
D03*
X480709Y305512D02*
D03*
X500000D02*
D03*
D12*
X481299Y214567D02*
D03*
X515945D02*
D03*
X379232D02*
D03*
X413878D02*
D03*
X277165D02*
D03*
X311811D02*
D03*
X533071Y297244D02*
D03*
X567717D02*
D03*
X431004D02*
D03*
X465650D02*
D03*
D13*
X263779Y249606D02*
D03*
Y277165D02*
D03*
D14*
X310236Y251654D02*
D03*
D15*
X234252Y95866D02*
D03*
X282283Y95965D02*
D03*
X330709D02*
D03*
X378346D02*
D03*
X426378D02*
D03*
X474803Y95177D02*
D03*
X522835D02*
D03*
X571260Y95965D02*
D03*
X547244Y147539D02*
D03*
X500000D02*
D03*
X452362D02*
D03*
X356299D02*
D03*
X307087D02*
D03*
X357874Y286221D02*
D03*
X413779Y273622D02*
D03*
X417717D02*
D03*
X421260D02*
D03*
M02*
