G04 Layer_Physical_Order=1*
G04 Layer_Color=255*
%FSLAX25Y25*%
%MOIN*%
G70*
G01*
G75*
%ADD10C,0.01000*%
%ADD11C,0.06000*%
%ADD12C,0.10630*%
%ADD13C,0.04724*%
%ADD14R,0.06000X0.06000*%
%ADD15C,0.02362*%
G36*
X590551Y39370D02*
X196850D01*
Y364173D01*
X590551D01*
Y39370D01*
D02*
G37*
%LPC*%
G36*
X456474Y82709D02*
X455930Y82637D01*
X454957Y82234D01*
X454121Y81593D01*
X453480Y80757D01*
X453077Y79784D01*
X453005Y79240D01*
X456474D01*
Y82709D01*
D02*
G37*
G36*
X457474D02*
Y79240D01*
X460943D01*
X460871Y79784D01*
X460468Y80757D01*
X459827Y81593D01*
X458991Y82234D01*
X458018Y82637D01*
X457474Y82709D01*
D02*
G37*
G36*
X408386D02*
X407842Y82637D01*
X406869Y82234D01*
X406034Y81593D01*
X405392Y80757D01*
X404989Y79784D01*
X404918Y79240D01*
X408386D01*
Y82709D01*
D02*
G37*
G36*
X409386D02*
Y79240D01*
X412855D01*
X412783Y79784D01*
X412380Y80757D01*
X411739Y81593D01*
X410904Y82234D01*
X409931Y82637D01*
X409386Y82709D01*
D02*
G37*
G36*
X504562D02*
X504018Y82637D01*
X503045Y82234D01*
X502209Y81593D01*
X501568Y80757D01*
X501165Y79784D01*
X501093Y79240D01*
X504562D01*
Y82709D01*
D02*
G37*
G36*
X553650D02*
Y79240D01*
X557118D01*
X557047Y79784D01*
X556644Y80757D01*
X556002Y81593D01*
X555167Y82234D01*
X554194Y82637D01*
X553650Y82709D01*
D02*
G37*
G36*
X289370Y107659D02*
X288509Y107546D01*
X287706Y107213D01*
X287016Y106684D01*
X286487Y105995D01*
X286155Y105192D01*
X286041Y104331D01*
X286155Y103469D01*
X286487Y102667D01*
X287016Y101977D01*
X287706Y101448D01*
X288509Y101116D01*
X289370Y101002D01*
X290231Y101116D01*
X291034Y101448D01*
X291724Y101977D01*
X292253Y102667D01*
X292585Y103469D01*
X292699Y104331D01*
X292585Y105192D01*
X292253Y105995D01*
X291724Y106684D01*
X291034Y107213D01*
X290231Y107546D01*
X289370Y107659D01*
D02*
G37*
G36*
X505562Y82709D02*
Y79240D01*
X509030D01*
X508959Y79784D01*
X508556Y80757D01*
X507915Y81593D01*
X507079Y82234D01*
X506106Y82637D01*
X505562Y82709D01*
D02*
G37*
G36*
X552650D02*
X552105Y82637D01*
X551132Y82234D01*
X550297Y81593D01*
X549656Y80757D01*
X549253Y79784D01*
X549181Y79240D01*
X552650D01*
Y82709D01*
D02*
G37*
G36*
X361299D02*
Y79240D01*
X364767D01*
X364696Y79784D01*
X364293Y80757D01*
X363651Y81593D01*
X362816Y82234D01*
X361843Y82637D01*
X361299Y82709D01*
D02*
G37*
G36*
X216035D02*
X215491Y82637D01*
X214518Y82234D01*
X213683Y81593D01*
X213041Y80757D01*
X212638Y79784D01*
X212567Y79240D01*
X216035D01*
Y82709D01*
D02*
G37*
G36*
X217035D02*
Y79240D01*
X220504D01*
X220432Y79784D01*
X220029Y80757D01*
X219388Y81593D01*
X218553Y82234D01*
X217580Y82637D01*
X217035Y82709D01*
D02*
G37*
G36*
X522778Y82069D02*
X521917Y81955D01*
X521114Y81623D01*
X520425Y81094D01*
X519896Y80404D01*
X519563Y79602D01*
X519450Y78740D01*
X519563Y77879D01*
X519896Y77076D01*
X520425Y76387D01*
X521114Y75858D01*
X521917Y75525D01*
X522778Y75412D01*
X523640Y75525D01*
X524443Y75858D01*
X525132Y76387D01*
X525661Y77076D01*
X525993Y77879D01*
X526107Y78740D01*
X525993Y79602D01*
X525661Y80404D01*
X525132Y81094D01*
X524443Y81623D01*
X523640Y81955D01*
X522778Y82069D01*
D02*
G37*
G36*
X570866D02*
X570005Y81955D01*
X569202Y81623D01*
X568512Y81094D01*
X567983Y80404D01*
X567651Y79602D01*
X567537Y78740D01*
X567651Y77879D01*
X567983Y77076D01*
X568512Y76387D01*
X569202Y75858D01*
X570005Y75525D01*
X570866Y75412D01*
X571728Y75525D01*
X572530Y75858D01*
X573220Y76387D01*
X573748Y77076D01*
X574081Y77879D01*
X574194Y78740D01*
X574081Y79602D01*
X573748Y80404D01*
X573220Y81094D01*
X572530Y81623D01*
X571728Y81955D01*
X570866Y82069D01*
D02*
G37*
G36*
X264123Y82709D02*
X263579Y82637D01*
X262606Y82234D01*
X261770Y81593D01*
X261129Y80757D01*
X260726Y79784D01*
X260654Y79240D01*
X264123D01*
Y82709D01*
D02*
G37*
G36*
X313211D02*
Y79240D01*
X316680D01*
X316608Y79784D01*
X316205Y80757D01*
X315564Y81593D01*
X314728Y82234D01*
X313755Y82637D01*
X313211Y82709D01*
D02*
G37*
G36*
X360299D02*
X359754Y82637D01*
X358781Y82234D01*
X357946Y81593D01*
X357305Y80757D01*
X356902Y79784D01*
X356830Y79240D01*
X360299D01*
Y82709D01*
D02*
G37*
G36*
X265123D02*
Y79240D01*
X268592D01*
X268520Y79784D01*
X268117Y80757D01*
X267476Y81593D01*
X266640Y82234D01*
X265667Y82637D01*
X265123Y82709D01*
D02*
G37*
G36*
X312211D02*
X311667Y82637D01*
X310694Y82234D01*
X309858Y81593D01*
X309217Y80757D01*
X308814Y79784D01*
X308742Y79240D01*
X312211D01*
Y82709D01*
D02*
G37*
G36*
X342551Y129421D02*
X339083D01*
Y125952D01*
X339627Y126024D01*
X340600Y126427D01*
X341435Y127068D01*
X342077Y127904D01*
X342480Y128877D01*
X342551Y129421D01*
D02*
G37*
G36*
X434539D02*
X431071D01*
X431142Y128877D01*
X431545Y127904D01*
X432187Y127068D01*
X433022Y126427D01*
X433995Y126024D01*
X434539Y125952D01*
Y129421D01*
D02*
G37*
G36*
X293339D02*
X289870D01*
Y125952D01*
X290414Y126024D01*
X291387Y126427D01*
X292223Y127068D01*
X292864Y127904D01*
X293267Y128877D01*
X293339Y129421D01*
D02*
G37*
G36*
X338083D02*
X334614D01*
X334686Y128877D01*
X335089Y127904D01*
X335730Y127068D01*
X336565Y126427D01*
X337538Y126024D01*
X338083Y125952D01*
Y129421D01*
D02*
G37*
G36*
X439008D02*
X435539D01*
Y125952D01*
X436084Y126024D01*
X437057Y126427D01*
X437892Y127068D01*
X438533Y127904D01*
X438936Y128877D01*
X439008Y129421D01*
D02*
G37*
G36*
X529028D02*
X525559D01*
X525631Y128877D01*
X526034Y127904D01*
X526675Y127068D01*
X527510Y126427D01*
X528483Y126024D01*
X529028Y125952D01*
Y129421D01*
D02*
G37*
G36*
X533496D02*
X530028D01*
Y125952D01*
X530572Y126024D01*
X531545Y126427D01*
X532380Y127068D01*
X533022Y127904D01*
X533425Y128877D01*
X533496Y129421D01*
D02*
G37*
G36*
X481783D02*
X478315D01*
X478386Y128877D01*
X478789Y127904D01*
X479431Y127068D01*
X480266Y126427D01*
X481239Y126024D01*
X481783Y125952D01*
Y129421D01*
D02*
G37*
G36*
X486252D02*
X482783D01*
Y125952D01*
X483328Y126024D01*
X484301Y126427D01*
X485136Y127068D01*
X485777Y127904D01*
X486180Y128877D01*
X486252Y129421D01*
D02*
G37*
G36*
X288870D02*
X285401D01*
X285473Y128877D01*
X285876Y127904D01*
X286517Y127068D01*
X287353Y126427D01*
X288326Y126024D01*
X288870Y125952D01*
Y129421D01*
D02*
G37*
G36*
X356299Y107659D02*
X355438Y107546D01*
X354635Y107213D01*
X353946Y106684D01*
X353417Y105995D01*
X353084Y105192D01*
X352971Y104331D01*
X353084Y103469D01*
X353417Y102667D01*
X353946Y101977D01*
X354635Y101448D01*
X355438Y101116D01*
X356299Y101002D01*
X357161Y101116D01*
X357963Y101448D01*
X358653Y101977D01*
X359182Y102667D01*
X359514Y103469D01*
X359628Y104331D01*
X359514Y105192D01*
X359182Y105995D01*
X358653Y106684D01*
X357963Y107213D01*
X357161Y107546D01*
X356299Y107659D01*
D02*
G37*
G36*
X435039D02*
X434178Y107546D01*
X433375Y107213D01*
X432686Y106684D01*
X432157Y105995D01*
X431824Y105192D01*
X431711Y104331D01*
X431824Y103469D01*
X432157Y102667D01*
X432686Y101977D01*
X433375Y101448D01*
X434178Y101116D01*
X435039Y101002D01*
X435901Y101116D01*
X436704Y101448D01*
X437393Y101977D01*
X437922Y102667D01*
X438254Y103469D01*
X438368Y104331D01*
X438254Y105192D01*
X437922Y105995D01*
X437393Y106684D01*
X436704Y107213D01*
X435901Y107546D01*
X435039Y107659D01*
D02*
G37*
G36*
X307087D02*
X306225Y107546D01*
X305422Y107213D01*
X304733Y106684D01*
X304204Y105995D01*
X303871Y105192D01*
X303758Y104331D01*
X303871Y103469D01*
X304204Y102667D01*
X304733Y101977D01*
X305422Y101448D01*
X306225Y101116D01*
X307087Y101002D01*
X307948Y101116D01*
X308751Y101448D01*
X309440Y101977D01*
X309969Y102667D01*
X310302Y103469D01*
X310415Y104331D01*
X310302Y105192D01*
X309969Y105995D01*
X309440Y106684D01*
X308751Y107213D01*
X307948Y107546D01*
X307087Y107659D01*
D02*
G37*
G36*
X338583D02*
X337721Y107546D01*
X336918Y107213D01*
X336229Y106684D01*
X335700Y105995D01*
X335367Y105192D01*
X335254Y104331D01*
X335367Y103469D01*
X335700Y102667D01*
X336229Y101977D01*
X336918Y101448D01*
X337721Y101116D01*
X338583Y101002D01*
X339444Y101116D01*
X340247Y101448D01*
X340936Y101977D01*
X341465Y102667D01*
X341798Y103469D01*
X341911Y104331D01*
X341798Y105192D01*
X341465Y105995D01*
X340936Y106684D01*
X340247Y107213D01*
X339444Y107546D01*
X338583Y107659D01*
D02*
G37*
G36*
X452756D02*
X451895Y107546D01*
X451092Y107213D01*
X450402Y106684D01*
X449873Y105995D01*
X449541Y105192D01*
X449428Y104331D01*
X449541Y103469D01*
X449873Y102667D01*
X450402Y101977D01*
X451092Y101448D01*
X451895Y101116D01*
X452756Y101002D01*
X453617Y101116D01*
X454420Y101448D01*
X455110Y101977D01*
X455639Y102667D01*
X455971Y103469D01*
X456084Y104331D01*
X455971Y105192D01*
X455639Y105995D01*
X455110Y106684D01*
X454420Y107213D01*
X453617Y107546D01*
X452756Y107659D01*
D02*
G37*
G36*
X529528D02*
X528666Y107546D01*
X527863Y107213D01*
X527174Y106684D01*
X526645Y105995D01*
X526312Y105192D01*
X526199Y104331D01*
X526312Y103469D01*
X526645Y102667D01*
X527174Y101977D01*
X527863Y101448D01*
X528666Y101116D01*
X529528Y101002D01*
X530389Y101116D01*
X531192Y101448D01*
X531881Y101977D01*
X532410Y102667D01*
X532743Y103469D01*
X532856Y104331D01*
X532743Y105192D01*
X532410Y105995D01*
X531881Y106684D01*
X531192Y107213D01*
X530389Y107546D01*
X529528Y107659D01*
D02*
G37*
G36*
X547244D02*
X546383Y107546D01*
X545580Y107213D01*
X544890Y106684D01*
X544361Y105995D01*
X544029Y105192D01*
X543916Y104331D01*
X544029Y103469D01*
X544361Y102667D01*
X544890Y101977D01*
X545580Y101448D01*
X546383Y101116D01*
X547244Y101002D01*
X548105Y101116D01*
X548908Y101448D01*
X549598Y101977D01*
X550127Y102667D01*
X550459Y103469D01*
X550572Y104331D01*
X550459Y105192D01*
X550127Y105995D01*
X549598Y106684D01*
X548908Y107213D01*
X548105Y107546D01*
X547244Y107659D01*
D02*
G37*
G36*
X482283D02*
X481422Y107546D01*
X480619Y107213D01*
X479930Y106684D01*
X479401Y105995D01*
X479068Y105192D01*
X478955Y104331D01*
X479068Y103469D01*
X479401Y102667D01*
X479930Y101977D01*
X480619Y101448D01*
X481422Y101116D01*
X482283Y101002D01*
X483145Y101116D01*
X483948Y101448D01*
X484637Y101977D01*
X485166Y102667D01*
X485499Y103469D01*
X485612Y104331D01*
X485499Y105192D01*
X485166Y105995D01*
X484637Y106684D01*
X483948Y107213D01*
X483145Y107546D01*
X482283Y107659D01*
D02*
G37*
G36*
X500000D02*
X499138Y107546D01*
X498336Y107213D01*
X497646Y106684D01*
X497118Y105995D01*
X496785Y105192D01*
X496671Y104331D01*
X496785Y103469D01*
X497118Y102667D01*
X497646Y101977D01*
X498336Y101448D01*
X499138Y101116D01*
X500000Y101002D01*
X500862Y101116D01*
X501664Y101448D01*
X502354Y101977D01*
X502882Y102667D01*
X503215Y103469D01*
X503329Y104331D01*
X503215Y105192D01*
X502882Y105995D01*
X502354Y106684D01*
X501664Y107213D01*
X500862Y107546D01*
X500000Y107659D01*
D02*
G37*
G36*
X505062Y56478D02*
X504200Y56365D01*
X503398Y56032D01*
X502708Y55503D01*
X502179Y54814D01*
X501847Y54011D01*
X501733Y53150D01*
X501847Y52288D01*
X502179Y51485D01*
X502708Y50796D01*
X503398Y50267D01*
X504200Y49935D01*
X505062Y49821D01*
X505923Y49935D01*
X506726Y50267D01*
X507415Y50796D01*
X507944Y51485D01*
X508277Y52288D01*
X508390Y53150D01*
X508277Y54011D01*
X507944Y54814D01*
X507415Y55503D01*
X506726Y56032D01*
X505923Y56365D01*
X505062Y56478D01*
D02*
G37*
G36*
X522778D02*
X521917Y56365D01*
X521114Y56032D01*
X520425Y55503D01*
X519896Y54814D01*
X519563Y54011D01*
X519450Y53150D01*
X519563Y52288D01*
X519896Y51485D01*
X520425Y50796D01*
X521114Y50267D01*
X521917Y49935D01*
X522778Y49821D01*
X523640Y49935D01*
X524443Y50267D01*
X525132Y50796D01*
X525661Y51485D01*
X525993Y52288D01*
X526107Y53150D01*
X525993Y54011D01*
X525661Y54814D01*
X525132Y55503D01*
X524443Y56032D01*
X523640Y56365D01*
X522778Y56478D01*
D02*
G37*
G36*
X456974D02*
X456112Y56365D01*
X455310Y56032D01*
X454620Y55503D01*
X454091Y54814D01*
X453759Y54011D01*
X453646Y53150D01*
X453759Y52288D01*
X454091Y51485D01*
X454620Y50796D01*
X455310Y50267D01*
X456112Y49935D01*
X456974Y49821D01*
X457835Y49935D01*
X458638Y50267D01*
X459328Y50796D01*
X459857Y51485D01*
X460189Y52288D01*
X460302Y53150D01*
X460189Y54011D01*
X459857Y54814D01*
X459328Y55503D01*
X458638Y56032D01*
X457835Y56365D01*
X456974Y56478D01*
D02*
G37*
G36*
X474691D02*
X473829Y56365D01*
X473026Y56032D01*
X472337Y55503D01*
X471808Y54814D01*
X471476Y54011D01*
X471362Y53150D01*
X471476Y52288D01*
X471808Y51485D01*
X472337Y50796D01*
X473026Y50267D01*
X473829Y49935D01*
X474691Y49821D01*
X475552Y49935D01*
X476355Y50267D01*
X477044Y50796D01*
X477573Y51485D01*
X477906Y52288D01*
X478019Y53150D01*
X477906Y54011D01*
X477573Y54814D01*
X477044Y55503D01*
X476355Y56032D01*
X475552Y56365D01*
X474691Y56478D01*
D02*
G37*
G36*
X553150D02*
X552288Y56365D01*
X551485Y56032D01*
X550796Y55503D01*
X550267Y54814D01*
X549934Y54011D01*
X549821Y53150D01*
X549934Y52288D01*
X550267Y51485D01*
X550796Y50796D01*
X551485Y50267D01*
X552288Y49935D01*
X553150Y49821D01*
X554011Y49935D01*
X554814Y50267D01*
X555503Y50796D01*
X556032Y51485D01*
X556365Y52288D01*
X556478Y53150D01*
X556365Y54011D01*
X556032Y54814D01*
X555503Y55503D01*
X554814Y56032D01*
X554011Y56365D01*
X553150Y56478D01*
D02*
G37*
G36*
X220504Y78240D02*
X217035D01*
Y74771D01*
X217580Y74843D01*
X218553Y75246D01*
X219388Y75887D01*
X220029Y76723D01*
X220432Y77696D01*
X220504Y78240D01*
D02*
G37*
G36*
X264123D02*
X260654D01*
X260726Y77696D01*
X261129Y76723D01*
X261770Y75887D01*
X262606Y75246D01*
X263579Y74843D01*
X264123Y74771D01*
Y78240D01*
D02*
G37*
G36*
X570866Y56478D02*
X570005Y56365D01*
X569202Y56032D01*
X568512Y55503D01*
X567983Y54814D01*
X567651Y54011D01*
X567537Y53150D01*
X567651Y52288D01*
X567983Y51485D01*
X568512Y50796D01*
X569202Y50267D01*
X570005Y49935D01*
X570866Y49821D01*
X571728Y49935D01*
X572530Y50267D01*
X573220Y50796D01*
X573748Y51485D01*
X574081Y52288D01*
X574194Y53150D01*
X574081Y54011D01*
X573748Y54814D01*
X573220Y55503D01*
X572530Y56032D01*
X571728Y56365D01*
X570866Y56478D01*
D02*
G37*
G36*
X216035Y78240D02*
X212567D01*
X212638Y77696D01*
X213041Y76723D01*
X213683Y75887D01*
X214518Y75246D01*
X215491Y74843D01*
X216035Y74771D01*
Y78240D01*
D02*
G37*
G36*
X426603Y56478D02*
X425741Y56365D01*
X424939Y56032D01*
X424249Y55503D01*
X423720Y54814D01*
X423388Y54011D01*
X423274Y53150D01*
X423388Y52288D01*
X423720Y51485D01*
X424249Y50796D01*
X424939Y50267D01*
X425741Y49935D01*
X426603Y49821D01*
X427464Y49935D01*
X428267Y50267D01*
X428956Y50796D01*
X429485Y51485D01*
X429818Y52288D01*
X429931Y53150D01*
X429818Y54011D01*
X429485Y54814D01*
X428956Y55503D01*
X428267Y56032D01*
X427464Y56365D01*
X426603Y56478D01*
D02*
G37*
G36*
X264623D02*
X263762Y56365D01*
X262959Y56032D01*
X262270Y55503D01*
X261741Y54814D01*
X261408Y54011D01*
X261295Y53150D01*
X261408Y52288D01*
X261741Y51485D01*
X262270Y50796D01*
X262959Y50267D01*
X263762Y49935D01*
X264623Y49821D01*
X265485Y49935D01*
X266287Y50267D01*
X266977Y50796D01*
X267506Y51485D01*
X267838Y52288D01*
X267952Y53150D01*
X267838Y54011D01*
X267506Y54814D01*
X266977Y55503D01*
X266287Y56032D01*
X265485Y56365D01*
X264623Y56478D01*
D02*
G37*
G36*
X282340D02*
X281478Y56365D01*
X280676Y56032D01*
X279986Y55503D01*
X279457Y54814D01*
X279125Y54011D01*
X279011Y53150D01*
X279125Y52288D01*
X279457Y51485D01*
X279986Y50796D01*
X280676Y50267D01*
X281478Y49935D01*
X282340Y49821D01*
X283201Y49935D01*
X284004Y50267D01*
X284693Y50796D01*
X285222Y51485D01*
X285555Y52288D01*
X285668Y53150D01*
X285555Y54011D01*
X285222Y54814D01*
X284693Y55503D01*
X284004Y56032D01*
X283201Y56365D01*
X282340Y56478D01*
D02*
G37*
G36*
X216535D02*
X215674Y56365D01*
X214871Y56032D01*
X214182Y55503D01*
X213653Y54814D01*
X213320Y54011D01*
X213207Y53150D01*
X213320Y52288D01*
X213653Y51485D01*
X214182Y50796D01*
X214871Y50267D01*
X215674Y49935D01*
X216535Y49821D01*
X217397Y49935D01*
X218200Y50267D01*
X218889Y50796D01*
X219418Y51485D01*
X219750Y52288D01*
X219864Y53150D01*
X219750Y54011D01*
X219418Y54814D01*
X218889Y55503D01*
X218200Y56032D01*
X217397Y56365D01*
X216535Y56478D01*
D02*
G37*
G36*
X234252D02*
X233390Y56365D01*
X232588Y56032D01*
X231898Y55503D01*
X231369Y54814D01*
X231037Y54011D01*
X230924Y53150D01*
X231037Y52288D01*
X231369Y51485D01*
X231898Y50796D01*
X232588Y50267D01*
X233390Y49935D01*
X234252Y49821D01*
X235114Y49935D01*
X235916Y50267D01*
X236606Y50796D01*
X237135Y51485D01*
X237467Y52288D01*
X237580Y53150D01*
X237467Y54011D01*
X237135Y54814D01*
X236606Y55503D01*
X235916Y56032D01*
X235114Y56365D01*
X234252Y56478D01*
D02*
G37*
G36*
X312711D02*
X311849Y56365D01*
X311047Y56032D01*
X310357Y55503D01*
X309828Y54814D01*
X309496Y54011D01*
X309382Y53150D01*
X309496Y52288D01*
X309828Y51485D01*
X310357Y50796D01*
X311047Y50267D01*
X311849Y49935D01*
X312711Y49821D01*
X313572Y49935D01*
X314375Y50267D01*
X315064Y50796D01*
X315593Y51485D01*
X315926Y52288D01*
X316039Y53150D01*
X315926Y54011D01*
X315593Y54814D01*
X315064Y55503D01*
X314375Y56032D01*
X313572Y56365D01*
X312711Y56478D01*
D02*
G37*
G36*
X378515D02*
X377654Y56365D01*
X376851Y56032D01*
X376162Y55503D01*
X375633Y54814D01*
X375300Y54011D01*
X375187Y53150D01*
X375300Y52288D01*
X375633Y51485D01*
X376162Y50796D01*
X376851Y50267D01*
X377654Y49935D01*
X378515Y49821D01*
X379377Y49935D01*
X380179Y50267D01*
X380869Y50796D01*
X381398Y51485D01*
X381730Y52288D01*
X381844Y53150D01*
X381730Y54011D01*
X381398Y54814D01*
X380869Y55503D01*
X380179Y56032D01*
X379377Y56365D01*
X378515Y56478D01*
D02*
G37*
G36*
X408886D02*
X408025Y56365D01*
X407222Y56032D01*
X406533Y55503D01*
X406004Y54814D01*
X405671Y54011D01*
X405558Y53150D01*
X405671Y52288D01*
X406004Y51485D01*
X406533Y50796D01*
X407222Y50267D01*
X408025Y49935D01*
X408886Y49821D01*
X409748Y49935D01*
X410551Y50267D01*
X411240Y50796D01*
X411769Y51485D01*
X412102Y52288D01*
X412215Y53150D01*
X412102Y54011D01*
X411769Y54814D01*
X411240Y55503D01*
X410551Y56032D01*
X409748Y56365D01*
X408886Y56478D01*
D02*
G37*
G36*
X330427D02*
X329566Y56365D01*
X328763Y56032D01*
X328074Y55503D01*
X327545Y54814D01*
X327212Y54011D01*
X327099Y53150D01*
X327212Y52288D01*
X327545Y51485D01*
X328074Y50796D01*
X328763Y50267D01*
X329566Y49935D01*
X330427Y49821D01*
X331289Y49935D01*
X332092Y50267D01*
X332781Y50796D01*
X333310Y51485D01*
X333643Y52288D01*
X333756Y53150D01*
X333643Y54011D01*
X333310Y54814D01*
X332781Y55503D01*
X332092Y56032D01*
X331289Y56365D01*
X330427Y56478D01*
D02*
G37*
G36*
X360799D02*
X359937Y56365D01*
X359134Y56032D01*
X358445Y55503D01*
X357916Y54814D01*
X357583Y54011D01*
X357470Y53150D01*
X357583Y52288D01*
X357916Y51485D01*
X358445Y50796D01*
X359134Y50267D01*
X359937Y49935D01*
X360799Y49821D01*
X361660Y49935D01*
X362463Y50267D01*
X363152Y50796D01*
X363681Y51485D01*
X364014Y52288D01*
X364127Y53150D01*
X364014Y54011D01*
X363681Y54814D01*
X363152Y55503D01*
X362463Y56032D01*
X361660Y56365D01*
X360799Y56478D01*
D02*
G37*
G36*
X557118Y78240D02*
X553650D01*
Y74771D01*
X554194Y74843D01*
X555167Y75246D01*
X556002Y75887D01*
X556644Y76723D01*
X557047Y77696D01*
X557118Y78240D01*
D02*
G37*
G36*
X234252Y82069D02*
X233390Y81955D01*
X232588Y81623D01*
X231898Y81094D01*
X231369Y80404D01*
X231037Y79602D01*
X230924Y78740D01*
X231037Y77879D01*
X231369Y77076D01*
X231898Y76387D01*
X232588Y75858D01*
X233390Y75525D01*
X234252Y75412D01*
X235114Y75525D01*
X235916Y75858D01*
X236606Y76387D01*
X237135Y77076D01*
X237467Y77879D01*
X237580Y78740D01*
X237467Y79602D01*
X237135Y80404D01*
X236606Y81094D01*
X235916Y81623D01*
X235114Y81955D01*
X234252Y82069D01*
D02*
G37*
G36*
X509030Y78240D02*
X505562D01*
Y74771D01*
X506106Y74843D01*
X507079Y75246D01*
X507915Y75887D01*
X508556Y76723D01*
X508959Y77696D01*
X509030Y78240D01*
D02*
G37*
G36*
X552650D02*
X549181D01*
X549253Y77696D01*
X549656Y76723D01*
X550297Y75887D01*
X551132Y75246D01*
X552105Y74843D01*
X552650Y74771D01*
Y78240D01*
D02*
G37*
G36*
X282340Y82069D02*
X281478Y81955D01*
X280676Y81623D01*
X279986Y81094D01*
X279457Y80404D01*
X279125Y79602D01*
X279011Y78740D01*
X279125Y77879D01*
X279457Y77076D01*
X279986Y76387D01*
X280676Y75858D01*
X281478Y75525D01*
X282340Y75412D01*
X283201Y75525D01*
X284004Y75858D01*
X284693Y76387D01*
X285222Y77076D01*
X285555Y77879D01*
X285668Y78740D01*
X285555Y79602D01*
X285222Y80404D01*
X284693Y81094D01*
X284004Y81623D01*
X283201Y81955D01*
X282340Y82069D01*
D02*
G37*
G36*
X426603D02*
X425741Y81955D01*
X424939Y81623D01*
X424249Y81094D01*
X423720Y80404D01*
X423388Y79602D01*
X423274Y78740D01*
X423388Y77879D01*
X423720Y77076D01*
X424249Y76387D01*
X424939Y75858D01*
X425741Y75525D01*
X426603Y75412D01*
X427464Y75525D01*
X428267Y75858D01*
X428956Y76387D01*
X429485Y77076D01*
X429818Y77879D01*
X429931Y78740D01*
X429818Y79602D01*
X429485Y80404D01*
X428956Y81094D01*
X428267Y81623D01*
X427464Y81955D01*
X426603Y82069D01*
D02*
G37*
G36*
X474691D02*
X473829Y81955D01*
X473026Y81623D01*
X472337Y81094D01*
X471808Y80404D01*
X471476Y79602D01*
X471362Y78740D01*
X471476Y77879D01*
X471808Y77076D01*
X472337Y76387D01*
X473026Y75858D01*
X473829Y75525D01*
X474691Y75412D01*
X475552Y75525D01*
X476355Y75858D01*
X477044Y76387D01*
X477573Y77076D01*
X477906Y77879D01*
X478019Y78740D01*
X477906Y79602D01*
X477573Y80404D01*
X477044Y81094D01*
X476355Y81623D01*
X475552Y81955D01*
X474691Y82069D01*
D02*
G37*
G36*
X330427D02*
X329566Y81955D01*
X328763Y81623D01*
X328074Y81094D01*
X327545Y80404D01*
X327212Y79602D01*
X327099Y78740D01*
X327212Y77879D01*
X327545Y77076D01*
X328074Y76387D01*
X328763Y75858D01*
X329566Y75525D01*
X330427Y75412D01*
X331289Y75525D01*
X332092Y75858D01*
X332781Y76387D01*
X333310Y77076D01*
X333643Y77879D01*
X333756Y78740D01*
X333643Y79602D01*
X333310Y80404D01*
X332781Y81094D01*
X332092Y81623D01*
X331289Y81955D01*
X330427Y82069D01*
D02*
G37*
G36*
X378515D02*
X377654Y81955D01*
X376851Y81623D01*
X376162Y81094D01*
X375633Y80404D01*
X375300Y79602D01*
X375187Y78740D01*
X375300Y77879D01*
X375633Y77076D01*
X376162Y76387D01*
X376851Y75858D01*
X377654Y75525D01*
X378515Y75412D01*
X379377Y75525D01*
X380179Y75858D01*
X380869Y76387D01*
X381398Y77076D01*
X381730Y77879D01*
X381844Y78740D01*
X381730Y79602D01*
X381398Y80404D01*
X380869Y81094D01*
X380179Y81623D01*
X379377Y81955D01*
X378515Y82069D01*
D02*
G37*
G36*
X504562Y78240D02*
X501093D01*
X501165Y77696D01*
X501568Y76723D01*
X502209Y75887D01*
X503045Y75246D01*
X504018Y74843D01*
X504562Y74771D01*
Y78240D01*
D02*
G37*
G36*
X316680D02*
X313211D01*
Y74771D01*
X313755Y74843D01*
X314728Y75246D01*
X315564Y75887D01*
X316205Y76723D01*
X316608Y77696D01*
X316680Y78240D01*
D02*
G37*
G36*
X360299D02*
X356830D01*
X356902Y77696D01*
X357305Y76723D01*
X357946Y75887D01*
X358781Y75246D01*
X359754Y74843D01*
X360299Y74771D01*
Y78240D01*
D02*
G37*
G36*
X268592D02*
X265123D01*
Y74771D01*
X265667Y74843D01*
X266640Y75246D01*
X267476Y75887D01*
X268117Y76723D01*
X268520Y77696D01*
X268592Y78240D01*
D02*
G37*
G36*
X312211D02*
X308742D01*
X308814Y77696D01*
X309217Y76723D01*
X309858Y75887D01*
X310694Y75246D01*
X311667Y74843D01*
X312211Y74771D01*
Y78240D01*
D02*
G37*
G36*
X364767D02*
X361299D01*
Y74771D01*
X361843Y74843D01*
X362816Y75246D01*
X363651Y75887D01*
X364293Y76723D01*
X364696Y77696D01*
X364767Y78240D01*
D02*
G37*
G36*
X456474D02*
X453005D01*
X453077Y77696D01*
X453480Y76723D01*
X454121Y75887D01*
X454957Y75246D01*
X455930Y74843D01*
X456474Y74771D01*
Y78240D01*
D02*
G37*
G36*
X460943D02*
X457474D01*
Y74771D01*
X458018Y74843D01*
X458991Y75246D01*
X459827Y75887D01*
X460468Y76723D01*
X460871Y77696D01*
X460943Y78240D01*
D02*
G37*
G36*
X408386D02*
X404918D01*
X404989Y77696D01*
X405392Y76723D01*
X406034Y75887D01*
X406869Y75246D01*
X407842Y74843D01*
X408386Y74771D01*
Y78240D01*
D02*
G37*
G36*
X412855D02*
X409386D01*
Y74771D01*
X409931Y74843D01*
X410904Y75246D01*
X411739Y75887D01*
X412380Y76723D01*
X412783Y77696D01*
X412855Y78240D01*
D02*
G37*
G36*
X307087Y133250D02*
X306225Y133136D01*
X305422Y132804D01*
X304733Y132275D01*
X304204Y131585D01*
X303871Y130783D01*
X303758Y129921D01*
X303871Y129060D01*
X304204Y128257D01*
X304733Y127568D01*
X305422Y127039D01*
X306225Y126706D01*
X307087Y126593D01*
X307948Y126706D01*
X308751Y127039D01*
X309440Y127568D01*
X309969Y128257D01*
X310302Y129060D01*
X310415Y129921D01*
X310302Y130783D01*
X309969Y131585D01*
X309440Y132275D01*
X308751Y132804D01*
X307948Y133136D01*
X307087Y133250D01*
D02*
G37*
G36*
X216929Y360809D02*
X216068Y360695D01*
X215265Y360363D01*
X214576Y359834D01*
X214047Y359144D01*
X213714Y358342D01*
X213601Y357480D01*
X213714Y356619D01*
X214047Y355816D01*
X214576Y355127D01*
X215265Y354598D01*
X216068Y354265D01*
X216929Y354152D01*
X217791Y354265D01*
X218593Y354598D01*
X219283Y355127D01*
X219812Y355816D01*
X220144Y356619D01*
X220150Y356665D01*
X476827D01*
X508240Y325253D01*
Y277083D01*
X507987Y276914D01*
X507660Y276424D01*
X507545Y275847D01*
X507660Y275269D01*
X507987Y274779D01*
X508477Y274451D01*
X509055Y274336D01*
X509633Y274451D01*
X510123Y274779D01*
X510450Y275269D01*
X510565Y275847D01*
X510450Y276424D01*
X510123Y276914D01*
X509871Y277083D01*
Y325590D01*
X509871Y325590D01*
X509809Y325903D01*
X509632Y326167D01*
X509632Y326167D01*
X477742Y358057D01*
X477478Y358234D01*
X477165Y358296D01*
X477165Y358296D01*
X220150D01*
X220144Y358342D01*
X219812Y359144D01*
X219283Y359834D01*
X218593Y360363D01*
X217791Y360695D01*
X216929Y360809D01*
D02*
G37*
G36*
X263779Y279851D02*
X263085Y279759D01*
X262437Y279491D01*
X261881Y279064D01*
X261454Y278508D01*
X261186Y277860D01*
X261094Y277165D01*
X261186Y276470D01*
X261454Y275823D01*
X261881Y275267D01*
X262437Y274840D01*
X263085Y274572D01*
X263779Y274480D01*
X264475Y274572D01*
X265122Y274840D01*
X265678Y275267D01*
X266105Y275823D01*
X266373Y276470D01*
X266465Y277165D01*
X266373Y277860D01*
X266105Y278508D01*
X265678Y279064D01*
X265122Y279491D01*
X264475Y279759D01*
X263779Y279851D01*
D02*
G37*
G36*
X560736Y273654D02*
Y270185D01*
X564205D01*
X564133Y270729D01*
X563730Y271702D01*
X563089Y272538D01*
X562254Y273179D01*
X561280Y273582D01*
X560736Y273654D01*
D02*
G37*
G36*
X413779Y275132D02*
X413202Y275017D01*
X412712Y274690D01*
X412384Y274200D01*
X412269Y273622D01*
X412329Y273325D01*
X376434Y237430D01*
X344094D01*
X344094Y237430D01*
X343782Y237368D01*
X343518Y237191D01*
X296189Y189862D01*
X296152Y189891D01*
X295350Y190223D01*
X294488Y190336D01*
X293627Y190223D01*
X292824Y189891D01*
X292134Y189362D01*
X291606Y188672D01*
X291273Y187869D01*
X291160Y187008D01*
X291273Y186146D01*
X291606Y185344D01*
X292134Y184654D01*
X292824Y184125D01*
X293627Y183793D01*
X294488Y183679D01*
X295350Y183793D01*
X296152Y184125D01*
X296842Y184654D01*
X297371Y185344D01*
X297703Y186146D01*
X297817Y187008D01*
X297703Y187869D01*
X297371Y188672D01*
X297343Y188709D01*
X344432Y235799D01*
X376772D01*
X376772Y235799D01*
X377084Y235861D01*
X377348Y236037D01*
X413482Y272171D01*
X413779Y272112D01*
X414357Y272227D01*
X414847Y272554D01*
X415175Y273044D01*
X415290Y273622D01*
X415175Y274200D01*
X414847Y274690D01*
X414357Y275017D01*
X413779Y275132D01*
D02*
G37*
G36*
X357874Y287731D02*
X357296Y287616D01*
X356806Y287288D01*
X356638Y287036D01*
X350000D01*
X349688Y286974D01*
X349423Y286797D01*
X349423Y286797D01*
X345095Y282469D01*
X313457D01*
X313451Y282515D01*
X313119Y283318D01*
X312590Y284007D01*
X311900Y284536D01*
X311098Y284869D01*
X310236Y284982D01*
X309375Y284869D01*
X308572Y284536D01*
X307883Y284007D01*
X307354Y283318D01*
X307021Y282515D01*
X306908Y281653D01*
X307021Y280792D01*
X307354Y279989D01*
X307883Y279300D01*
X308572Y278771D01*
X309375Y278438D01*
X310236Y278325D01*
X311098Y278438D01*
X311900Y278771D01*
X312590Y279300D01*
X313119Y279989D01*
X313451Y280792D01*
X313457Y280838D01*
X345433D01*
X345433Y280838D01*
X345745Y280900D01*
X346010Y281077D01*
X350338Y285405D01*
X356638D01*
X356806Y285153D01*
X357296Y284825D01*
X357874Y284710D01*
X358452Y284825D01*
X358942Y285153D01*
X359269Y285643D01*
X359384Y286221D01*
X359269Y286798D01*
X358942Y287288D01*
X358452Y287616D01*
X357874Y287731D01*
D02*
G37*
G36*
X533071Y302907D02*
X531605Y302714D01*
X530239Y302149D01*
X529066Y301249D01*
X528166Y300076D01*
X527600Y298710D01*
X527407Y297244D01*
X527600Y295778D01*
X528166Y294412D01*
X529066Y293239D01*
X530239Y292339D01*
X531605Y291774D01*
X533071Y291581D01*
X534537Y291774D01*
X535903Y292339D01*
X537076Y293239D01*
X537976Y294412D01*
X538541Y295778D01*
X538734Y297244D01*
X538541Y298710D01*
X537976Y300076D01*
X537076Y301249D01*
X535903Y302149D01*
X534537Y302714D01*
X533071Y302907D01*
D02*
G37*
G36*
X567717D02*
X566251Y302714D01*
X564885Y302149D01*
X563712Y301249D01*
X562812Y300076D01*
X562246Y298710D01*
X562053Y297244D01*
X562246Y295778D01*
X562812Y294412D01*
X563712Y293239D01*
X564885Y292339D01*
X566251Y291774D01*
X567717Y291581D01*
X569182Y291774D01*
X570548Y292339D01*
X571721Y293239D01*
X572621Y294412D01*
X573187Y295778D01*
X573380Y297244D01*
X573187Y298710D01*
X572621Y300076D01*
X571721Y301249D01*
X570548Y302149D01*
X569182Y302714D01*
X567717Y302907D01*
D02*
G37*
G36*
X431004D02*
X429538Y302714D01*
X428172Y302149D01*
X426999Y301249D01*
X426099Y300076D01*
X425533Y298710D01*
X425341Y297244D01*
X425533Y295778D01*
X426099Y294412D01*
X426999Y293239D01*
X428172Y292339D01*
X429538Y291774D01*
X431004Y291581D01*
X432470Y291774D01*
X433836Y292339D01*
X435009Y293239D01*
X435909Y294412D01*
X436474Y295778D01*
X436667Y297244D01*
X436474Y298710D01*
X435909Y300076D01*
X435009Y301249D01*
X433836Y302149D01*
X432470Y302714D01*
X431004Y302907D01*
D02*
G37*
G36*
X465650D02*
X464184Y302714D01*
X462818Y302149D01*
X461645Y301249D01*
X460745Y300076D01*
X460179Y298710D01*
X459986Y297244D01*
X460179Y295778D01*
X460745Y294412D01*
X461645Y293239D01*
X462818Y292339D01*
X464184Y291774D01*
X465650Y291581D01*
X467115Y291774D01*
X468481Y292339D01*
X469654Y293239D01*
X470554Y294412D01*
X471120Y295778D01*
X471313Y297244D01*
X471120Y298710D01*
X470554Y300076D01*
X469654Y301249D01*
X468481Y302149D01*
X467115Y302714D01*
X465650Y302907D01*
D02*
G37*
G36*
X559736Y273654D02*
X559192Y273582D01*
X558219Y273179D01*
X557383Y272538D01*
X556742Y271702D01*
X556339Y270729D01*
X556267Y270185D01*
X559736D01*
Y273654D01*
D02*
G37*
G36*
X564205Y269185D02*
X560736D01*
Y265716D01*
X561280Y265788D01*
X562254Y266191D01*
X563089Y266832D01*
X563730Y267668D01*
X564133Y268641D01*
X564205Y269185D01*
D02*
G37*
G36*
X438484Y273013D02*
X437623Y272900D01*
X436820Y272568D01*
X436131Y272039D01*
X435602Y271349D01*
X435269Y270547D01*
X435156Y269685D01*
X435269Y268824D01*
X435602Y268021D01*
X436131Y267331D01*
X436820Y266803D01*
X437623Y266470D01*
X438484Y266357D01*
X439346Y266470D01*
X440148Y266803D01*
X440838Y267331D01*
X441367Y268021D01*
X441699Y268824D01*
X441813Y269685D01*
X441699Y270547D01*
X441367Y271349D01*
X440838Y272039D01*
X440148Y272568D01*
X439346Y272900D01*
X438484Y273013D01*
D02*
G37*
G36*
X310236Y264982D02*
X309375Y264869D01*
X308572Y264536D01*
X307883Y264007D01*
X307354Y263318D01*
X307021Y262515D01*
X306908Y261653D01*
X307021Y260792D01*
X307354Y259989D01*
X307883Y259300D01*
X308572Y258771D01*
X309375Y258438D01*
X310236Y258325D01*
X311098Y258438D01*
X311900Y258771D01*
X312590Y259300D01*
X313119Y259989D01*
X313451Y260792D01*
X313565Y261653D01*
X313451Y262515D01*
X313119Y263318D01*
X312590Y264007D01*
X311900Y264536D01*
X311098Y264869D01*
X310236Y264982D01*
D02*
G37*
G36*
X559736Y269185D02*
X556267D01*
X556339Y268641D01*
X556742Y267668D01*
X557383Y266832D01*
X558219Y266191D01*
X559192Y265788D01*
X559736Y265716D01*
Y269185D01*
D02*
G37*
G36*
X448327Y273013D02*
X447465Y272900D01*
X446663Y272568D01*
X445973Y272039D01*
X445444Y271349D01*
X445112Y270547D01*
X444998Y269685D01*
X445112Y268824D01*
X445444Y268021D01*
X445973Y267331D01*
X446663Y266803D01*
X447465Y266470D01*
X448327Y266357D01*
X449188Y266470D01*
X449991Y266803D01*
X450680Y267331D01*
X451209Y268021D01*
X451542Y268824D01*
X451655Y269685D01*
X451542Y270547D01*
X451209Y271349D01*
X450680Y272039D01*
X449991Y272568D01*
X449188Y272900D01*
X448327Y273013D01*
D02*
G37*
G36*
X550394D02*
X549532Y272900D01*
X548729Y272568D01*
X548040Y272039D01*
X547511Y271349D01*
X547179Y270547D01*
X547065Y269685D01*
X547179Y268824D01*
X547511Y268021D01*
X548040Y267331D01*
X548729Y266803D01*
X549532Y266470D01*
X550394Y266357D01*
X551255Y266470D01*
X552058Y266803D01*
X552747Y267331D01*
X553276Y268021D01*
X553609Y268824D01*
X553722Y269685D01*
X553609Y270547D01*
X553276Y271349D01*
X552747Y272039D01*
X552058Y272568D01*
X551255Y272900D01*
X550394Y273013D01*
D02*
G37*
G36*
X310236Y274982D02*
X309375Y274869D01*
X308572Y274536D01*
X307883Y274007D01*
X307354Y273318D01*
X307021Y272515D01*
X306908Y271654D01*
X307021Y270792D01*
X307354Y269989D01*
X307883Y269300D01*
X308572Y268771D01*
X309375Y268439D01*
X310236Y268325D01*
X311098Y268439D01*
X311900Y268771D01*
X312590Y269300D01*
X313119Y269989D01*
X313451Y270792D01*
X313565Y271654D01*
X313451Y272515D01*
X313119Y273318D01*
X312590Y274007D01*
X311900Y274536D01*
X311098Y274869D01*
X310236Y274982D01*
D02*
G37*
G36*
X458169Y273013D02*
X457308Y272900D01*
X456505Y272568D01*
X455816Y272039D01*
X455287Y271349D01*
X454954Y270547D01*
X454841Y269685D01*
X454954Y268824D01*
X455287Y268021D01*
X455816Y267331D01*
X456505Y266803D01*
X457308Y266470D01*
X458169Y266357D01*
X459031Y266470D01*
X459833Y266803D01*
X460523Y267331D01*
X461052Y268021D01*
X461384Y268824D01*
X461498Y269685D01*
X461384Y270547D01*
X461052Y271349D01*
X460523Y272039D01*
X459833Y272568D01*
X459031Y272900D01*
X458169Y273013D01*
D02*
G37*
G36*
X540551D02*
X539690Y272900D01*
X538887Y272568D01*
X538198Y272039D01*
X537669Y271349D01*
X537336Y270547D01*
X537223Y269685D01*
X537336Y268824D01*
X537669Y268021D01*
X538198Y267331D01*
X538887Y266803D01*
X539690Y266470D01*
X540551Y266357D01*
X541413Y266470D01*
X542215Y266803D01*
X542905Y267331D01*
X543434Y268021D01*
X543766Y268824D01*
X543880Y269685D01*
X543766Y270547D01*
X543434Y271349D01*
X542905Y272039D01*
X542215Y272568D01*
X541413Y272900D01*
X540551Y273013D01*
D02*
G37*
G36*
X403256Y346882D02*
Y343413D01*
X406725D01*
X406653Y343957D01*
X406250Y344931D01*
X405609Y345766D01*
X404773Y346407D01*
X403800Y346810D01*
X403256Y346882D01*
D02*
G37*
G36*
X427847D02*
X427302Y346810D01*
X426329Y346407D01*
X425494Y345766D01*
X424853Y344931D01*
X424449Y343957D01*
X424378Y343413D01*
X427847D01*
Y346882D01*
D02*
G37*
G36*
X432315Y342413D02*
X428847D01*
Y338945D01*
X429391Y339016D01*
X430364Y339419D01*
X431199Y340060D01*
X431841Y340896D01*
X432244Y341869D01*
X432315Y342413D01*
D02*
G37*
G36*
X402256Y346882D02*
X401712Y346810D01*
X400739Y346407D01*
X399903Y345766D01*
X399262Y344931D01*
X398859Y343957D01*
X398787Y343413D01*
X402256D01*
Y346882D01*
D02*
G37*
G36*
X428847D02*
Y343413D01*
X432315D01*
X432244Y343957D01*
X431841Y344931D01*
X431199Y345766D01*
X430364Y346407D01*
X429391Y346810D01*
X428847Y346882D01*
D02*
G37*
G36*
X230602Y355150D02*
X230058Y355078D01*
X229085Y354675D01*
X228250Y354034D01*
X227608Y353198D01*
X227205Y352225D01*
X227134Y351681D01*
X230602D01*
Y355150D01*
D02*
G37*
G36*
X231602D02*
Y351681D01*
X235071D01*
X234999Y352225D01*
X234596Y353198D01*
X233955Y354034D01*
X233120Y354675D01*
X232147Y355078D01*
X231602Y355150D01*
D02*
G37*
G36*
X230602Y350681D02*
X227134D01*
X227205Y350137D01*
X227608Y349164D01*
X228250Y348328D01*
X229085Y347687D01*
X230058Y347284D01*
X230602Y347212D01*
Y350681D01*
D02*
G37*
G36*
X235071D02*
X231602D01*
Y347212D01*
X232147Y347284D01*
X233120Y347687D01*
X233955Y348328D01*
X234596Y349164D01*
X234999Y350137D01*
X235071Y350681D01*
D02*
G37*
G36*
X402256Y342413D02*
X398787D01*
X398859Y341869D01*
X399262Y340896D01*
X399903Y340060D01*
X400739Y339419D01*
X401712Y339016D01*
X402256Y338945D01*
Y342413D01*
D02*
G37*
G36*
X480709Y308840D02*
X479847Y308727D01*
X479044Y308394D01*
X478355Y307865D01*
X477826Y307176D01*
X477494Y306373D01*
X477380Y305512D01*
X477494Y304650D01*
X477826Y303848D01*
X478355Y303158D01*
X479044Y302629D01*
X479847Y302297D01*
X480709Y302183D01*
X481570Y302297D01*
X482373Y302629D01*
X483062Y303158D01*
X483591Y303848D01*
X483924Y304650D01*
X484037Y305512D01*
X483924Y306373D01*
X483591Y307176D01*
X483062Y307865D01*
X482373Y308394D01*
X481570Y308727D01*
X480709Y308840D01*
D02*
G37*
G36*
X499500Y309481D02*
X498956Y309409D01*
X497983Y309006D01*
X497147Y308365D01*
X496506Y307529D01*
X496103Y306556D01*
X496031Y306012D01*
X499500D01*
Y309481D01*
D02*
G37*
G36*
X503969Y305012D02*
X500500D01*
Y301543D01*
X501044Y301615D01*
X502017Y302018D01*
X502853Y302659D01*
X503494Y303495D01*
X503897Y304468D01*
X503969Y305012D01*
D02*
G37*
G36*
X499500D02*
X496031D01*
X496103Y304468D01*
X496506Y303495D01*
X497147Y302659D01*
X497983Y302018D01*
X498956Y301615D01*
X499500Y301543D01*
Y305012D01*
D02*
G37*
G36*
X500500Y309481D02*
Y306012D01*
X503969D01*
X503897Y306556D01*
X503494Y307529D01*
X502853Y308365D01*
X502017Y309006D01*
X501044Y309409D01*
X500500Y309481D01*
D02*
G37*
G36*
X427847Y342413D02*
X424378D01*
X424449Y341869D01*
X424853Y340896D01*
X425494Y340060D01*
X426329Y339419D01*
X427302Y339016D01*
X427847Y338945D01*
Y342413D01*
D02*
G37*
G36*
X406725Y342413D02*
X403256D01*
Y338945D01*
X403800Y339016D01*
X404773Y339419D01*
X405609Y340060D01*
X406250Y340896D01*
X406653Y341869D01*
X406725Y342413D01*
D02*
G37*
G36*
X402756Y328525D02*
X401895Y328412D01*
X401092Y328080D01*
X400402Y327551D01*
X399873Y326861D01*
X399541Y326058D01*
X399428Y325197D01*
X399541Y324336D01*
X399873Y323533D01*
X400402Y322843D01*
X401092Y322314D01*
X401895Y321982D01*
X402756Y321868D01*
X403617Y321982D01*
X404420Y322314D01*
X405110Y322843D01*
X405639Y323533D01*
X405971Y324336D01*
X406084Y325197D01*
X405971Y326058D01*
X405639Y326861D01*
X405110Y327551D01*
X404420Y328080D01*
X403617Y328412D01*
X402756Y328525D01*
D02*
G37*
G36*
X428346D02*
X427485Y328412D01*
X426682Y328080D01*
X425993Y327551D01*
X425464Y326861D01*
X425132Y326058D01*
X425018Y325197D01*
X425132Y324336D01*
X425464Y323533D01*
X425993Y322843D01*
X426682Y322314D01*
X427485Y321982D01*
X428346Y321868D01*
X429208Y321982D01*
X430011Y322314D01*
X430700Y322843D01*
X431229Y323533D01*
X431562Y324336D01*
X431675Y325197D01*
X431562Y326058D01*
X431229Y326861D01*
X430700Y327551D01*
X430011Y328080D01*
X429208Y328412D01*
X428346Y328525D01*
D02*
G37*
G36*
X313236Y255673D02*
X310736D01*
Y252153D01*
X314256D01*
Y254654D01*
X314178Y255044D01*
X313957Y255375D01*
X313626Y255595D01*
X313236Y255673D01*
D02*
G37*
G36*
X529028Y133890D02*
X528483Y133818D01*
X527510Y133415D01*
X526675Y132774D01*
X526034Y131939D01*
X525631Y130965D01*
X525559Y130421D01*
X529028D01*
Y133890D01*
D02*
G37*
G36*
X530028D02*
Y130421D01*
X533496D01*
X533425Y130965D01*
X533022Y131939D01*
X532380Y132774D01*
X531545Y133415D01*
X530572Y133818D01*
X530028Y133890D01*
D02*
G37*
G36*
X481783D02*
X481239Y133818D01*
X480266Y133415D01*
X479431Y132774D01*
X478789Y131939D01*
X478386Y130965D01*
X478315Y130421D01*
X481783D01*
Y133890D01*
D02*
G37*
G36*
X482783D02*
Y130421D01*
X486252D01*
X486180Y130965D01*
X485777Y131939D01*
X485136Y132774D01*
X484301Y133415D01*
X483328Y133818D01*
X482783Y133890D01*
D02*
G37*
G36*
X263779Y252291D02*
X263085Y252200D01*
X262437Y251932D01*
X261881Y251505D01*
X261454Y250949D01*
X261186Y250301D01*
X261094Y249606D01*
X261186Y248911D01*
X261454Y248264D01*
X261881Y247708D01*
X262437Y247281D01*
X262964Y247063D01*
Y174354D01*
X254386Y165776D01*
X240551D01*
X240551Y165776D01*
X240239Y165714D01*
X239974Y165537D01*
X233675Y159238D01*
X233498Y158974D01*
X233436Y158661D01*
X233436Y158661D01*
Y97102D01*
X233184Y96934D01*
X232857Y96444D01*
X232742Y95866D01*
X232857Y95288D01*
X233184Y94798D01*
X233674Y94471D01*
X234252Y94356D01*
X234830Y94471D01*
X235320Y94798D01*
X235647Y95288D01*
X235762Y95866D01*
X235647Y96444D01*
X235320Y96934D01*
X235068Y97102D01*
Y158324D01*
X240889Y164145D01*
X254724D01*
X254724Y164145D01*
X254725Y164145D01*
X275646D01*
X281468Y158324D01*
Y97201D01*
X281216Y97032D01*
X280888Y96543D01*
X280773Y95965D01*
X280888Y95387D01*
X281216Y94897D01*
X281705Y94569D01*
X282283Y94454D01*
X282861Y94569D01*
X283351Y94897D01*
X283679Y95387D01*
X283793Y95965D01*
X283679Y96543D01*
X283351Y97032D01*
X283099Y97201D01*
Y158661D01*
X283037Y158974D01*
X282860Y159238D01*
X282860Y159238D01*
X278415Y163683D01*
X278607Y164145D01*
X279527D01*
X279528Y164145D01*
X279528Y164145D01*
X298875D01*
X306271Y156749D01*
Y148776D01*
X306019Y148607D01*
X305691Y148117D01*
X305576Y147539D01*
X305691Y146961D01*
X306019Y146472D01*
X306509Y146144D01*
X307087Y146029D01*
X307664Y146144D01*
X308154Y146472D01*
X308482Y146961D01*
X308597Y147539D01*
X308482Y148117D01*
X308154Y148607D01*
X307902Y148776D01*
Y157087D01*
X307902Y157087D01*
X307840Y157399D01*
X307663Y157663D01*
X307663Y157663D01*
X301644Y163683D01*
X301835Y164145D01*
X323284D01*
X329893Y157536D01*
Y97201D01*
X329641Y97032D01*
X329313Y96543D01*
X329199Y95965D01*
X329313Y95387D01*
X329641Y94897D01*
X330131Y94569D01*
X330709Y94454D01*
X331287Y94569D01*
X331776Y94897D01*
X332104Y95387D01*
X332219Y95965D01*
X332104Y96543D01*
X331776Y97032D01*
X331524Y97201D01*
Y157874D01*
X331462Y158186D01*
X331285Y158451D01*
X331285Y158451D01*
X326053Y163683D01*
X326244Y164145D01*
X349662D01*
X355484Y158324D01*
Y148776D01*
X355231Y148607D01*
X354904Y148117D01*
X354789Y147539D01*
X354904Y146961D01*
X355231Y146472D01*
X355721Y146144D01*
X356299Y146029D01*
X356877Y146144D01*
X357367Y146472D01*
X357694Y146961D01*
X357809Y147539D01*
X357694Y148117D01*
X357367Y148607D01*
X357115Y148776D01*
Y158661D01*
X357053Y158974D01*
X356876Y159238D01*
X356876Y159238D01*
X352431Y163683D01*
X352623Y164145D01*
X371316D01*
X377531Y157930D01*
Y97201D01*
X377279Y97032D01*
X376951Y96543D01*
X376836Y95965D01*
X376951Y95387D01*
X377279Y94897D01*
X377768Y94569D01*
X378346Y94454D01*
X378924Y94569D01*
X379414Y94897D01*
X379742Y95387D01*
X379856Y95965D01*
X379742Y96543D01*
X379414Y97032D01*
X379162Y97201D01*
Y158268D01*
X379100Y158580D01*
X378923Y158844D01*
X378923Y158844D01*
X374085Y163683D01*
X374276Y164145D01*
X381102D01*
X381102Y164145D01*
X381102Y164145D01*
X419741D01*
X425562Y158324D01*
Y97201D01*
X425310Y97032D01*
X424983Y96543D01*
X424868Y95965D01*
X424983Y95387D01*
X425310Y94897D01*
X425800Y94569D01*
X426378Y94454D01*
X426956Y94569D01*
X427446Y94897D01*
X427773Y95387D01*
X427888Y95965D01*
X427773Y96543D01*
X427446Y97032D01*
X427194Y97201D01*
Y158661D01*
X427132Y158974D01*
X426955Y159238D01*
X426955Y159238D01*
X422510Y163683D01*
X422701Y164145D01*
X444938D01*
X451546Y157536D01*
Y148776D01*
X451294Y148607D01*
X450967Y148117D01*
X450852Y147539D01*
X450967Y146961D01*
X451294Y146472D01*
X451784Y146144D01*
X452362Y146029D01*
X452940Y146144D01*
X453430Y146472D01*
X453757Y146961D01*
X453872Y147539D01*
X453757Y148117D01*
X453430Y148607D01*
X453178Y148776D01*
Y157874D01*
X453116Y158186D01*
X452939Y158451D01*
X452939Y158451D01*
X447707Y163683D01*
X447898Y164145D01*
X467379D01*
X473987Y157536D01*
Y96413D01*
X473735Y96245D01*
X473408Y95755D01*
X473293Y95177D01*
X473408Y94599D01*
X473735Y94109D01*
X474225Y93782D01*
X474803Y93667D01*
X475381Y93782D01*
X475871Y94109D01*
X476198Y94599D01*
X476313Y95177D01*
X476198Y95755D01*
X475871Y96245D01*
X475619Y96413D01*
Y157874D01*
X475557Y158186D01*
X475380Y158451D01*
X475380Y158451D01*
X470148Y163683D01*
X470339Y164145D01*
X483464D01*
X483465Y164145D01*
X483465Y164145D01*
X492969D01*
X499184Y157930D01*
Y148776D01*
X498932Y148607D01*
X498605Y148117D01*
X498490Y147539D01*
X498605Y146961D01*
X498932Y146472D01*
X499422Y146144D01*
X500000Y146029D01*
X500578Y146144D01*
X501068Y146472D01*
X501395Y146961D01*
X501510Y147539D01*
X501395Y148117D01*
X501068Y148607D01*
X500816Y148776D01*
Y158268D01*
X500816Y158268D01*
X500753Y158580D01*
X500577Y158844D01*
X500577Y158845D01*
X495738Y163683D01*
X495930Y164145D01*
X516198D01*
X522019Y158324D01*
Y96413D01*
X521767Y96245D01*
X521439Y95755D01*
X521324Y95177D01*
X521439Y94599D01*
X521767Y94109D01*
X522257Y93782D01*
X522835Y93667D01*
X523413Y93782D01*
X523902Y94109D01*
X524230Y94599D01*
X524345Y95177D01*
X524230Y95755D01*
X523902Y96245D01*
X523650Y96413D01*
Y158661D01*
X523650Y158661D01*
X523588Y158974D01*
X523411Y159238D01*
X523411Y159238D01*
X518967Y163683D01*
X519158Y164145D01*
X540607D01*
X546428Y158324D01*
Y148776D01*
X546176Y148607D01*
X545849Y148117D01*
X545734Y147539D01*
X545849Y146961D01*
X546176Y146472D01*
X546666Y146144D01*
X547244Y146029D01*
X547822Y146144D01*
X548312Y146472D01*
X548639Y146961D01*
X548754Y147539D01*
X548639Y148117D01*
X548312Y148607D01*
X548060Y148776D01*
Y158661D01*
X547998Y158974D01*
X547821Y159238D01*
X547821Y159238D01*
X543376Y163683D01*
X543567Y164145D01*
X564623D01*
X570444Y158324D01*
Y97201D01*
X570192Y97032D01*
X569865Y96543D01*
X569750Y95965D01*
X569865Y95387D01*
X570192Y94897D01*
X570682Y94569D01*
X571260Y94454D01*
X571838Y94569D01*
X572328Y94897D01*
X572655Y95387D01*
X572770Y95965D01*
X572655Y96543D01*
X572328Y97032D01*
X572076Y97201D01*
Y158661D01*
X572013Y158974D01*
X571837Y159238D01*
X571837Y159238D01*
X565537Y165537D01*
X565273Y165714D01*
X564961Y165776D01*
X564961Y165776D01*
X540945D01*
X540945Y165776D01*
X540945Y165776D01*
X516536D01*
X516535Y165776D01*
X516535Y165776D01*
X493307D01*
X493307Y165776D01*
X493307Y165776D01*
X486087D01*
X485896Y166238D01*
X489356Y169699D01*
X489356Y169699D01*
X489533Y169964D01*
X489595Y170276D01*
X489595Y170276D01*
Y183787D01*
X489641Y183793D01*
X490444Y184125D01*
X491133Y184654D01*
X491662Y185344D01*
X491995Y186146D01*
X492108Y187008D01*
X491995Y187869D01*
X491662Y188672D01*
X491133Y189362D01*
X490444Y189891D01*
X489641Y190223D01*
X488780Y190336D01*
X487918Y190223D01*
X487115Y189891D01*
X486426Y189362D01*
X485897Y188672D01*
X485565Y187869D01*
X485451Y187008D01*
X485565Y186146D01*
X485897Y185344D01*
X486426Y184654D01*
X487115Y184125D01*
X487918Y183793D01*
X487964Y183787D01*
Y170614D01*
X483127Y165776D01*
X467717D01*
X467717Y165776D01*
X467717Y165776D01*
X445276D01*
X445276Y165776D01*
X445275Y165776D01*
X420079D01*
X420079Y165776D01*
X420079Y165776D01*
X383725D01*
X383534Y166238D01*
X387289Y169994D01*
X387289Y169994D01*
X387466Y170259D01*
X387528Y170571D01*
X387528Y170571D01*
Y183787D01*
X387574Y183793D01*
X388377Y184125D01*
X389066Y184654D01*
X389595Y185344D01*
X389928Y186146D01*
X390041Y187008D01*
X389928Y187869D01*
X389595Y188672D01*
X389066Y189362D01*
X388377Y189891D01*
X387574Y190223D01*
X386713Y190336D01*
X385851Y190223D01*
X385048Y189891D01*
X384359Y189362D01*
X383830Y188672D01*
X383498Y187869D01*
X383384Y187008D01*
X383498Y186146D01*
X383830Y185344D01*
X384359Y184654D01*
X385048Y184125D01*
X385851Y183793D01*
X385897Y183787D01*
Y170909D01*
X380765Y165776D01*
X371654D01*
X371654Y165776D01*
X371654Y165776D01*
X350000D01*
X350000Y165776D01*
X350000Y165776D01*
X323622D01*
X323622Y165776D01*
X323622Y165776D01*
X299213D01*
X299213Y165776D01*
X299213Y165776D01*
X282150D01*
X281959Y166238D01*
X285223Y169502D01*
X285399Y169767D01*
X285461Y170079D01*
X285461Y170079D01*
Y183787D01*
X285507Y183793D01*
X286310Y184125D01*
X286999Y184654D01*
X287528Y185344D01*
X287861Y186146D01*
X287974Y187008D01*
X287861Y187869D01*
X287528Y188672D01*
X286999Y189362D01*
X286310Y189891D01*
X285507Y190223D01*
X284646Y190336D01*
X283784Y190223D01*
X282981Y189891D01*
X282292Y189362D01*
X281763Y188672D01*
X281431Y187869D01*
X281317Y187008D01*
X281431Y186146D01*
X281763Y185344D01*
X282292Y184654D01*
X282981Y184125D01*
X283784Y183793D01*
X283830Y183787D01*
Y170417D01*
X279190Y165776D01*
X275984D01*
X275984Y165776D01*
X275984Y165776D01*
X257347D01*
X257156Y166238D01*
X264356Y173439D01*
X264356Y173439D01*
X264533Y173704D01*
X264595Y174016D01*
Y247063D01*
X265122Y247281D01*
X265678Y247708D01*
X266105Y248264D01*
X266373Y248911D01*
X266465Y249606D01*
X266373Y250301D01*
X266105Y250949D01*
X265678Y251505D01*
X265122Y251932D01*
X264475Y252200D01*
X263779Y252291D01*
D02*
G37*
G36*
X405898Y186508D02*
X402429D01*
X402501Y185964D01*
X402904Y184991D01*
X403545Y184155D01*
X404380Y183514D01*
X405353Y183111D01*
X405898Y183039D01*
Y186508D01*
D02*
G37*
G36*
X410366D02*
X406898D01*
Y183039D01*
X407442Y183111D01*
X408415Y183514D01*
X409250Y184155D01*
X409892Y184991D01*
X410295Y185964D01*
X410366Y186508D01*
D02*
G37*
G36*
X303831D02*
X300362D01*
X300434Y185964D01*
X300837Y184991D01*
X301478Y184155D01*
X302313Y183514D01*
X303287Y183111D01*
X303831Y183039D01*
Y186508D01*
D02*
G37*
G36*
X308299D02*
X304831D01*
Y183039D01*
X305375Y183111D01*
X306348Y183514D01*
X307184Y184155D01*
X307825Y184991D01*
X308228Y185964D01*
X308299Y186508D01*
D02*
G37*
G36*
X435539Y133890D02*
Y130421D01*
X439008D01*
X438936Y130965D01*
X438533Y131939D01*
X437892Y132774D01*
X437057Y133415D01*
X436084Y133818D01*
X435539Y133890D01*
D02*
G37*
G36*
X500000Y133250D02*
X499138Y133136D01*
X498336Y132804D01*
X497646Y132275D01*
X497118Y131585D01*
X496785Y130783D01*
X496671Y129921D01*
X496785Y129060D01*
X497118Y128257D01*
X497646Y127568D01*
X498336Y127039D01*
X499138Y126706D01*
X500000Y126593D01*
X500862Y126706D01*
X501664Y127039D01*
X502354Y127568D01*
X502882Y128257D01*
X503215Y129060D01*
X503329Y129921D01*
X503215Y130783D01*
X502882Y131585D01*
X502354Y132275D01*
X501664Y132804D01*
X500862Y133136D01*
X500000Y133250D01*
D02*
G37*
G36*
X547244D02*
X546383Y133136D01*
X545580Y132804D01*
X544890Y132275D01*
X544361Y131585D01*
X544029Y130783D01*
X543916Y129921D01*
X544029Y129060D01*
X544361Y128257D01*
X544890Y127568D01*
X545580Y127039D01*
X546383Y126706D01*
X547244Y126593D01*
X548105Y126706D01*
X548908Y127039D01*
X549598Y127568D01*
X550127Y128257D01*
X550459Y129060D01*
X550572Y129921D01*
X550459Y130783D01*
X550127Y131585D01*
X549598Y132275D01*
X548908Y132804D01*
X548105Y133136D01*
X547244Y133250D01*
D02*
G37*
G36*
X356299D02*
X355438Y133136D01*
X354635Y132804D01*
X353946Y132275D01*
X353417Y131585D01*
X353084Y130783D01*
X352971Y129921D01*
X353084Y129060D01*
X353417Y128257D01*
X353946Y127568D01*
X354635Y127039D01*
X355438Y126706D01*
X356299Y126593D01*
X357161Y126706D01*
X357963Y127039D01*
X358653Y127568D01*
X359182Y128257D01*
X359514Y129060D01*
X359628Y129921D01*
X359514Y130783D01*
X359182Y131585D01*
X358653Y132275D01*
X357963Y132804D01*
X357161Y133136D01*
X356299Y133250D01*
D02*
G37*
G36*
X452756D02*
X451895Y133136D01*
X451092Y132804D01*
X450402Y132275D01*
X449873Y131585D01*
X449541Y130783D01*
X449428Y129921D01*
X449541Y129060D01*
X449873Y128257D01*
X450402Y127568D01*
X451092Y127039D01*
X451895Y126706D01*
X452756Y126593D01*
X453617Y126706D01*
X454420Y127039D01*
X455110Y127568D01*
X455639Y128257D01*
X455971Y129060D01*
X456084Y129921D01*
X455971Y130783D01*
X455639Y131585D01*
X455110Y132275D01*
X454420Y132804D01*
X453617Y133136D01*
X452756Y133250D01*
D02*
G37*
G36*
X288870Y133890D02*
X288326Y133818D01*
X287353Y133415D01*
X286517Y132774D01*
X285876Y131939D01*
X285473Y130965D01*
X285401Y130421D01*
X288870D01*
Y133890D01*
D02*
G37*
G36*
X339083D02*
Y130421D01*
X342551D01*
X342480Y130965D01*
X342077Y131939D01*
X341435Y132774D01*
X340600Y133415D01*
X339627Y133818D01*
X339083Y133890D01*
D02*
G37*
G36*
X434539D02*
X433995Y133818D01*
X433022Y133415D01*
X432187Y132774D01*
X431545Y131939D01*
X431142Y130965D01*
X431071Y130421D01*
X434539D01*
Y133890D01*
D02*
G37*
G36*
X289870D02*
Y130421D01*
X293339D01*
X293267Y130965D01*
X292864Y131939D01*
X292223Y132774D01*
X291387Y133415D01*
X290414Y133818D01*
X289870Y133890D01*
D02*
G37*
G36*
X338083D02*
X337538Y133818D01*
X336565Y133415D01*
X335730Y132774D01*
X335089Y131939D01*
X334686Y130965D01*
X334614Y130421D01*
X338083D01*
Y133890D01*
D02*
G37*
G36*
X379232Y220230D02*
X377766Y220037D01*
X376401Y219472D01*
X375228Y218571D01*
X374328Y217399D01*
X373762Y216033D01*
X373569Y214567D01*
X373762Y213101D01*
X374328Y211735D01*
X375228Y210562D01*
X376401Y209662D01*
X377766Y209097D01*
X379232Y208904D01*
X380698Y209097D01*
X382064Y209662D01*
X383237Y210562D01*
X384137Y211735D01*
X384703Y213101D01*
X384896Y214567D01*
X384703Y216033D01*
X384137Y217399D01*
X383237Y218571D01*
X382064Y219472D01*
X380698Y220037D01*
X379232Y220230D01*
D02*
G37*
G36*
X413878D02*
X412412Y220037D01*
X411046Y219472D01*
X409873Y218571D01*
X408973Y217399D01*
X408408Y216033D01*
X408215Y214567D01*
X408408Y213101D01*
X408973Y211735D01*
X409873Y210562D01*
X411046Y209662D01*
X412412Y209097D01*
X413878Y208904D01*
X415344Y209097D01*
X416710Y209662D01*
X417883Y210562D01*
X418783Y211735D01*
X419348Y213101D01*
X419542Y214567D01*
X419348Y216033D01*
X418783Y217399D01*
X417883Y218571D01*
X416710Y219472D01*
X415344Y220037D01*
X413878Y220230D01*
D02*
G37*
G36*
X277165D02*
X275699Y220037D01*
X274334Y219472D01*
X273161Y218571D01*
X272261Y217399D01*
X271695Y216033D01*
X271502Y214567D01*
X271695Y213101D01*
X272261Y211735D01*
X273161Y210562D01*
X274334Y209662D01*
X275699Y209097D01*
X277165Y208904D01*
X278631Y209097D01*
X279997Y209662D01*
X281170Y210562D01*
X282070Y211735D01*
X282636Y213101D01*
X282829Y214567D01*
X282636Y216033D01*
X282070Y217399D01*
X281170Y218571D01*
X279997Y219472D01*
X278631Y220037D01*
X277165Y220230D01*
D02*
G37*
G36*
X311811D02*
X310345Y220037D01*
X308979Y219472D01*
X307806Y218571D01*
X306906Y217399D01*
X306341Y216033D01*
X306148Y214567D01*
X306341Y213101D01*
X306906Y211735D01*
X307806Y210562D01*
X308979Y209662D01*
X310345Y209097D01*
X311811Y208904D01*
X313277Y209097D01*
X314643Y209662D01*
X315816Y210562D01*
X316716Y211735D01*
X317281Y213101D01*
X317474Y214567D01*
X317281Y216033D01*
X316716Y217399D01*
X315816Y218571D01*
X314643Y219472D01*
X313277Y220037D01*
X311811Y220230D01*
D02*
G37*
G36*
X481299D02*
X479833Y220037D01*
X478468Y219472D01*
X477295Y218571D01*
X476395Y217399D01*
X475829Y216033D01*
X475636Y214567D01*
X475829Y213101D01*
X476395Y211735D01*
X477295Y210562D01*
X478468Y209662D01*
X479833Y209097D01*
X481299Y208904D01*
X482765Y209097D01*
X484131Y209662D01*
X485304Y210562D01*
X486204Y211735D01*
X486770Y213101D01*
X486963Y214567D01*
X486770Y216033D01*
X486204Y217399D01*
X485304Y218571D01*
X484131Y219472D01*
X482765Y220037D01*
X481299Y220230D01*
D02*
G37*
G36*
X314256Y251153D02*
X310736D01*
Y247634D01*
X313236D01*
X313626Y247712D01*
X313957Y247933D01*
X314178Y248263D01*
X314256Y248654D01*
Y251153D01*
D02*
G37*
G36*
X309736Y255673D02*
X307236D01*
X306846Y255595D01*
X306515Y255375D01*
X306294Y255044D01*
X306217Y254654D01*
Y252153D01*
X309736D01*
Y255673D01*
D02*
G37*
G36*
X515945Y220230D02*
X514479Y220037D01*
X513113Y219472D01*
X511940Y218571D01*
X511040Y217399D01*
X510475Y216033D01*
X510282Y214567D01*
X510475Y213101D01*
X511040Y211735D01*
X511940Y210562D01*
X513113Y209662D01*
X514479Y209097D01*
X515945Y208904D01*
X517411Y209097D01*
X518777Y209662D01*
X519950Y210562D01*
X520850Y211735D01*
X521415Y213101D01*
X521608Y214567D01*
X521415Y216033D01*
X520850Y217399D01*
X519950Y218571D01*
X518777Y219472D01*
X517411Y220037D01*
X515945Y220230D01*
D02*
G37*
G36*
X309736Y251153D02*
X306217D01*
Y248654D01*
X306294Y248263D01*
X306515Y247933D01*
X306846Y247712D01*
X307236Y247634D01*
X309736D01*
Y251153D01*
D02*
G37*
G36*
X508965Y190977D02*
Y187508D01*
X512433D01*
X512362Y188052D01*
X511959Y189025D01*
X511317Y189861D01*
X510482Y190502D01*
X509509Y190905D01*
X508965Y190977D01*
D02*
G37*
G36*
X417717Y275132D02*
X417139Y275017D01*
X416649Y274690D01*
X416321Y274200D01*
X416206Y273622D01*
X416321Y273044D01*
X416344Y273010D01*
X395978Y252644D01*
X395801Y252379D01*
X395739Y252067D01*
X395739Y252067D01*
Y190229D01*
X395694Y190223D01*
X394891Y189891D01*
X394201Y189362D01*
X393672Y188672D01*
X393340Y187869D01*
X393227Y187008D01*
X393340Y186146D01*
X393672Y185344D01*
X394201Y184654D01*
X394891Y184125D01*
X395694Y183793D01*
X396555Y183679D01*
X397416Y183793D01*
X398219Y184125D01*
X398909Y184654D01*
X399438Y185344D01*
X399770Y186146D01*
X399884Y187008D01*
X399770Y187869D01*
X399438Y188672D01*
X398909Y189362D01*
X398219Y189891D01*
X397416Y190223D01*
X397371Y190229D01*
Y251729D01*
X417703Y272061D01*
X417740Y272117D01*
X418294Y272227D01*
X418784Y272554D01*
X419112Y273044D01*
X419227Y273622D01*
X419112Y274200D01*
X418784Y274690D01*
X418294Y275017D01*
X417717Y275132D01*
D02*
G37*
G36*
X421260D02*
X420682Y275017D01*
X420192Y274690D01*
X419865Y274200D01*
X419750Y273622D01*
X419865Y273044D01*
X420192Y272554D01*
X420682Y272227D01*
X421260Y272112D01*
X421557Y272171D01*
X458633Y235095D01*
Y226181D01*
X458633Y226181D01*
X458695Y225869D01*
X458872Y225604D01*
X495768Y188709D01*
X495740Y188672D01*
X495407Y187869D01*
X495294Y187008D01*
X495407Y186146D01*
X495740Y185344D01*
X496268Y184654D01*
X496958Y184125D01*
X497760Y183793D01*
X498622Y183679D01*
X499483Y183793D01*
X500286Y184125D01*
X500976Y184654D01*
X501505Y185344D01*
X501837Y186146D01*
X501951Y187008D01*
X501837Y187869D01*
X501505Y188672D01*
X500976Y189362D01*
X500286Y189891D01*
X499483Y190223D01*
X498622Y190336D01*
X497760Y190223D01*
X496958Y189891D01*
X496921Y189862D01*
X460264Y226519D01*
Y235433D01*
X460202Y235745D01*
X460026Y236010D01*
X460026Y236010D01*
X422711Y273325D01*
X422770Y273622D01*
X422655Y274200D01*
X422328Y274690D01*
X421838Y275017D01*
X421260Y275132D01*
D02*
G37*
G36*
X507965Y186508D02*
X504496D01*
X504568Y185964D01*
X504971Y184991D01*
X505612Y184155D01*
X506447Y183514D01*
X507420Y183111D01*
X507965Y183039D01*
Y186508D01*
D02*
G37*
G36*
X512433D02*
X508965D01*
Y183039D01*
X509509Y183111D01*
X510482Y183514D01*
X511317Y184155D01*
X511959Y184991D01*
X512362Y185964D01*
X512433Y186508D01*
D02*
G37*
G36*
X303831Y190977D02*
X303287Y190905D01*
X302313Y190502D01*
X301478Y189861D01*
X300837Y189025D01*
X300434Y188052D01*
X300362Y187508D01*
X303831D01*
Y190977D01*
D02*
G37*
G36*
X406898D02*
Y187508D01*
X410366D01*
X410295Y188052D01*
X409892Y189025D01*
X409250Y189861D01*
X408415Y190502D01*
X407442Y190905D01*
X406898Y190977D01*
D02*
G37*
G36*
X507965D02*
X507420Y190905D01*
X506447Y190502D01*
X505612Y189861D01*
X504971Y189025D01*
X504568Y188052D01*
X504496Y187508D01*
X507965D01*
Y190977D01*
D02*
G37*
G36*
X304831D02*
Y187508D01*
X308299D01*
X308228Y188052D01*
X307825Y189025D01*
X307184Y189861D01*
X306348Y190502D01*
X305375Y190905D01*
X304831Y190977D01*
D02*
G37*
G36*
X405898D02*
X405353Y190905D01*
X404380Y190502D01*
X403545Y189861D01*
X402904Y189025D01*
X402501Y188052D01*
X402429Y187508D01*
X405898D01*
Y190977D01*
D02*
G37*
%LPD*%
D10*
X282283Y95965D02*
Y158661D01*
X275984Y164961D02*
X282283Y158661D01*
X234252Y95866D02*
Y158661D01*
X356299Y147539D02*
Y158661D01*
X350000Y164961D02*
X356299Y158661D01*
X330709Y95965D02*
Y157874D01*
X323622Y164961D02*
X330709Y157874D01*
X323622Y164961D02*
X350000D01*
X307087Y147539D02*
Y157087D01*
X299213Y164961D02*
X307087Y157087D01*
X299213Y164961D02*
X323622D01*
X378346Y95965D02*
Y158268D01*
X371654Y164961D02*
X378346Y158268D01*
X350000Y164961D02*
X371654D01*
X426378Y95965D02*
Y158661D01*
X420079Y164961D02*
X426378Y158661D01*
X452362Y147539D02*
Y157874D01*
X445276Y164961D02*
X452362Y157874D01*
X420079Y164961D02*
X445276D01*
X474803Y95177D02*
Y157874D01*
X467717Y164961D02*
X474803Y157874D01*
X445276Y164961D02*
X467717D01*
X500000Y147539D02*
Y158268D01*
X493307Y164961D02*
X500000Y158268D01*
X547244Y147539D02*
Y158661D01*
X540945Y164961D02*
X547244Y158661D01*
X522835Y95177D02*
Y158661D01*
X516535Y164961D02*
X522835Y158661D01*
X493307Y164961D02*
X516535D01*
X540945D01*
X571260Y95965D02*
Y158661D01*
X564961Y164961D02*
X571260Y158661D01*
X540945Y164961D02*
X564961D01*
X284646Y170079D02*
Y187008D01*
X279528Y164961D02*
X284646Y170079D01*
X275984Y164961D02*
X279528D01*
X299213D01*
X386713Y170571D02*
Y187008D01*
X381102Y164961D02*
X386713Y170571D01*
X371654Y164961D02*
X381102D01*
X420079D01*
X488780Y170276D02*
Y187008D01*
X483465Y164961D02*
X488780Y170276D01*
X467717Y164961D02*
X483465D01*
X493307D01*
X350000Y286221D02*
X357874D01*
X345433Y281653D02*
X350000Y286221D01*
X310236Y281653D02*
X345433D01*
X294488Y187008D02*
X344094Y236614D01*
X376772D01*
X413386Y273228D01*
X396555Y187008D02*
Y252067D01*
X417126Y272638D01*
X459449Y226181D02*
X498622Y187008D01*
X459449Y226181D02*
Y235433D01*
X421260Y273622D02*
X459449Y235433D01*
X263779Y249606D02*
X264567Y248819D01*
X263779Y174016D02*
Y249606D01*
X254724Y164961D02*
X263779Y174016D01*
X254724Y164961D02*
X275984D01*
X240551D02*
X254724D01*
X234252Y158661D02*
X240551Y164961D01*
X509055Y275847D02*
Y325590D01*
X216929Y357480D02*
X477165D01*
X509055Y325590D01*
D11*
X428346Y325197D02*
D03*
X402756D02*
D03*
X428346Y342913D02*
D03*
X402756D02*
D03*
X570866Y53150D02*
D03*
Y78740D02*
D03*
X553150Y53150D02*
D03*
Y78740D02*
D03*
X547244Y104331D02*
D03*
Y129921D02*
D03*
X529528Y104331D02*
D03*
Y129921D02*
D03*
X522778Y53150D02*
D03*
Y78740D02*
D03*
X505062Y53150D02*
D03*
Y78740D02*
D03*
X500000Y104331D02*
D03*
Y129921D02*
D03*
X482283Y104331D02*
D03*
Y129921D02*
D03*
X474691Y53150D02*
D03*
Y78740D02*
D03*
X456974Y53150D02*
D03*
Y78740D02*
D03*
X452756Y104331D02*
D03*
Y129921D02*
D03*
X435039Y104331D02*
D03*
Y129921D02*
D03*
X426603Y53150D02*
D03*
Y78740D02*
D03*
X408886Y53150D02*
D03*
Y78740D02*
D03*
X378515Y53150D02*
D03*
Y78740D02*
D03*
X360799Y53150D02*
D03*
Y78740D02*
D03*
X356299Y104331D02*
D03*
Y129921D02*
D03*
X338583Y104331D02*
D03*
Y129921D02*
D03*
X330427Y53150D02*
D03*
Y78740D02*
D03*
X312711Y53150D02*
D03*
Y78740D02*
D03*
X307087Y104331D02*
D03*
Y129921D02*
D03*
X289370Y104331D02*
D03*
Y129921D02*
D03*
X282340Y53150D02*
D03*
Y78740D02*
D03*
X264623Y53150D02*
D03*
Y78740D02*
D03*
X234252Y53150D02*
D03*
Y78740D02*
D03*
X216535Y53150D02*
D03*
Y78740D02*
D03*
X231102Y351181D02*
D03*
X216929Y357480D02*
D03*
X488780Y187008D02*
D03*
X498622D02*
D03*
X508465D02*
D03*
X386713D02*
D03*
X396555D02*
D03*
X406398D02*
D03*
X284646D02*
D03*
X294488D02*
D03*
X304331D02*
D03*
X540551Y269685D02*
D03*
X550394D02*
D03*
X560236D02*
D03*
X438484D02*
D03*
X448327D02*
D03*
X458169D02*
D03*
X310236Y271654D02*
D03*
Y261653D02*
D03*
Y281653D02*
D03*
X480709Y305512D02*
D03*
X500000D02*
D03*
D12*
X481299Y214567D02*
D03*
X515945D02*
D03*
X379232D02*
D03*
X413878D02*
D03*
X277165D02*
D03*
X311811D02*
D03*
X533071Y297244D02*
D03*
X567717D02*
D03*
X431004D02*
D03*
X465650D02*
D03*
D13*
X263779Y249606D02*
D03*
Y277165D02*
D03*
D14*
X310236Y251654D02*
D03*
D15*
X234252Y95866D02*
D03*
X282283Y95965D02*
D03*
X330709D02*
D03*
X378346D02*
D03*
X426378D02*
D03*
X474803Y95177D02*
D03*
X522835D02*
D03*
X571260Y95965D02*
D03*
X547244Y147539D02*
D03*
X500000D02*
D03*
X452362D02*
D03*
X356299D02*
D03*
X307087D02*
D03*
X357874Y286221D02*
D03*
X413779Y273622D02*
D03*
X417717D02*
D03*
X421260D02*
D03*
X509055Y275847D02*
D03*
X200000Y60000D02*
D03*
X210000Y80000D02*
D03*
X200000Y100000D02*
D03*
X210000Y120000D02*
D03*
X200000Y140000D02*
D03*
X210000Y160000D02*
D03*
X200000Y180000D02*
D03*
X210000Y200000D02*
D03*
X200000Y220000D02*
D03*
X210000Y240000D02*
D03*
X200000Y260000D02*
D03*
X210000Y280000D02*
D03*
X200000Y300000D02*
D03*
Y340000D02*
D03*
X220000Y100000D02*
D03*
X230000Y120000D02*
D03*
X220000Y140000D02*
D03*
X230000Y160000D02*
D03*
X220000Y180000D02*
D03*
X230000Y200000D02*
D03*
X220000Y220000D02*
D03*
X230000Y240000D02*
D03*
Y280000D02*
D03*
X240000Y60000D02*
D03*
X250000Y80000D02*
D03*
X240000Y100000D02*
D03*
X250000Y120000D02*
D03*
X240000Y140000D02*
D03*
X250000Y160000D02*
D03*
X240000Y180000D02*
D03*
X250000Y200000D02*
D03*
X240000Y220000D02*
D03*
X250000Y240000D02*
D03*
X240000Y260000D02*
D03*
X250000Y280000D02*
D03*
X240000Y340000D02*
D03*
X260000Y60000D02*
D03*
X270000Y80000D02*
D03*
X260000Y100000D02*
D03*
X270000Y120000D02*
D03*
X260000Y140000D02*
D03*
X270000Y160000D02*
D03*
X260000Y180000D02*
D03*
X270000Y200000D02*
D03*
Y240000D02*
D03*
X260000Y260000D02*
D03*
X270000Y280000D02*
D03*
X260000Y300000D02*
D03*
X270000Y320000D02*
D03*
X260000Y340000D02*
D03*
X280000Y60000D02*
D03*
X290000Y80000D02*
D03*
X280000Y100000D02*
D03*
X290000Y120000D02*
D03*
X280000Y140000D02*
D03*
X290000Y160000D02*
D03*
X280000Y180000D02*
D03*
X290000Y200000D02*
D03*
Y240000D02*
D03*
X280000Y260000D02*
D03*
X290000Y280000D02*
D03*
X280000Y300000D02*
D03*
X290000Y320000D02*
D03*
X280000Y340000D02*
D03*
X300000Y60000D02*
D03*
Y100000D02*
D03*
X310000Y120000D02*
D03*
Y160000D02*
D03*
X300000Y180000D02*
D03*
X310000Y240000D02*
D03*
X300000Y260000D02*
D03*
Y300000D02*
D03*
X310000Y320000D02*
D03*
X300000Y340000D02*
D03*
X320000Y60000D02*
D03*
Y100000D02*
D03*
Y140000D02*
D03*
Y180000D02*
D03*
X330000Y200000D02*
D03*
X320000Y220000D02*
D03*
X330000Y240000D02*
D03*
X320000Y260000D02*
D03*
Y300000D02*
D03*
X330000Y320000D02*
D03*
X320000Y340000D02*
D03*
X340000Y60000D02*
D03*
X350000Y80000D02*
D03*
X340000Y100000D02*
D03*
Y140000D02*
D03*
Y180000D02*
D03*
X350000Y200000D02*
D03*
X340000Y220000D02*
D03*
X350000Y240000D02*
D03*
X360000Y60000D02*
D03*
X370000Y80000D02*
D03*
X360000Y100000D02*
D03*
X370000Y120000D02*
D03*
Y160000D02*
D03*
X360000Y180000D02*
D03*
X370000Y280000D02*
D03*
X360000Y300000D02*
D03*
X380000Y60000D02*
D03*
X390000Y80000D02*
D03*
Y120000D02*
D03*
Y160000D02*
D03*
X380000Y180000D02*
D03*
X390000Y240000D02*
D03*
X380000Y260000D02*
D03*
X390000Y320000D02*
D03*
X400000Y60000D02*
D03*
Y100000D02*
D03*
X410000Y120000D02*
D03*
X400000Y140000D02*
D03*
X410000Y160000D02*
D03*
X400000Y180000D02*
D03*
Y220000D02*
D03*
X410000Y240000D02*
D03*
X400000Y300000D02*
D03*
X410000Y320000D02*
D03*
X430000Y120000D02*
D03*
Y160000D02*
D03*
X420000Y220000D02*
D03*
X430000Y240000D02*
D03*
X420000Y260000D02*
D03*
Y300000D02*
D03*
X430000Y320000D02*
D03*
X420000Y340000D02*
D03*
X440000Y60000D02*
D03*
X450000Y80000D02*
D03*
X440000Y100000D02*
D03*
Y140000D02*
D03*
Y180000D02*
D03*
Y220000D02*
D03*
X450000Y240000D02*
D03*
X440000Y260000D02*
D03*
Y300000D02*
D03*
X450000Y320000D02*
D03*
X460000Y60000D02*
D03*
Y100000D02*
D03*
Y140000D02*
D03*
Y180000D02*
D03*
X470000Y200000D02*
D03*
Y240000D02*
D03*
Y280000D02*
D03*
Y320000D02*
D03*
X460000Y340000D02*
D03*
X480000Y60000D02*
D03*
X490000Y80000D02*
D03*
X480000Y100000D02*
D03*
Y140000D02*
D03*
X490000Y160000D02*
D03*
X480000Y180000D02*
D03*
X490000Y240000D02*
D03*
Y280000D02*
D03*
Y320000D02*
D03*
X480000Y340000D02*
D03*
X500000Y60000D02*
D03*
X510000Y120000D02*
D03*
Y160000D02*
D03*
X500000Y180000D02*
D03*
X510000Y200000D02*
D03*
X500000Y220000D02*
D03*
X510000Y240000D02*
D03*
X500000Y300000D02*
D03*
Y340000D02*
D03*
X520000Y60000D02*
D03*
X530000Y80000D02*
D03*
X520000Y100000D02*
D03*
X530000Y120000D02*
D03*
X520000Y140000D02*
D03*
X530000Y160000D02*
D03*
X520000Y180000D02*
D03*
X530000Y200000D02*
D03*
Y240000D02*
D03*
X520000Y260000D02*
D03*
Y300000D02*
D03*
X530000Y320000D02*
D03*
X520000Y340000D02*
D03*
X540000Y60000D02*
D03*
Y100000D02*
D03*
X550000Y120000D02*
D03*
X540000Y140000D02*
D03*
X550000Y160000D02*
D03*
X540000Y180000D02*
D03*
X550000Y200000D02*
D03*
X540000Y220000D02*
D03*
X550000Y240000D02*
D03*
X540000Y260000D02*
D03*
X550000Y280000D02*
D03*
X540000Y300000D02*
D03*
X550000Y320000D02*
D03*
X540000Y340000D02*
D03*
X560000Y100000D02*
D03*
Y140000D02*
D03*
Y180000D02*
D03*
X570000Y200000D02*
D03*
Y240000D02*
D03*
X560000Y260000D02*
D03*
X570000Y280000D02*
D03*
X560000Y300000D02*
D03*
X570000Y320000D02*
D03*
X560000Y340000D02*
D03*
X580000Y60000D02*
D03*
Y100000D02*
D03*
Y140000D02*
D03*
Y180000D02*
D03*
Y220000D02*
D03*
Y260000D02*
D03*
Y300000D02*
D03*
Y340000D02*
D03*
M02*
