G04 Layer_Physical_Order=2*
G04 Layer_Color=16711680*
%FSLAX25Y25*%
%MOIN*%
G70*
G01*
G75*
%ADD10C,0.01000*%
%ADD11C,0.06000*%
%ADD12C,0.10630*%
%ADD13C,0.04724*%
%ADD14R,0.06000X0.06000*%
%ADD15C,0.02362*%
%ADD16R,0.02756X0.03347*%
%ADD17R,0.03740X0.05512*%
%ADD18R,0.05512X0.03740*%
%ADD19R,0.18701X0.03543*%
%ADD20R,0.05512X0.01181*%
%ADD21R,0.01181X0.05512*%
%ADD22O,0.02362X0.05709*%
%ADD23R,0.03150X0.02756*%
%ADD24R,0.07283X0.13189*%
%ADD25R,0.06102X0.02362*%
G36*
X590551Y39370D02*
X196850D01*
Y364173D01*
X590551D01*
Y39370D01*
D02*
G37*
%LPC*%
G36*
X434539Y133890D02*
X433995Y133818D01*
X433022Y133415D01*
X432187Y132774D01*
X431545Y131939D01*
X431142Y130965D01*
X431071Y130421D01*
X434539D01*
Y133890D01*
D02*
G37*
G36*
X435539D02*
Y130421D01*
X439008D01*
X438936Y130965D01*
X438533Y131939D01*
X437892Y132774D01*
X437057Y133415D01*
X436084Y133818D01*
X435539Y133890D01*
D02*
G37*
G36*
X481783D02*
X481239Y133818D01*
X480266Y133415D01*
X479431Y132774D01*
X478789Y131939D01*
X478386Y130965D01*
X478315Y130421D01*
X481783D01*
Y133890D01*
D02*
G37*
G36*
X339083D02*
Y130421D01*
X342551D01*
X342480Y130965D01*
X342077Y131939D01*
X341435Y132774D01*
X340600Y133415D01*
X339627Y133818D01*
X339083Y133890D01*
D02*
G37*
G36*
X288870D02*
X288326Y133818D01*
X287353Y133415D01*
X286517Y132774D01*
X285876Y131939D01*
X285473Y130965D01*
X285401Y130421D01*
X288870D01*
Y133890D01*
D02*
G37*
G36*
X289870D02*
Y130421D01*
X293339D01*
X293267Y130965D01*
X292864Y131939D01*
X292223Y132774D01*
X291387Y133415D01*
X290414Y133818D01*
X289870Y133890D01*
D02*
G37*
G36*
X338083D02*
X337538Y133818D01*
X336565Y133415D01*
X335730Y132774D01*
X335089Y131939D01*
X334686Y130965D01*
X334614Y130421D01*
X338083D01*
Y133890D01*
D02*
G37*
G36*
X482783D02*
Y130421D01*
X486252D01*
X486180Y130965D01*
X485777Y131939D01*
X485136Y132774D01*
X484301Y133415D01*
X483328Y133818D01*
X482783Y133890D01*
D02*
G37*
G36*
X455118Y149636D02*
X449606D01*
X449377Y149541D01*
X449282Y149311D01*
Y145571D01*
X449377Y145341D01*
X449606Y145246D01*
X455118D01*
X455348Y145341D01*
X455443Y145571D01*
Y149311D01*
X455348Y149541D01*
X455118Y149636D01*
D02*
G37*
G36*
X502756D02*
X497244D01*
X497015Y149541D01*
X496919Y149311D01*
Y145571D01*
X497015Y145341D01*
X497244Y145246D01*
X502756D01*
X502985Y145341D01*
X503081Y145571D01*
Y149311D01*
X502985Y149541D01*
X502756Y149636D01*
D02*
G37*
G36*
X550000D02*
X544488D01*
X544258Y149541D01*
X544163Y149311D01*
Y145571D01*
X544258Y145341D01*
X544488Y145246D01*
X550000D01*
X550230Y145341D01*
X550325Y145571D01*
Y149311D01*
X550230Y149541D01*
X550000Y149636D01*
D02*
G37*
G36*
X359055D02*
X353543D01*
X353314Y149541D01*
X353219Y149311D01*
Y145571D01*
X353314Y145341D01*
X353543Y145246D01*
X359055D01*
X359285Y145341D01*
X359380Y145571D01*
Y149311D01*
X359285Y149541D01*
X359055Y149636D01*
D02*
G37*
G36*
X529028Y133890D02*
X528483Y133818D01*
X527510Y133415D01*
X526675Y132774D01*
X526034Y131939D01*
X525631Y130965D01*
X525559Y130421D01*
X529028D01*
Y133890D01*
D02*
G37*
G36*
X530028D02*
Y130421D01*
X533496D01*
X533425Y130965D01*
X533022Y131939D01*
X532380Y132774D01*
X531545Y133415D01*
X530572Y133818D01*
X530028Y133890D01*
D02*
G37*
G36*
X309842Y149636D02*
X304331D01*
X304101Y149541D01*
X304006Y149311D01*
Y145571D01*
X304101Y145341D01*
X304331Y145246D01*
X309842D01*
X310072Y145341D01*
X310167Y145571D01*
Y149311D01*
X310072Y149541D01*
X309842Y149636D01*
D02*
G37*
G36*
X434539Y129421D02*
X431071D01*
X431142Y128877D01*
X431545Y127904D01*
X432187Y127068D01*
X433022Y126427D01*
X433995Y126024D01*
X434539Y125952D01*
Y129421D01*
D02*
G37*
G36*
X439008D02*
X435539D01*
Y125952D01*
X436084Y126024D01*
X437057Y126427D01*
X437892Y127068D01*
X438533Y127904D01*
X438936Y128877D01*
X439008Y129421D01*
D02*
G37*
G36*
X481783D02*
X478315D01*
X478386Y128877D01*
X478789Y127904D01*
X479431Y127068D01*
X480266Y126427D01*
X481239Y126024D01*
X481783Y125952D01*
Y129421D01*
D02*
G37*
G36*
X342551D02*
X339083D01*
Y125952D01*
X339627Y126024D01*
X340600Y126427D01*
X341435Y127068D01*
X342077Y127904D01*
X342480Y128877D01*
X342551Y129421D01*
D02*
G37*
G36*
X288870D02*
X285401D01*
X285473Y128877D01*
X285876Y127904D01*
X286517Y127068D01*
X287353Y126427D01*
X288326Y126024D01*
X288870Y125952D01*
Y129421D01*
D02*
G37*
G36*
X293339D02*
X289870D01*
Y125952D01*
X290414Y126024D01*
X291387Y126427D01*
X292223Y127068D01*
X292864Y127904D01*
X293267Y128877D01*
X293339Y129421D01*
D02*
G37*
G36*
X338083D02*
X334614D01*
X334686Y128877D01*
X335089Y127904D01*
X335730Y127068D01*
X336565Y126427D01*
X337538Y126024D01*
X338083Y125952D01*
Y129421D01*
D02*
G37*
G36*
X486252D02*
X482783D01*
Y125952D01*
X483328Y126024D01*
X484301Y126427D01*
X485136Y127068D01*
X485777Y127904D01*
X486180Y128877D01*
X486252Y129421D01*
D02*
G37*
G36*
X455118Y142352D02*
X449606D01*
X449377Y142257D01*
X449282Y142027D01*
Y138287D01*
X449377Y138058D01*
X449606Y137963D01*
X451546D01*
Y132992D01*
X451092Y132804D01*
X450402Y132275D01*
X449873Y131585D01*
X449541Y130783D01*
X449428Y129921D01*
X449541Y129060D01*
X449873Y128257D01*
X450402Y127568D01*
X451092Y127039D01*
X451895Y126706D01*
X452756Y126593D01*
X453617Y126706D01*
X454420Y127039D01*
X455110Y127568D01*
X455639Y128257D01*
X455971Y129060D01*
X456084Y129921D01*
X455971Y130783D01*
X455639Y131585D01*
X455110Y132275D01*
X454420Y132804D01*
X453617Y133136D01*
X453178Y133194D01*
Y137963D01*
X455118D01*
X455348Y138058D01*
X455443Y138287D01*
Y142027D01*
X455348Y142257D01*
X455118Y142352D01*
D02*
G37*
G36*
X502756D02*
X497244D01*
X497015Y142257D01*
X496919Y142027D01*
Y138287D01*
X497015Y138058D01*
X497244Y137963D01*
X499184D01*
Y133142D01*
X499138Y133136D01*
X498336Y132804D01*
X497646Y132275D01*
X497118Y131585D01*
X496785Y130783D01*
X496671Y129921D01*
X496785Y129060D01*
X497118Y128257D01*
X497646Y127568D01*
X498336Y127039D01*
X499138Y126706D01*
X500000Y126593D01*
X500862Y126706D01*
X501664Y127039D01*
X502354Y127568D01*
X502882Y128257D01*
X503215Y129060D01*
X503329Y129921D01*
X503215Y130783D01*
X502882Y131585D01*
X502354Y132275D01*
X501664Y132804D01*
X500862Y133136D01*
X500816Y133142D01*
Y137963D01*
X502756D01*
X502985Y138058D01*
X503081Y138287D01*
Y142027D01*
X502985Y142257D01*
X502756Y142352D01*
D02*
G37*
G36*
X550000D02*
X544488D01*
X544258Y142257D01*
X544163Y142027D01*
Y138287D01*
X544258Y138058D01*
X544488Y137963D01*
X546428D01*
Y133142D01*
X546383Y133136D01*
X545580Y132804D01*
X544890Y132275D01*
X544361Y131585D01*
X544029Y130783D01*
X543916Y129921D01*
X544029Y129060D01*
X544361Y128257D01*
X544890Y127568D01*
X545580Y127039D01*
X546383Y126706D01*
X547244Y126593D01*
X548105Y126706D01*
X548908Y127039D01*
X549598Y127568D01*
X550127Y128257D01*
X550459Y129060D01*
X550572Y129921D01*
X550459Y130783D01*
X550127Y131585D01*
X549598Y132275D01*
X548908Y132804D01*
X548105Y133136D01*
X548060Y133142D01*
Y137963D01*
X550000D01*
X550230Y138058D01*
X550325Y138287D01*
Y142027D01*
X550230Y142257D01*
X550000Y142352D01*
D02*
G37*
G36*
X359055D02*
X353543D01*
X353314Y142257D01*
X353219Y142027D01*
Y138287D01*
X353314Y138058D01*
X353543Y137963D01*
X355484D01*
Y133142D01*
X355438Y133136D01*
X354635Y132804D01*
X353946Y132275D01*
X353417Y131585D01*
X353084Y130783D01*
X352971Y129921D01*
X353084Y129060D01*
X353417Y128257D01*
X353946Y127568D01*
X354635Y127039D01*
X355438Y126706D01*
X356299Y126593D01*
X357161Y126706D01*
X357963Y127039D01*
X358653Y127568D01*
X359182Y128257D01*
X359514Y129060D01*
X359628Y129921D01*
X359514Y130783D01*
X359182Y131585D01*
X358653Y132275D01*
X357963Y132804D01*
X357161Y133136D01*
X357115Y133142D01*
Y137963D01*
X359055D01*
X359285Y138058D01*
X359380Y138287D01*
Y142027D01*
X359285Y142257D01*
X359055Y142352D01*
D02*
G37*
G36*
X529028Y129421D02*
X525559D01*
X525631Y128877D01*
X526034Y127904D01*
X526675Y127068D01*
X527510Y126427D01*
X528483Y126024D01*
X529028Y125952D01*
Y129421D01*
D02*
G37*
G36*
X533496D02*
X530028D01*
Y125952D01*
X530572Y126024D01*
X531545Y126427D01*
X532380Y127068D01*
X533022Y127904D01*
X533425Y128877D01*
X533496Y129421D01*
D02*
G37*
G36*
X309842Y142352D02*
X304331D01*
X304101Y142257D01*
X304006Y142027D01*
Y138287D01*
X304101Y138058D01*
X304331Y137963D01*
X306271D01*
Y133142D01*
X306225Y133136D01*
X305422Y132804D01*
X304733Y132275D01*
X304204Y131585D01*
X303871Y130783D01*
X303758Y129921D01*
X303871Y129060D01*
X304204Y128257D01*
X304733Y127568D01*
X305422Y127039D01*
X306225Y126706D01*
X307087Y126593D01*
X307948Y126706D01*
X308751Y127039D01*
X309440Y127568D01*
X309969Y128257D01*
X310302Y129060D01*
X310415Y129921D01*
X310302Y130783D01*
X309969Y131585D01*
X309440Y132275D01*
X308751Y132804D01*
X307948Y133136D01*
X307902Y133142D01*
Y137963D01*
X309842D01*
X310072Y138058D01*
X310167Y138287D01*
Y142027D01*
X310072Y142257D01*
X309842Y142352D01*
D02*
G37*
G36*
X311811Y220230D02*
X310345Y220037D01*
X308979Y219472D01*
X307806Y218571D01*
X306906Y217399D01*
X306341Y216033D01*
X306148Y214567D01*
X306341Y213101D01*
X306906Y211735D01*
X307806Y210562D01*
X308979Y209662D01*
X310345Y209097D01*
X311811Y208904D01*
X313277Y209097D01*
X314643Y209662D01*
X315816Y210562D01*
X316716Y211735D01*
X317281Y213101D01*
X317474Y214567D01*
X317281Y216033D01*
X316716Y217399D01*
X315816Y218571D01*
X314643Y219472D01*
X313277Y220037D01*
X311811Y220230D01*
D02*
G37*
G36*
X379232D02*
X377766Y220037D01*
X376401Y219472D01*
X375228Y218571D01*
X374328Y217399D01*
X373762Y216033D01*
X373569Y214567D01*
X373762Y213101D01*
X374328Y211735D01*
X375228Y210562D01*
X376401Y209662D01*
X377766Y209097D01*
X379232Y208904D01*
X380698Y209097D01*
X382064Y209662D01*
X383237Y210562D01*
X384137Y211735D01*
X384703Y213101D01*
X384896Y214567D01*
X384703Y216033D01*
X384137Y217399D01*
X383237Y218571D01*
X382064Y219472D01*
X380698Y220037D01*
X379232Y220230D01*
D02*
G37*
G36*
X413878D02*
X412412Y220037D01*
X411046Y219472D01*
X409873Y218571D01*
X408973Y217399D01*
X408408Y216033D01*
X408215Y214567D01*
X408408Y213101D01*
X408973Y211735D01*
X409873Y210562D01*
X411046Y209662D01*
X412412Y209097D01*
X413878Y208904D01*
X415344Y209097D01*
X416710Y209662D01*
X417883Y210562D01*
X418783Y211735D01*
X419348Y213101D01*
X419542Y214567D01*
X419348Y216033D01*
X418783Y217399D01*
X417883Y218571D01*
X416710Y219472D01*
X415344Y220037D01*
X413878Y220230D01*
D02*
G37*
G36*
X277165D02*
X275699Y220037D01*
X274334Y219472D01*
X273161Y218571D01*
X272261Y217399D01*
X271695Y216033D01*
X271502Y214567D01*
X271695Y213101D01*
X272261Y211735D01*
X273161Y210562D01*
X274334Y209662D01*
X275699Y209097D01*
X277165Y208904D01*
X278631Y209097D01*
X279997Y209662D01*
X281170Y210562D01*
X282070Y211735D01*
X282636Y213101D01*
X282829Y214567D01*
X282636Y216033D01*
X282070Y217399D01*
X281170Y218571D01*
X279997Y219472D01*
X278631Y220037D01*
X277165Y220230D01*
D02*
G37*
G36*
X406898Y190977D02*
Y187508D01*
X410366D01*
X410295Y188052D01*
X409892Y189025D01*
X409250Y189861D01*
X408415Y190502D01*
X407442Y190905D01*
X406898Y190977D01*
D02*
G37*
G36*
X507965D02*
X507420Y190905D01*
X506447Y190502D01*
X505612Y189861D01*
X504971Y189025D01*
X504568Y188052D01*
X504496Y187508D01*
X507965D01*
Y190977D01*
D02*
G37*
G36*
X508965D02*
Y187508D01*
X512433D01*
X512362Y188052D01*
X511959Y189025D01*
X511317Y189861D01*
X510482Y190502D01*
X509509Y190905D01*
X508965Y190977D01*
D02*
G37*
G36*
X481299Y220230D02*
X479833Y220037D01*
X478468Y219472D01*
X477295Y218571D01*
X476395Y217399D01*
X475829Y216033D01*
X475636Y214567D01*
X475829Y213101D01*
X476395Y211735D01*
X477295Y210562D01*
X478468Y209662D01*
X479833Y209097D01*
X481299Y208904D01*
X482765Y209097D01*
X484131Y209662D01*
X485304Y210562D01*
X486204Y211735D01*
X486770Y213101D01*
X486963Y214567D01*
X486770Y216033D01*
X486204Y217399D01*
X485304Y218571D01*
X484131Y219472D01*
X482765Y220037D01*
X481299Y220230D01*
D02*
G37*
G36*
X232319Y251075D02*
X230421D01*
Y248882D01*
X231299D01*
X231689Y248960D01*
X232020Y249181D01*
X232241Y249511D01*
X232319Y249902D01*
Y251075D01*
D02*
G37*
G36*
X339362Y255012D02*
X336973D01*
Y252756D01*
X337050Y252366D01*
X337271Y252035D01*
X337602Y251814D01*
X337992Y251736D01*
X339362D01*
Y255012D01*
D02*
G37*
G36*
X342752D02*
X340362D01*
Y251736D01*
X341732D01*
X342123Y251814D01*
X342453Y252035D01*
X342674Y252366D01*
X342752Y252756D01*
Y255012D01*
D02*
G37*
G36*
X229421Y251075D02*
X227524D01*
Y249902D01*
X227601Y249511D01*
X227822Y249181D01*
X228153Y248960D01*
X228543Y248882D01*
X229421D01*
Y251075D01*
D02*
G37*
G36*
X515945Y220230D02*
X514479Y220037D01*
X513113Y219472D01*
X511940Y218571D01*
X511040Y217399D01*
X510475Y216033D01*
X510282Y214567D01*
X510475Y213101D01*
X511040Y211735D01*
X511940Y210562D01*
X513113Y209662D01*
X514479Y209097D01*
X515945Y208904D01*
X517411Y209097D01*
X518777Y209662D01*
X519950Y210562D01*
X520850Y211735D01*
X521415Y213101D01*
X521608Y214567D01*
X521415Y216033D01*
X520850Y217399D01*
X519950Y218571D01*
X518777Y219472D01*
X517411Y220037D01*
X515945Y220230D01*
D02*
G37*
G36*
X309736Y251153D02*
X306217D01*
Y248654D01*
X306294Y248263D01*
X306515Y247933D01*
X306846Y247712D01*
X307236Y247634D01*
X309736D01*
Y251153D01*
D02*
G37*
G36*
X314256D02*
X310736D01*
Y247634D01*
X313236D01*
X313626Y247712D01*
X313957Y247933D01*
X314178Y248263D01*
X314256Y248654D01*
Y251153D01*
D02*
G37*
G36*
X507965Y186508D02*
X504496D01*
X504568Y185964D01*
X504971Y184991D01*
X505612Y184155D01*
X506447Y183514D01*
X507420Y183111D01*
X507965Y183039D01*
Y186508D01*
D02*
G37*
G36*
X512433D02*
X508965D01*
Y183039D01*
X509509Y183111D01*
X510482Y183514D01*
X511317Y184155D01*
X511959Y184991D01*
X512362Y185964D01*
X512433Y186508D01*
D02*
G37*
G36*
X284646Y190336D02*
X283784Y190223D01*
X282981Y189891D01*
X282292Y189362D01*
X281763Y188672D01*
X281431Y187869D01*
X281317Y187008D01*
X281431Y186146D01*
X281763Y185344D01*
X282292Y184654D01*
X282981Y184125D01*
X283784Y183793D01*
X284646Y183679D01*
X285507Y183793D01*
X286310Y184125D01*
X286999Y184654D01*
X287528Y185344D01*
X287861Y186146D01*
X287974Y187008D01*
X287861Y187869D01*
X287528Y188672D01*
X286999Y189362D01*
X286310Y189891D01*
X285507Y190223D01*
X284646Y190336D01*
D02*
G37*
G36*
X410366Y186508D02*
X406898D01*
Y183039D01*
X407442Y183111D01*
X408415Y183514D01*
X409250Y184155D01*
X409892Y184991D01*
X410295Y185964D01*
X410366Y186508D01*
D02*
G37*
G36*
X303831D02*
X300362D01*
X300434Y185964D01*
X300837Y184991D01*
X301478Y184155D01*
X302313Y183514D01*
X303287Y183111D01*
X303831Y183039D01*
Y186508D01*
D02*
G37*
G36*
X308299D02*
X304831D01*
Y183039D01*
X305375Y183111D01*
X306348Y183514D01*
X307184Y184155D01*
X307825Y184991D01*
X308228Y185964D01*
X308299Y186508D01*
D02*
G37*
G36*
X405898D02*
X402429D01*
X402501Y185964D01*
X402904Y184991D01*
X403545Y184155D01*
X404380Y183514D01*
X405353Y183111D01*
X405898Y183039D01*
Y186508D01*
D02*
G37*
G36*
X294488Y190336D02*
X293627Y190223D01*
X292824Y189891D01*
X292134Y189362D01*
X291606Y188672D01*
X291273Y187869D01*
X291160Y187008D01*
X291273Y186146D01*
X291606Y185344D01*
X292134Y184654D01*
X292824Y184125D01*
X293627Y183793D01*
X294488Y183679D01*
X295350Y183793D01*
X296152Y184125D01*
X296842Y184654D01*
X297371Y185344D01*
X297703Y186146D01*
X297817Y187008D01*
X297703Y187869D01*
X297371Y188672D01*
X296842Y189362D01*
X296152Y189891D01*
X295350Y190223D01*
X294488Y190336D01*
D02*
G37*
G36*
X303831Y190977D02*
X303287Y190905D01*
X302313Y190502D01*
X301478Y189861D01*
X300837Y189025D01*
X300434Y188052D01*
X300362Y187508D01*
X303831D01*
Y190977D01*
D02*
G37*
G36*
X304831D02*
Y187508D01*
X308299D01*
X308228Y188052D01*
X307825Y189025D01*
X307184Y189861D01*
X306348Y190502D01*
X305375Y190905D01*
X304831Y190977D01*
D02*
G37*
G36*
X405898D02*
X405353Y190905D01*
X404380Y190502D01*
X403545Y189861D01*
X402904Y189025D01*
X402501Y188052D01*
X402429Y187508D01*
X405898D01*
Y190977D01*
D02*
G37*
G36*
X498622Y190336D02*
X497760Y190223D01*
X496958Y189891D01*
X496268Y189362D01*
X495740Y188672D01*
X495407Y187869D01*
X495294Y187008D01*
X495407Y186146D01*
X495740Y185344D01*
X496268Y184654D01*
X496958Y184125D01*
X497760Y183793D01*
X498622Y183679D01*
X499483Y183793D01*
X500286Y184125D01*
X500976Y184654D01*
X501505Y185344D01*
X501837Y186146D01*
X501951Y187008D01*
X501837Y187869D01*
X501505Y188672D01*
X500976Y189362D01*
X500286Y189891D01*
X499483Y190223D01*
X498622Y190336D01*
D02*
G37*
G36*
X386713D02*
X385851Y190223D01*
X385048Y189891D01*
X384359Y189362D01*
X383830Y188672D01*
X383498Y187869D01*
X383384Y187008D01*
X383498Y186146D01*
X383830Y185344D01*
X384359Y184654D01*
X385048Y184125D01*
X385851Y183793D01*
X386713Y183679D01*
X387574Y183793D01*
X388377Y184125D01*
X389066Y184654D01*
X389595Y185344D01*
X389928Y186146D01*
X390041Y187008D01*
X389928Y187869D01*
X389595Y188672D01*
X389066Y189362D01*
X388377Y189891D01*
X387574Y190223D01*
X386713Y190336D01*
D02*
G37*
G36*
X396555D02*
X395694Y190223D01*
X394891Y189891D01*
X394201Y189362D01*
X393672Y188672D01*
X393340Y187869D01*
X393227Y187008D01*
X393340Y186146D01*
X393672Y185344D01*
X394201Y184654D01*
X394891Y184125D01*
X395694Y183793D01*
X396555Y183679D01*
X397416Y183793D01*
X398219Y184125D01*
X398909Y184654D01*
X399438Y185344D01*
X399770Y186146D01*
X399884Y187008D01*
X399770Y187869D01*
X399438Y188672D01*
X398909Y189362D01*
X398219Y189891D01*
X397416Y190223D01*
X396555Y190336D01*
D02*
G37*
G36*
X488780D02*
X487918Y190223D01*
X487115Y189891D01*
X486426Y189362D01*
X485897Y188672D01*
X485565Y187869D01*
X485451Y187008D01*
X485565Y186146D01*
X485897Y185344D01*
X486426Y184654D01*
X487115Y184125D01*
X487918Y183793D01*
X488780Y183679D01*
X489641Y183793D01*
X490444Y184125D01*
X491133Y184654D01*
X491662Y185344D01*
X491995Y186146D01*
X492108Y187008D01*
X491995Y187869D01*
X491662Y188672D01*
X491133Y189362D01*
X490444Y189891D01*
X489641Y190223D01*
X488780Y190336D01*
D02*
G37*
G36*
X536614Y120207D02*
X532874D01*
X532644Y120112D01*
X532549Y119882D01*
Y114370D01*
X532644Y114140D01*
X532874Y114045D01*
X533928D01*
Y109885D01*
X531228Y107185D01*
X531192Y107213D01*
X530389Y107546D01*
X529528Y107659D01*
X528666Y107546D01*
X527863Y107213D01*
X527174Y106684D01*
X526645Y105995D01*
X526312Y105192D01*
X526199Y104331D01*
X526312Y103469D01*
X526645Y102667D01*
X527174Y101977D01*
X527863Y101448D01*
X528666Y101116D01*
X529528Y101002D01*
X530389Y101116D01*
X531192Y101448D01*
X531881Y101977D01*
X532410Y102667D01*
X532743Y103469D01*
X532856Y104331D01*
X532743Y105192D01*
X532410Y105995D01*
X532382Y106032D01*
X535321Y108970D01*
X535321Y108970D01*
X535498Y109235D01*
X535560Y109547D01*
Y114045D01*
X536614D01*
X536844Y114140D01*
X536939Y114370D01*
Y119882D01*
X536844Y120112D01*
X536614Y120207D01*
D02*
G37*
G36*
X460943Y78240D02*
X457474D01*
Y74771D01*
X458018Y74843D01*
X458991Y75246D01*
X459827Y75887D01*
X460468Y76723D01*
X460871Y77696D01*
X460943Y78240D01*
D02*
G37*
G36*
X504562D02*
X501093D01*
X501165Y77696D01*
X501568Y76723D01*
X502209Y75887D01*
X503045Y75246D01*
X504018Y74843D01*
X504562Y74771D01*
Y78240D01*
D02*
G37*
G36*
X509030D02*
X505562D01*
Y74771D01*
X506106Y74843D01*
X507079Y75246D01*
X507915Y75887D01*
X508556Y76723D01*
X508959Y77696D01*
X509030Y78240D01*
D02*
G37*
G36*
X456474D02*
X453005D01*
X453077Y77696D01*
X453480Y76723D01*
X454121Y75887D01*
X454957Y75246D01*
X455930Y74843D01*
X456474Y74771D01*
Y78240D01*
D02*
G37*
G36*
X364767D02*
X361299D01*
Y74771D01*
X361843Y74843D01*
X362816Y75246D01*
X363651Y75887D01*
X364293Y76723D01*
X364696Y77696D01*
X364767Y78240D01*
D02*
G37*
G36*
X408386D02*
X404918D01*
X404989Y77696D01*
X405392Y76723D01*
X406034Y75887D01*
X406869Y75246D01*
X407842Y74843D01*
X408386Y74771D01*
Y78240D01*
D02*
G37*
G36*
X412855D02*
X409386D01*
Y74771D01*
X409931Y74843D01*
X410904Y75246D01*
X411739Y75887D01*
X412380Y76723D01*
X412783Y77696D01*
X412855Y78240D01*
D02*
G37*
G36*
X552650D02*
X549181D01*
X549253Y77696D01*
X549656Y76723D01*
X550297Y75887D01*
X551132Y75246D01*
X552105Y74843D01*
X552650Y74771D01*
Y78240D01*
D02*
G37*
G36*
X381102Y90777D02*
X375590D01*
X375361Y90682D01*
X375266Y90453D01*
Y86712D01*
X375361Y86483D01*
X375590Y86388D01*
X377531D01*
Y81904D01*
X376851Y81623D01*
X376162Y81094D01*
X375633Y80404D01*
X375300Y79602D01*
X375187Y78740D01*
X375300Y77879D01*
X375633Y77076D01*
X376162Y76387D01*
X376851Y75858D01*
X377654Y75525D01*
X378515Y75412D01*
X379377Y75525D01*
X380179Y75858D01*
X380869Y76387D01*
X381398Y77076D01*
X381730Y77879D01*
X381844Y78740D01*
X381730Y79602D01*
X381398Y80404D01*
X380869Y81094D01*
X380179Y81623D01*
X379377Y81955D01*
X379162Y81984D01*
Y86388D01*
X381102D01*
X381332Y86483D01*
X381427Y86712D01*
Y90453D01*
X381332Y90682D01*
X381102Y90777D01*
D02*
G37*
G36*
X429134D02*
X423622D01*
X423392Y90682D01*
X423297Y90453D01*
Y86712D01*
X423392Y86483D01*
X423622Y86388D01*
X425562D01*
Y81881D01*
X424939Y81623D01*
X424249Y81094D01*
X423720Y80404D01*
X423388Y79602D01*
X423274Y78740D01*
X423388Y77879D01*
X423720Y77076D01*
X424249Y76387D01*
X424939Y75858D01*
X425741Y75525D01*
X426603Y75412D01*
X427464Y75525D01*
X428267Y75858D01*
X428956Y76387D01*
X429485Y77076D01*
X429818Y77879D01*
X429931Y78740D01*
X429818Y79602D01*
X429485Y80404D01*
X428956Y81094D01*
X428267Y81623D01*
X427464Y81955D01*
X427194Y81991D01*
Y86388D01*
X429134D01*
X429363Y86483D01*
X429459Y86712D01*
Y90453D01*
X429363Y90682D01*
X429134Y90777D01*
D02*
G37*
G36*
X477559Y89892D02*
X472047D01*
X471818Y89797D01*
X471723Y89567D01*
Y85827D01*
X471818Y85597D01*
X472047Y85502D01*
X473987D01*
Y81976D01*
X473829Y81955D01*
X473026Y81623D01*
X472337Y81094D01*
X471808Y80404D01*
X471476Y79602D01*
X471362Y78740D01*
X471476Y77879D01*
X471808Y77076D01*
X472337Y76387D01*
X473026Y75858D01*
X473829Y75525D01*
X474691Y75412D01*
X475552Y75525D01*
X476355Y75858D01*
X477044Y76387D01*
X477573Y77076D01*
X477906Y77879D01*
X478019Y78740D01*
X477906Y79602D01*
X477573Y80404D01*
X477044Y81094D01*
X476355Y81623D01*
X475619Y81928D01*
Y85502D01*
X477559D01*
X477789Y85597D01*
X477884Y85827D01*
Y89567D01*
X477789Y89797D01*
X477559Y89892D01*
D02*
G37*
G36*
X333465Y90777D02*
X327953D01*
X327723Y90682D01*
X327628Y90453D01*
Y86712D01*
X327723Y86483D01*
X327953Y86388D01*
X329893D01*
Y81998D01*
X329566Y81955D01*
X328763Y81623D01*
X328074Y81094D01*
X327545Y80404D01*
X327212Y79602D01*
X327099Y78740D01*
X327212Y77879D01*
X327545Y77076D01*
X328074Y76387D01*
X328763Y75858D01*
X329566Y75525D01*
X330427Y75412D01*
X331289Y75525D01*
X332092Y75858D01*
X332781Y76387D01*
X333310Y77076D01*
X333643Y77879D01*
X333756Y78740D01*
X333643Y79602D01*
X333310Y80404D01*
X332781Y81094D01*
X332092Y81623D01*
X331524Y81858D01*
Y86388D01*
X333465D01*
X333694Y86483D01*
X333789Y86712D01*
Y90453D01*
X333694Y90682D01*
X333465Y90777D01*
D02*
G37*
G36*
X557118Y78240D02*
X553650D01*
Y74771D01*
X554194Y74843D01*
X555167Y75246D01*
X556002Y75887D01*
X556644Y76723D01*
X557047Y77696D01*
X557118Y78240D01*
D02*
G37*
G36*
X237008Y90777D02*
X231496D01*
X231266Y90682D01*
X231171Y90453D01*
Y86712D01*
X231266Y86483D01*
X231496Y86388D01*
X233436D01*
Y81961D01*
X233390Y81955D01*
X232588Y81623D01*
X231898Y81094D01*
X231369Y80404D01*
X231037Y79602D01*
X230924Y78740D01*
X231037Y77879D01*
X231369Y77076D01*
X231898Y76387D01*
X232588Y75858D01*
X233390Y75525D01*
X234252Y75412D01*
X235114Y75525D01*
X235916Y75858D01*
X236606Y76387D01*
X237135Y77076D01*
X237467Y77879D01*
X237580Y78740D01*
X237467Y79602D01*
X237135Y80404D01*
X236606Y81094D01*
X235916Y81623D01*
X235114Y81955D01*
X235068Y81961D01*
Y86388D01*
X237008D01*
X237238Y86483D01*
X237333Y86712D01*
Y90453D01*
X237238Y90682D01*
X237008Y90777D01*
D02*
G37*
G36*
X285039D02*
X279527D01*
X279298Y90682D01*
X279203Y90453D01*
Y86712D01*
X279298Y86483D01*
X279527Y86388D01*
X281468D01*
Y81951D01*
X280676Y81623D01*
X279986Y81094D01*
X279457Y80404D01*
X279125Y79602D01*
X279011Y78740D01*
X279125Y77879D01*
X279457Y77076D01*
X279986Y76387D01*
X280676Y75858D01*
X281478Y75525D01*
X282340Y75412D01*
X283201Y75525D01*
X284004Y75858D01*
X284693Y76387D01*
X285222Y77076D01*
X285555Y77879D01*
X285668Y78740D01*
X285555Y79602D01*
X285222Y80404D01*
X284693Y81094D01*
X284004Y81623D01*
X283201Y81955D01*
X283099Y81969D01*
Y86388D01*
X285039D01*
X285269Y86483D01*
X285364Y86712D01*
Y90453D01*
X285269Y90682D01*
X285039Y90777D01*
D02*
G37*
G36*
X367885Y69025D02*
X364145D01*
X363915Y68930D01*
X363820Y68701D01*
Y63189D01*
X363915Y62959D01*
X364145Y62864D01*
X365199D01*
Y58704D01*
X362499Y56004D01*
X362463Y56032D01*
X361660Y56365D01*
X360799Y56478D01*
X359937Y56365D01*
X359134Y56032D01*
X358445Y55503D01*
X357916Y54814D01*
X357583Y54011D01*
X357470Y53150D01*
X357583Y52288D01*
X357916Y51485D01*
X358445Y50796D01*
X359134Y50267D01*
X359937Y49935D01*
X360799Y49821D01*
X361660Y49935D01*
X362463Y50267D01*
X363152Y50796D01*
X363681Y51485D01*
X364014Y52288D01*
X364127Y53150D01*
X364014Y54011D01*
X363681Y54814D01*
X363653Y54851D01*
X366592Y57789D01*
X366592Y57789D01*
X366769Y58054D01*
X366831Y58366D01*
X366831Y58366D01*
Y62864D01*
X367885D01*
X368115Y62959D01*
X368210Y63189D01*
Y68701D01*
X368115Y68930D01*
X367885Y69025D01*
D02*
G37*
G36*
X464061Y69616D02*
X460321D01*
X460091Y69521D01*
X459996Y69291D01*
Y63779D01*
X460091Y63550D01*
X460321Y63455D01*
X461375D01*
Y58704D01*
X458675Y56004D01*
X458638Y56032D01*
X457835Y56365D01*
X456974Y56478D01*
X456112Y56365D01*
X455310Y56032D01*
X454620Y55503D01*
X454091Y54814D01*
X453759Y54011D01*
X453646Y53150D01*
X453759Y52288D01*
X454091Y51485D01*
X454620Y50796D01*
X455310Y50267D01*
X456112Y49935D01*
X456974Y49821D01*
X457835Y49935D01*
X458638Y50267D01*
X459328Y50796D01*
X459857Y51485D01*
X460189Y52288D01*
X460302Y53150D01*
X460189Y54011D01*
X459857Y54814D01*
X459828Y54851D01*
X462767Y57789D01*
X462767Y57789D01*
X462944Y58054D01*
X463006Y58366D01*
X463006Y58366D01*
Y63455D01*
X464061D01*
X464290Y63550D01*
X464385Y63779D01*
Y69291D01*
X464290Y69521D01*
X464061Y69616D01*
D02*
G37*
G36*
X512149Y69025D02*
X508408D01*
X508179Y68930D01*
X508084Y68701D01*
Y63189D01*
X508179Y62959D01*
X508408Y62864D01*
X509463D01*
Y58704D01*
X506763Y56004D01*
X506726Y56032D01*
X505923Y56365D01*
X505062Y56478D01*
X504200Y56365D01*
X503398Y56032D01*
X502708Y55503D01*
X502179Y54814D01*
X501847Y54011D01*
X501733Y53150D01*
X501847Y52288D01*
X502179Y51485D01*
X502708Y50796D01*
X503398Y50267D01*
X504200Y49935D01*
X505062Y49821D01*
X505923Y49935D01*
X506726Y50267D01*
X507415Y50796D01*
X507944Y51485D01*
X508277Y52288D01*
X508390Y53150D01*
X508277Y54011D01*
X507944Y54814D01*
X507916Y54851D01*
X510855Y57789D01*
X510855Y57789D01*
X511032Y58054D01*
X511094Y58366D01*
X511094Y58366D01*
Y62864D01*
X512149D01*
X512378Y62959D01*
X512473Y63189D01*
Y68701D01*
X512378Y68930D01*
X512149Y69025D01*
D02*
G37*
G36*
X319797D02*
X316057D01*
X315828Y68930D01*
X315733Y68701D01*
Y63189D01*
X315828Y62959D01*
X316057Y62864D01*
X317112D01*
Y58704D01*
X314412Y56004D01*
X314375Y56032D01*
X313572Y56365D01*
X312711Y56478D01*
X311849Y56365D01*
X311047Y56032D01*
X310357Y55503D01*
X309828Y54814D01*
X309496Y54011D01*
X309382Y53150D01*
X309496Y52288D01*
X309828Y51485D01*
X310357Y50796D01*
X311047Y50267D01*
X311849Y49935D01*
X312711Y49821D01*
X313572Y49935D01*
X314375Y50267D01*
X315064Y50796D01*
X315593Y51485D01*
X315926Y52288D01*
X316039Y53150D01*
X315926Y54011D01*
X315593Y54814D01*
X315565Y54851D01*
X318504Y57789D01*
X318504Y57789D01*
X318681Y58054D01*
X318743Y58366D01*
X318743Y58366D01*
Y62864D01*
X319797D01*
X320027Y62959D01*
X320122Y63189D01*
Y68701D01*
X320027Y68930D01*
X319797Y69025D01*
D02*
G37*
G36*
X560236D02*
X556496D01*
X556266Y68930D01*
X556171Y68701D01*
Y63189D01*
X556266Y62959D01*
X556496Y62864D01*
X557550D01*
Y58704D01*
X554850Y56004D01*
X554814Y56032D01*
X554011Y56365D01*
X553150Y56478D01*
X552288Y56365D01*
X551485Y56032D01*
X550796Y55503D01*
X550267Y54814D01*
X549934Y54011D01*
X549821Y53150D01*
X549934Y52288D01*
X550267Y51485D01*
X550796Y50796D01*
X551485Y50267D01*
X552288Y49935D01*
X553150Y49821D01*
X554011Y49935D01*
X554814Y50267D01*
X555503Y50796D01*
X556032Y51485D01*
X556365Y52288D01*
X556478Y53150D01*
X556365Y54011D01*
X556032Y54814D01*
X556004Y54851D01*
X558943Y57789D01*
X558943Y57789D01*
X559120Y58054D01*
X559182Y58366D01*
Y62864D01*
X560236D01*
X560466Y62959D01*
X560561Y63189D01*
Y68701D01*
X560466Y68930D01*
X560236Y69025D01*
D02*
G37*
G36*
X271710D02*
X267970D01*
X267740Y68930D01*
X267645Y68701D01*
Y63189D01*
X267740Y62959D01*
X267970Y62864D01*
X269024D01*
Y58704D01*
X266324Y56004D01*
X266287Y56032D01*
X265485Y56365D01*
X264623Y56478D01*
X263762Y56365D01*
X262959Y56032D01*
X262270Y55503D01*
X261741Y54814D01*
X261408Y54011D01*
X261295Y53150D01*
X261408Y52288D01*
X261741Y51485D01*
X262270Y50796D01*
X262959Y50267D01*
X263762Y49935D01*
X264623Y49821D01*
X265485Y49935D01*
X266287Y50267D01*
X266977Y50796D01*
X267506Y51485D01*
X267838Y52288D01*
X267952Y53150D01*
X267838Y54011D01*
X267506Y54814D01*
X267478Y54851D01*
X270416Y57789D01*
X270417Y57789D01*
X270593Y58054D01*
X270655Y58366D01*
X270655Y58366D01*
Y62864D01*
X271710D01*
X271939Y62959D01*
X272035Y63189D01*
Y68701D01*
X271939Y68930D01*
X271710Y69025D01*
D02*
G37*
G36*
X223622D02*
X219882D01*
X219652Y68930D01*
X219557Y68701D01*
Y63189D01*
X219652Y62959D01*
X219882Y62864D01*
X220936D01*
Y58704D01*
X218236Y56004D01*
X218200Y56032D01*
X217397Y56365D01*
X216535Y56478D01*
X215674Y56365D01*
X214871Y56032D01*
X214182Y55503D01*
X213653Y54814D01*
X213320Y54011D01*
X213207Y53150D01*
X213320Y52288D01*
X213653Y51485D01*
X214182Y50796D01*
X214871Y50267D01*
X215674Y49935D01*
X216535Y49821D01*
X217397Y49935D01*
X218200Y50267D01*
X218889Y50796D01*
X219418Y51485D01*
X219750Y52288D01*
X219864Y53150D01*
X219750Y54011D01*
X219418Y54814D01*
X219390Y54851D01*
X222329Y57789D01*
X222329Y57789D01*
X222506Y58054D01*
X222568Y58366D01*
X222568Y58366D01*
Y62864D01*
X223622D01*
X223852Y62959D01*
X223947Y63189D01*
Y68701D01*
X223852Y68930D01*
X223622Y69025D01*
D02*
G37*
G36*
X416339D02*
X412599D01*
X412369Y68930D01*
X412274Y68701D01*
Y63189D01*
X412369Y62959D01*
X412599Y62864D01*
X413653D01*
Y59070D01*
X410587Y56004D01*
X410551Y56032D01*
X409748Y56365D01*
X408886Y56478D01*
X408025Y56365D01*
X407222Y56032D01*
X406533Y55503D01*
X406004Y54814D01*
X405671Y54011D01*
X405558Y53150D01*
X405671Y52288D01*
X406004Y51485D01*
X406533Y50796D01*
X407222Y50267D01*
X408025Y49935D01*
X408886Y49821D01*
X409748Y49935D01*
X410551Y50267D01*
X411240Y50796D01*
X411769Y51485D01*
X412102Y52288D01*
X412215Y53150D01*
X412102Y54011D01*
X411769Y54814D01*
X411741Y54851D01*
X415045Y58155D01*
X415045Y58155D01*
X415222Y58420D01*
X415284Y58732D01*
Y62864D01*
X416339D01*
X416568Y62959D01*
X416663Y63189D01*
Y68701D01*
X416568Y68930D01*
X416339Y69025D01*
D02*
G37*
G36*
X312211Y78240D02*
X308742D01*
X308814Y77696D01*
X309217Y76723D01*
X309858Y75887D01*
X310694Y75246D01*
X311667Y74843D01*
X312211Y74771D01*
Y78240D01*
D02*
G37*
G36*
X316680D02*
X313211D01*
Y74771D01*
X313755Y74843D01*
X314728Y75246D01*
X315564Y75887D01*
X316205Y76723D01*
X316608Y77696D01*
X316680Y78240D01*
D02*
G37*
G36*
X360299D02*
X356830D01*
X356902Y77696D01*
X357305Y76723D01*
X357946Y75887D01*
X358781Y75246D01*
X359754Y74843D01*
X360299Y74771D01*
Y78240D01*
D02*
G37*
G36*
X268592D02*
X265123D01*
Y74771D01*
X265667Y74843D01*
X266640Y75246D01*
X267476Y75887D01*
X268117Y76723D01*
X268520Y77696D01*
X268592Y78240D01*
D02*
G37*
G36*
X216035D02*
X212567D01*
X212638Y77696D01*
X213041Y76723D01*
X213683Y75887D01*
X214518Y75246D01*
X215491Y74843D01*
X216035Y74771D01*
Y78240D01*
D02*
G37*
G36*
X220504D02*
X217035D01*
Y74771D01*
X217580Y74843D01*
X218553Y75246D01*
X219388Y75887D01*
X220029Y76723D01*
X220432Y77696D01*
X220504Y78240D01*
D02*
G37*
G36*
X264123D02*
X260654D01*
X260726Y77696D01*
X261129Y76723D01*
X261770Y75887D01*
X262606Y75246D01*
X263579Y74843D01*
X264123Y74771D01*
Y78240D01*
D02*
G37*
G36*
X525591Y97175D02*
X520079D01*
X519849Y97080D01*
X519754Y96851D01*
Y93110D01*
X519849Y92881D01*
X520079Y92786D01*
X525591D01*
X525820Y92881D01*
X525915Y93110D01*
Y96851D01*
X525820Y97080D01*
X525591Y97175D01*
D02*
G37*
G36*
X237008Y98061D02*
X231496D01*
X231266Y97966D01*
X231171Y97736D01*
Y93996D01*
X231266Y93766D01*
X231496Y93671D01*
X237008D01*
X237238Y93766D01*
X237333Y93996D01*
Y97736D01*
X237238Y97966D01*
X237008Y98061D01*
D02*
G37*
G36*
X285039D02*
X279527D01*
X279298Y97966D01*
X279203Y97736D01*
Y93996D01*
X279298Y93766D01*
X279527Y93671D01*
X285039D01*
X285269Y93766D01*
X285364Y93996D01*
Y97736D01*
X285269Y97966D01*
X285039Y98061D01*
D02*
G37*
G36*
X477559Y97175D02*
X472047D01*
X471818Y97080D01*
X471723Y96851D01*
Y93110D01*
X471818Y92881D01*
X472047Y92786D01*
X477559D01*
X477789Y92881D01*
X477884Y93110D01*
Y96851D01*
X477789Y97080D01*
X477559Y97175D01*
D02*
G37*
G36*
X505562Y82709D02*
Y79240D01*
X509030D01*
X508959Y79784D01*
X508556Y80757D01*
X507915Y81593D01*
X507079Y82234D01*
X506106Y82637D01*
X505562Y82709D01*
D02*
G37*
G36*
X552650D02*
X552105Y82637D01*
X551132Y82234D01*
X550297Y81593D01*
X549656Y80757D01*
X549253Y79784D01*
X549181Y79240D01*
X552650D01*
Y82709D01*
D02*
G37*
G36*
X553650D02*
Y79240D01*
X557118D01*
X557047Y79784D01*
X556644Y80757D01*
X556002Y81593D01*
X555167Y82234D01*
X554194Y82637D01*
X553650Y82709D01*
D02*
G37*
G36*
X333465Y98061D02*
X327953D01*
X327723Y97966D01*
X327628Y97736D01*
Y93996D01*
X327723Y93766D01*
X327953Y93671D01*
X333465D01*
X333694Y93766D01*
X333789Y93996D01*
Y97736D01*
X333694Y97966D01*
X333465Y98061D01*
D02*
G37*
G36*
X345669Y120207D02*
X341929D01*
X341700Y120112D01*
X341604Y119882D01*
Y114370D01*
X341700Y114140D01*
X341929Y114045D01*
X342984D01*
Y109885D01*
X340283Y107185D01*
X340247Y107213D01*
X339444Y107546D01*
X338583Y107659D01*
X337721Y107546D01*
X336918Y107213D01*
X336229Y106684D01*
X335700Y105995D01*
X335367Y105192D01*
X335254Y104331D01*
X335367Y103469D01*
X335700Y102667D01*
X336229Y101977D01*
X336918Y101448D01*
X337721Y101116D01*
X338583Y101002D01*
X339444Y101116D01*
X340247Y101448D01*
X340936Y101977D01*
X341465Y102667D01*
X341798Y103469D01*
X341911Y104331D01*
X341798Y105192D01*
X341465Y105995D01*
X341437Y106032D01*
X344376Y108970D01*
X344376Y108970D01*
X344553Y109235D01*
X344615Y109547D01*
X344615Y109547D01*
Y114045D01*
X345669D01*
X345899Y114140D01*
X345994Y114370D01*
Y119882D01*
X345899Y120112D01*
X345669Y120207D01*
D02*
G37*
G36*
X442126D02*
X438386D01*
X438156Y120112D01*
X438061Y119882D01*
Y114370D01*
X438156Y114140D01*
X438386Y114045D01*
X439440D01*
Y109885D01*
X436740Y107185D01*
X436704Y107213D01*
X435901Y107546D01*
X435039Y107659D01*
X434178Y107546D01*
X433375Y107213D01*
X432686Y106684D01*
X432157Y105995D01*
X431824Y105192D01*
X431711Y104331D01*
X431824Y103469D01*
X432157Y102667D01*
X432686Y101977D01*
X433375Y101448D01*
X434178Y101116D01*
X435039Y101002D01*
X435901Y101116D01*
X436704Y101448D01*
X437393Y101977D01*
X437922Y102667D01*
X438254Y103469D01*
X438368Y104331D01*
X438254Y105192D01*
X437922Y105995D01*
X437894Y106032D01*
X440833Y108970D01*
X440833Y108970D01*
X441010Y109235D01*
X441072Y109547D01*
X441072Y109547D01*
Y114045D01*
X442126D01*
X442356Y114140D01*
X442451Y114370D01*
Y119882D01*
X442356Y120112D01*
X442126Y120207D01*
D02*
G37*
G36*
X489370D02*
X485630D01*
X485400Y120112D01*
X485305Y119882D01*
Y114370D01*
X485400Y114140D01*
X485630Y114045D01*
X486684D01*
Y109885D01*
X483984Y107185D01*
X483948Y107213D01*
X483145Y107546D01*
X482283Y107659D01*
X481422Y107546D01*
X480619Y107213D01*
X479930Y106684D01*
X479401Y105995D01*
X479068Y105192D01*
X478955Y104331D01*
X479068Y103469D01*
X479401Y102667D01*
X479930Y101977D01*
X480619Y101448D01*
X481422Y101116D01*
X482283Y101002D01*
X483145Y101116D01*
X483948Y101448D01*
X484637Y101977D01*
X485166Y102667D01*
X485499Y103469D01*
X485612Y104331D01*
X485499Y105192D01*
X485166Y105995D01*
X485138Y106032D01*
X488077Y108970D01*
X488077Y108970D01*
X488254Y109235D01*
X488316Y109547D01*
X488316Y109547D01*
Y114045D01*
X489370D01*
X489600Y114140D01*
X489695Y114370D01*
Y119882D01*
X489600Y120112D01*
X489370Y120207D01*
D02*
G37*
G36*
X296457D02*
X292717D01*
X292487Y120112D01*
X292392Y119882D01*
Y114370D01*
X292487Y114140D01*
X292717Y114045D01*
X293771D01*
Y109885D01*
X291071Y107185D01*
X291034Y107213D01*
X290231Y107546D01*
X289370Y107659D01*
X288509Y107546D01*
X287706Y107213D01*
X287016Y106684D01*
X286487Y105995D01*
X286155Y105192D01*
X286041Y104331D01*
X286155Y103469D01*
X286487Y102667D01*
X287016Y101977D01*
X287706Y101448D01*
X288509Y101116D01*
X289370Y101002D01*
X290231Y101116D01*
X291034Y101448D01*
X291724Y101977D01*
X292253Y102667D01*
X292585Y103469D01*
X292699Y104331D01*
X292585Y105192D01*
X292253Y105995D01*
X292225Y106032D01*
X295163Y108970D01*
X295163Y108970D01*
X295340Y109235D01*
X295402Y109547D01*
X295402Y109547D01*
Y114045D01*
X296457D01*
X296686Y114140D01*
X296781Y114370D01*
Y119882D01*
X296686Y120112D01*
X296457Y120207D01*
D02*
G37*
G36*
X381102Y98061D02*
X375590D01*
X375361Y97966D01*
X375266Y97736D01*
Y93996D01*
X375361Y93766D01*
X375590Y93671D01*
X381102D01*
X381332Y93766D01*
X381427Y93996D01*
Y97736D01*
X381332Y97966D01*
X381102Y98061D01*
D02*
G37*
G36*
X429134D02*
X423622D01*
X423392Y97966D01*
X423297Y97736D01*
Y93996D01*
X423392Y93766D01*
X423622Y93671D01*
X429134D01*
X429363Y93766D01*
X429459Y93996D01*
Y97736D01*
X429363Y97966D01*
X429134Y98061D01*
D02*
G37*
G36*
X574016D02*
X568504D01*
X568274Y97966D01*
X568179Y97736D01*
Y93996D01*
X568274Y93766D01*
X568504Y93671D01*
X574016D01*
X574245Y93766D01*
X574340Y93996D01*
Y97736D01*
X574245Y97966D01*
X574016Y98061D01*
D02*
G37*
G36*
X264123Y82709D02*
X263579Y82637D01*
X262606Y82234D01*
X261770Y81593D01*
X261129Y80757D01*
X260726Y79784D01*
X260654Y79240D01*
X264123D01*
Y82709D01*
D02*
G37*
G36*
X265123D02*
Y79240D01*
X268592D01*
X268520Y79784D01*
X268117Y80757D01*
X267476Y81593D01*
X266640Y82234D01*
X265667Y82637D01*
X265123Y82709D01*
D02*
G37*
G36*
X312211D02*
X311667Y82637D01*
X310694Y82234D01*
X309858Y81593D01*
X309217Y80757D01*
X308814Y79784D01*
X308742Y79240D01*
X312211D01*
Y82709D01*
D02*
G37*
G36*
X217035D02*
Y79240D01*
X220504D01*
X220432Y79784D01*
X220029Y80757D01*
X219388Y81593D01*
X218553Y82234D01*
X217580Y82637D01*
X217035Y82709D01*
D02*
G37*
G36*
X522835Y90087D02*
X522522Y90025D01*
X522323Y89892D01*
X520079D01*
X519849Y89797D01*
X519754Y89567D01*
Y85827D01*
X519849Y85597D01*
X520079Y85502D01*
X521963D01*
Y81961D01*
X521917Y81955D01*
X521114Y81623D01*
X520425Y81094D01*
X519896Y80404D01*
X519563Y79602D01*
X519450Y78740D01*
X519563Y77879D01*
X519896Y77076D01*
X520425Y76387D01*
X521114Y75858D01*
X521917Y75525D01*
X522778Y75412D01*
X523640Y75525D01*
X524443Y75858D01*
X525132Y76387D01*
X525661Y77076D01*
X525993Y77879D01*
X526107Y78740D01*
X525993Y79602D01*
X525661Y80404D01*
X525132Y81094D01*
X524443Y81623D01*
X523640Y81955D01*
X523594Y81961D01*
Y85502D01*
X525591D01*
X525820Y85597D01*
X525915Y85827D01*
Y89567D01*
X525820Y89797D01*
X525591Y89892D01*
X523347D01*
X523147Y90025D01*
X522835Y90087D01*
D02*
G37*
G36*
X574016Y90777D02*
X568504D01*
X568274Y90682D01*
X568179Y90453D01*
Y86712D01*
X568274Y86483D01*
X568504Y86388D01*
X570050D01*
Y81961D01*
X570005Y81955D01*
X569202Y81623D01*
X568512Y81094D01*
X567983Y80404D01*
X567651Y79602D01*
X567537Y78740D01*
X567651Y77879D01*
X567983Y77076D01*
X568512Y76387D01*
X569202Y75858D01*
X570005Y75525D01*
X570866Y75412D01*
X571728Y75525D01*
X572530Y75858D01*
X573220Y76387D01*
X573748Y77076D01*
X574081Y77879D01*
X574194Y78740D01*
X574081Y79602D01*
X573748Y80404D01*
X573220Y81094D01*
X572530Y81623D01*
X571728Y81955D01*
X571682Y81961D01*
Y86388D01*
X574016D01*
X574245Y86483D01*
X574340Y86712D01*
Y90453D01*
X574245Y90682D01*
X574016Y90777D01*
D02*
G37*
G36*
X216035Y82709D02*
X215491Y82637D01*
X214518Y82234D01*
X213683Y81593D01*
X213041Y80757D01*
X212638Y79784D01*
X212567Y79240D01*
X216035D01*
Y82709D01*
D02*
G37*
G36*
X313211D02*
Y79240D01*
X316680D01*
X316608Y79784D01*
X316205Y80757D01*
X315564Y81593D01*
X314728Y82234D01*
X313755Y82637D01*
X313211Y82709D01*
D02*
G37*
G36*
X456474D02*
X455930Y82637D01*
X454957Y82234D01*
X454121Y81593D01*
X453480Y80757D01*
X453077Y79784D01*
X453005Y79240D01*
X456474D01*
Y82709D01*
D02*
G37*
G36*
X457474D02*
Y79240D01*
X460943D01*
X460871Y79784D01*
X460468Y80757D01*
X459827Y81593D01*
X458991Y82234D01*
X458018Y82637D01*
X457474Y82709D01*
D02*
G37*
G36*
X504562D02*
X504018Y82637D01*
X503045Y82234D01*
X502209Y81593D01*
X501568Y80757D01*
X501165Y79784D01*
X501093Y79240D01*
X504562D01*
Y82709D01*
D02*
G37*
G36*
X409386D02*
Y79240D01*
X412855D01*
X412783Y79784D01*
X412380Y80757D01*
X411739Y81593D01*
X410904Y82234D01*
X409931Y82637D01*
X409386Y82709D01*
D02*
G37*
G36*
X360299D02*
X359754Y82637D01*
X358781Y82234D01*
X357946Y81593D01*
X357305Y80757D01*
X356902Y79784D01*
X356830Y79240D01*
X360299D01*
Y82709D01*
D02*
G37*
G36*
X361299D02*
Y79240D01*
X364767D01*
X364696Y79784D01*
X364293Y80757D01*
X363651Y81593D01*
X362816Y82234D01*
X361843Y82637D01*
X361299Y82709D01*
D02*
G37*
G36*
X408386D02*
X407842Y82637D01*
X406869Y82234D01*
X406034Y81593D01*
X405392Y80757D01*
X404989Y79784D01*
X404918Y79240D01*
X408386D01*
Y82709D01*
D02*
G37*
G36*
X361606Y321098D02*
X360236D01*
X359846Y321021D01*
X359515Y320800D01*
X359294Y320469D01*
X359217Y320079D01*
Y317823D01*
X361606D01*
Y321098D01*
D02*
G37*
G36*
X363976D02*
X362606D01*
Y317823D01*
X364996D01*
Y320079D01*
X364918Y320469D01*
X364697Y320800D01*
X364367Y321021D01*
X363976Y321098D01*
D02*
G37*
G36*
X216929Y360809D02*
X216068Y360695D01*
X215265Y360363D01*
X214576Y359834D01*
X214047Y359144D01*
X213714Y358342D01*
X213601Y357480D01*
X213714Y356619D01*
X214047Y355816D01*
X214576Y355127D01*
X215265Y354598D01*
X216068Y354265D01*
X216212Y354246D01*
Y344813D01*
X215158D01*
X214928Y344718D01*
X214833Y344488D01*
Y338976D01*
X214928Y338747D01*
X215158Y338652D01*
X216113D01*
Y321191D01*
X214173D01*
X213944Y321096D01*
X213848Y320866D01*
Y317126D01*
X213944Y316897D01*
X214173Y316801D01*
X219685D01*
X219915Y316897D01*
X220010Y317126D01*
Y318279D01*
X233071D01*
X233071Y318279D01*
X233383Y318341D01*
X233648Y318518D01*
X236541Y321411D01*
X236541Y321411D01*
X236718Y321676D01*
X236780Y321988D01*
X236780Y321988D01*
Y323567D01*
X237032Y323735D01*
X237360Y324225D01*
X237475Y324803D01*
Y328150D01*
X237360Y328728D01*
X237032Y329217D01*
X236542Y329545D01*
X235964Y329660D01*
X235387Y329545D01*
X234897Y329217D01*
X234569Y328728D01*
X234454Y328150D01*
Y324803D01*
X234569Y324225D01*
X234897Y323735D01*
X235149Y323567D01*
Y322326D01*
X232733Y319910D01*
X220010D01*
Y320866D01*
X219915Y321096D01*
X219685Y321191D01*
X217745D01*
Y338652D01*
X218898D01*
X219127Y338747D01*
X219222Y338976D01*
Y344488D01*
X219127Y344718D01*
X218898Y344813D01*
X217843D01*
Y354287D01*
X218593Y354598D01*
X219283Y355127D01*
X219812Y355816D01*
X220144Y356619D01*
X220258Y357480D01*
X220144Y358342D01*
X219812Y359144D01*
X219283Y359834D01*
X218593Y360363D01*
X217791Y360695D01*
X216929Y360809D01*
D02*
G37*
G36*
X240965Y329660D02*
X240387Y329545D01*
X239897Y329217D01*
X239569Y328728D01*
X239454Y328150D01*
Y324803D01*
X239569Y324225D01*
X239897Y323735D01*
X240387Y323408D01*
X240965Y323293D01*
X241542Y323408D01*
X242032Y323735D01*
X242506Y323782D01*
X246526Y319762D01*
Y317027D01*
X246621Y316798D01*
X246850Y316703D01*
X249606D01*
X249836Y316798D01*
X249931Y317027D01*
Y320374D01*
X249836Y320604D01*
X249606Y320699D01*
X247896D01*
X242475Y326120D01*
Y328150D01*
X242360Y328728D01*
X242032Y329217D01*
X241542Y329545D01*
X240965Y329660D01*
D02*
G37*
G36*
X361606Y316823D02*
X359217D01*
Y314567D01*
X359294Y314177D01*
X359515Y313846D01*
X359846Y313625D01*
X360236Y313547D01*
X361606D01*
Y316823D01*
D02*
G37*
G36*
X207374Y318496D02*
X204099D01*
Y317126D01*
X204176Y316736D01*
X204397Y316405D01*
X204728Y316184D01*
X205118Y316107D01*
X207374D01*
Y318496D01*
D02*
G37*
G36*
X211649D02*
X208374D01*
Y316107D01*
X210630D01*
X211020Y316184D01*
X211351Y316405D01*
X211572Y316736D01*
X211649Y317126D01*
Y318496D01*
D02*
G37*
G36*
X207374Y321886D02*
X205118D01*
X204728Y321808D01*
X204397Y321587D01*
X204176Y321256D01*
X204099Y320866D01*
Y319496D01*
X207374D01*
Y321886D01*
D02*
G37*
G36*
X225465Y330274D02*
X225114Y330204D01*
X224392Y329722D01*
X223910Y329001D01*
X223741Y328150D01*
Y326976D01*
X225465D01*
Y330274D01*
D02*
G37*
G36*
X226465D02*
Y326976D01*
X228188D01*
Y328150D01*
X228019Y329001D01*
X227537Y329722D01*
X226816Y330204D01*
X226465Y330274D01*
D02*
G37*
G36*
X439370Y332805D02*
X433858D01*
X433629Y332710D01*
X433533Y332480D01*
Y331381D01*
X433448Y331364D01*
X433183Y331187D01*
X433183Y331187D01*
X430047Y328051D01*
X430011Y328080D01*
X429208Y328412D01*
X428346Y328525D01*
X427485Y328412D01*
X426682Y328080D01*
X425993Y327551D01*
X425464Y326861D01*
X425132Y326058D01*
X425018Y325197D01*
X425132Y324336D01*
X425464Y323533D01*
X425993Y322843D01*
X426682Y322314D01*
X427485Y321982D01*
X428346Y321868D01*
X429208Y321982D01*
X430011Y322314D01*
X430700Y322843D01*
X431229Y323533D01*
X431562Y324336D01*
X431675Y325197D01*
X431562Y326058D01*
X431229Y326861D01*
X431201Y326898D01*
X433072Y328768D01*
X433597Y328587D01*
X433629Y328511D01*
X433858Y328415D01*
X439370D01*
X439600Y328511D01*
X439695Y328740D01*
Y332480D01*
X439600Y332710D01*
X439370Y332805D01*
D02*
G37*
G36*
X233858Y337136D02*
X228346D01*
X228117Y337041D01*
X228022Y336811D01*
Y333071D01*
X228117Y332841D01*
X228346Y332746D01*
X230149D01*
Y329386D01*
X229897Y329217D01*
X229569Y328728D01*
X229454Y328150D01*
Y324803D01*
X229569Y324225D01*
X229897Y323735D01*
X230387Y323408D01*
X230964Y323293D01*
X231542Y323408D01*
X232032Y323735D01*
X232360Y324225D01*
X232475Y324803D01*
Y328150D01*
X232360Y328728D01*
X232032Y329217D01*
X231780Y329386D01*
Y332746D01*
X233858D01*
X234088Y332841D01*
X234183Y333071D01*
Y336811D01*
X234088Y337041D01*
X233858Y337136D01*
D02*
G37*
G36*
X210630Y321886D02*
X208374D01*
Y319496D01*
X211649D01*
Y320866D01*
X211572Y321256D01*
X211351Y321587D01*
X211020Y321808D01*
X210630Y321886D01*
D02*
G37*
G36*
X225465Y325976D02*
X223741D01*
Y324803D01*
X223910Y323952D01*
X224392Y323231D01*
X225114Y322749D01*
X225465Y322679D01*
Y325976D01*
D02*
G37*
G36*
X228188D02*
X226465D01*
Y322679D01*
X226816Y322749D01*
X227537Y323231D01*
X228019Y323952D01*
X228188Y324803D01*
Y325976D01*
D02*
G37*
G36*
X325878Y299008D02*
X322603D01*
Y297638D01*
X322680Y297248D01*
X322901Y296917D01*
X323232Y296696D01*
X323622Y296618D01*
X325878D01*
Y299008D01*
D02*
G37*
G36*
Y302397D02*
X323622D01*
X323232Y302320D01*
X322901Y302099D01*
X322680Y301768D01*
X322603Y301378D01*
Y300008D01*
X325878D01*
Y302397D01*
D02*
G37*
G36*
X503969Y305012D02*
X500500D01*
Y301543D01*
X501044Y301615D01*
X502017Y302018D01*
X502853Y302659D01*
X503494Y303495D01*
X503897Y304468D01*
X503969Y305012D01*
D02*
G37*
G36*
X256496Y298461D02*
X255421D01*
Y296563D01*
X257516D01*
Y297441D01*
X257438Y297831D01*
X257217Y298162D01*
X256886Y298383D01*
X256496Y298461D01*
D02*
G37*
G36*
X217118Y299445D02*
X215748D01*
X215358Y299367D01*
X215027Y299146D01*
X214806Y298815D01*
X214728Y298425D01*
Y296169D01*
X217118D01*
Y299445D01*
D02*
G37*
G36*
X219488D02*
X218118D01*
Y296169D01*
X220508D01*
Y298425D01*
X220430Y298815D01*
X220209Y299146D01*
X219878Y299367D01*
X219488Y299445D01*
D02*
G37*
G36*
X254421Y298461D02*
X253346D01*
X252956Y298383D01*
X252626Y298162D01*
X252404Y297831D01*
X252327Y297441D01*
Y296563D01*
X254421D01*
Y298461D01*
D02*
G37*
G36*
X499500Y305012D02*
X496031D01*
X496103Y304468D01*
X496506Y303495D01*
X497147Y302659D01*
X497983Y302018D01*
X498956Y301615D01*
X499500Y301543D01*
Y305012D01*
D02*
G37*
G36*
X500500Y309481D02*
Y306012D01*
X503969D01*
X503897Y306556D01*
X503494Y307529D01*
X502853Y308365D01*
X502017Y309006D01*
X501044Y309409D01*
X500500Y309481D01*
D02*
G37*
G36*
X249606Y314400D02*
X246850D01*
X246621Y314304D01*
X246526Y314075D01*
Y311734D01*
X242506Y307714D01*
X242032Y307761D01*
X241542Y308088D01*
X240965Y308203D01*
X240387Y308088D01*
X239897Y307761D01*
X239569Y307271D01*
X239454Y306693D01*
Y303346D01*
X239569Y302769D01*
X239897Y302279D01*
X240149Y302110D01*
Y297766D01*
X239567D01*
X239337Y297671D01*
X239242Y297441D01*
Y294685D01*
X239337Y294456D01*
X239567Y294360D01*
X241691D01*
X259463Y276589D01*
X259463Y276589D01*
X259727Y276412D01*
X260039Y276350D01*
X260039Y276350D01*
X261236D01*
X261454Y275823D01*
X261881Y275267D01*
X262437Y274840D01*
X263085Y274572D01*
X263779Y274480D01*
X264475Y274572D01*
X265122Y274840D01*
X265678Y275267D01*
X266105Y275823D01*
X266373Y276470D01*
X266465Y277165D01*
X266373Y277860D01*
X266105Y278508D01*
X265678Y279064D01*
X265122Y279491D01*
X264475Y279759D01*
X263779Y279851D01*
X263085Y279759D01*
X262437Y279491D01*
X261881Y279064D01*
X261454Y278508D01*
X261236Y277981D01*
X260377D01*
X243041Y295317D01*
Y297441D01*
X242946Y297671D01*
X242717Y297766D01*
X241780D01*
Y302110D01*
X242032Y302279D01*
X242360Y302769D01*
X242475Y303346D01*
Y305376D01*
X247502Y310404D01*
X249606D01*
X249836Y310499D01*
X249931Y310728D01*
Y314075D01*
X249836Y314304D01*
X249606Y314400D01*
D02*
G37*
G36*
X219685Y313907D02*
X214173D01*
X213944Y313812D01*
X213848Y313583D01*
Y312528D01*
X210955D01*
Y313583D01*
X210859Y313812D01*
X210630Y313907D01*
X205118D01*
X204888Y313812D01*
X204793Y313583D01*
Y309842D01*
X204888Y309613D01*
X205118Y309518D01*
X210630D01*
X210859Y309613D01*
X210955Y309842D01*
Y310897D01*
X213848D01*
Y309842D01*
X213944Y309613D01*
X214173Y309518D01*
X219685D01*
X219915Y309613D01*
X220010Y309842D01*
Y310995D01*
X233127D01*
X235149Y308973D01*
Y307929D01*
X234897Y307761D01*
X234569Y307271D01*
X234454Y306693D01*
Y303346D01*
X234569Y302769D01*
X234897Y302279D01*
X235387Y301951D01*
X235964Y301836D01*
X236542Y301951D01*
X237032Y302279D01*
X237360Y302769D01*
X237475Y303346D01*
Y306693D01*
X237360Y307271D01*
X237032Y307761D01*
X236780Y307929D01*
Y309311D01*
X236718Y309623D01*
X236541Y309888D01*
X236541Y309888D01*
X234041Y312388D01*
X233777Y312564D01*
X233465Y312627D01*
X233465Y312627D01*
X220010D01*
Y313583D01*
X219915Y313812D01*
X219685Y313907D01*
D02*
G37*
G36*
X499500Y309481D02*
X498956Y309409D01*
X497983Y309006D01*
X497147Y308365D01*
X496506Y307529D01*
X496103Y306556D01*
X496031Y306012D01*
X499500D01*
Y309481D01*
D02*
G37*
G36*
X394327Y304717D02*
X391051D01*
Y302327D01*
X393307D01*
X393697Y302405D01*
X394028Y302626D01*
X394249Y302956D01*
X394327Y303347D01*
Y304717D01*
D02*
G37*
G36*
X390051Y308106D02*
X387795D01*
X387405Y308029D01*
X387074Y307808D01*
X386853Y307477D01*
X386776Y307087D01*
Y305717D01*
X390051D01*
Y308106D01*
D02*
G37*
G36*
X393307D02*
X391051D01*
Y305717D01*
X394327D01*
Y307087D01*
X394249Y307477D01*
X394028Y307808D01*
X393697Y308029D01*
X393307Y308106D01*
D02*
G37*
G36*
X307669Y336508D02*
X305280D01*
Y334252D01*
X305357Y333862D01*
X305578Y333531D01*
X305909Y333310D01*
X306299Y333232D01*
X307669D01*
Y336508D01*
D02*
G37*
G36*
X211614Y345508D02*
X210244D01*
Y342232D01*
X212634D01*
Y344488D01*
X212556Y344878D01*
X212335Y345209D01*
X212004Y345430D01*
X211614Y345508D01*
D02*
G37*
G36*
X230602Y345114D02*
X228346D01*
X227956Y345036D01*
X227625Y344815D01*
X227404Y344485D01*
X227327Y344094D01*
Y342724D01*
X230602D01*
Y345114D01*
D02*
G37*
G36*
X233858D02*
X231602D01*
Y342724D01*
X234878D01*
Y344094D01*
X234800Y344485D01*
X234579Y344815D01*
X234248Y345036D01*
X233858Y345114D01*
D02*
G37*
G36*
X209244Y345508D02*
X207874D01*
X207484Y345430D01*
X207153Y345209D01*
X206932Y344878D01*
X206854Y344488D01*
Y342232D01*
X209244D01*
Y345508D01*
D02*
G37*
G36*
X402256Y342413D02*
X398787D01*
X398859Y341869D01*
X399262Y340896D01*
X399903Y340060D01*
X400739Y339419D01*
X401712Y339016D01*
X402256Y338945D01*
Y342413D01*
D02*
G37*
G36*
X230602Y341724D02*
X227327D01*
Y340354D01*
X227404Y339964D01*
X227625Y339633D01*
X227956Y339412D01*
X228346Y339335D01*
X230602D01*
Y341724D01*
D02*
G37*
G36*
X234878D02*
X231602D01*
Y339335D01*
X233858D01*
X234248Y339412D01*
X234579Y339633D01*
X234800Y339964D01*
X234878Y340354D01*
Y341724D01*
D02*
G37*
G36*
X402256Y346882D02*
X401712Y346810D01*
X400739Y346407D01*
X399903Y345766D01*
X399262Y344931D01*
X398859Y343957D01*
X398787Y343413D01*
X402256D01*
Y346882D01*
D02*
G37*
G36*
X235071Y350681D02*
X231602D01*
Y347212D01*
X232147Y347284D01*
X233120Y347687D01*
X233955Y348328D01*
X234596Y349164D01*
X234999Y350137D01*
X235071Y350681D01*
D02*
G37*
G36*
X230602Y355150D02*
X230058Y355078D01*
X229085Y354675D01*
X228250Y354034D01*
X227608Y353198D01*
X227205Y352225D01*
X227134Y351681D01*
X230602D01*
Y355150D01*
D02*
G37*
G36*
X231602D02*
Y351681D01*
X235071D01*
X234999Y352225D01*
X234596Y353198D01*
X233955Y354034D01*
X233120Y354675D01*
X232147Y355078D01*
X231602Y355150D01*
D02*
G37*
G36*
X230602Y350681D02*
X227134D01*
X227205Y350137D01*
X227608Y349164D01*
X228250Y348328D01*
X229085Y347687D01*
X230058Y347284D01*
X230602Y347212D01*
Y350681D01*
D02*
G37*
G36*
X403256Y346882D02*
Y343413D01*
X406725D01*
X406653Y343957D01*
X406250Y344931D01*
X405609Y345766D01*
X404773Y346407D01*
X403800Y346810D01*
X403256Y346882D01*
D02*
G37*
G36*
X427847D02*
X427302Y346810D01*
X426329Y346407D01*
X425494Y345766D01*
X424853Y344931D01*
X424449Y343957D01*
X424378Y343413D01*
X427847D01*
Y346882D01*
D02*
G37*
G36*
X428847Y346882D02*
Y343413D01*
X432315D01*
X432244Y343957D01*
X431841Y344931D01*
X431199Y345766D01*
X430364Y346407D01*
X429391Y346810D01*
X428847Y346882D01*
D02*
G37*
G36*
X440390Y337394D02*
X437114D01*
Y335004D01*
X439370D01*
X439760Y335082D01*
X440091Y335303D01*
X440312Y335633D01*
X440390Y336024D01*
Y337394D01*
D02*
G37*
G36*
X387394Y340783D02*
X386024D01*
X385633Y340706D01*
X385303Y340485D01*
X385082Y340154D01*
X385004Y339764D01*
Y337508D01*
X387394D01*
Y340783D01*
D02*
G37*
G36*
X389764D02*
X388394D01*
Y337508D01*
X390783D01*
Y339764D01*
X390706Y340154D01*
X390485Y340485D01*
X390154Y340706D01*
X389764Y340783D01*
D02*
G37*
G36*
X432315Y342413D02*
X428847D01*
Y338945D01*
X429391Y339016D01*
X430364Y339419D01*
X430547Y339560D01*
X432789Y337317D01*
X432789Y337317D01*
X432839Y337284D01*
Y336024D01*
X432916Y335633D01*
X433137Y335303D01*
X433468Y335082D01*
X433858Y335004D01*
X436114D01*
Y337894D01*
Y340783D01*
X433858D01*
X433468Y340706D01*
X433137Y340485D01*
X432936Y340184D01*
X432899Y340150D01*
X432382Y340031D01*
X431700Y340713D01*
X431841Y340896D01*
X432244Y341869D01*
X432315Y342413D01*
D02*
G37*
G36*
X311059Y336508D02*
X308669D01*
Y333232D01*
X310039D01*
X310430Y333310D01*
X310760Y333531D01*
X310981Y333862D01*
X311059Y334252D01*
Y336508D01*
D02*
G37*
G36*
X387394Y336508D02*
X385004D01*
Y334252D01*
X385082Y333862D01*
X385303Y333531D01*
X385633Y333310D01*
X386024Y333232D01*
X387394D01*
Y336508D01*
D02*
G37*
G36*
X390783D02*
X388394D01*
Y333232D01*
X389764D01*
X390154Y333310D01*
X390485Y333531D01*
X390706Y333862D01*
X390783Y334252D01*
Y336508D01*
D02*
G37*
G36*
X307669Y340783D02*
X306299D01*
X305909Y340706D01*
X305578Y340485D01*
X305357Y340154D01*
X305280Y339764D01*
Y337508D01*
X307669D01*
Y340783D01*
D02*
G37*
G36*
X439370Y340783D02*
X437114D01*
Y338394D01*
X440390D01*
Y339764D01*
X440312Y340154D01*
X440091Y340485D01*
X439760Y340706D01*
X439370Y340783D01*
D02*
G37*
G36*
X427847Y342413D02*
X424378D01*
X424449Y341869D01*
X424853Y340896D01*
X425494Y340060D01*
X426329Y339419D01*
X427302Y339016D01*
X427847Y338945D01*
Y342413D01*
D02*
G37*
G36*
X406725Y342413D02*
X403256D01*
Y338945D01*
X403800Y339016D01*
X404773Y339419D01*
X405609Y340060D01*
X406250Y340896D01*
X406653Y341869D01*
X406725Y342413D01*
D02*
G37*
G36*
X212634Y341232D02*
X210244D01*
Y337957D01*
X211614D01*
X212004Y338034D01*
X212335Y338255D01*
X212556Y338586D01*
X212634Y338976D01*
Y341232D01*
D02*
G37*
G36*
X310039Y340783D02*
X308669D01*
Y337508D01*
X311059D01*
Y339764D01*
X310981Y340154D01*
X310760Y340485D01*
X310430Y340706D01*
X310039Y340783D01*
D02*
G37*
G36*
X382480Y340089D02*
X378740D01*
X378511Y339993D01*
X378415Y339764D01*
Y337824D01*
X374439D01*
Y338780D01*
X374344Y339009D01*
X374114Y339104D01*
X355414D01*
X355184Y339009D01*
X355089Y338780D01*
Y335236D01*
X355184Y335007D01*
X355414Y334912D01*
X360861D01*
X361052Y334450D01*
X348439Y321837D01*
X348300Y321628D01*
X348031Y321598D01*
X347763Y321628D01*
X347624Y321837D01*
X347624Y321837D01*
X335011Y334450D01*
X335202Y334912D01*
X340650D01*
X340879Y335007D01*
X340974Y335236D01*
Y338780D01*
X340879Y339009D01*
X340650Y339104D01*
X321949D01*
X321719Y339009D01*
X321624Y338780D01*
Y337824D01*
X317648D01*
Y339764D01*
X317552Y339993D01*
X317323Y340089D01*
X313583D01*
X313353Y339993D01*
X313258Y339764D01*
Y334252D01*
X313353Y334022D01*
X313583Y333927D01*
X317323D01*
X317552Y334022D01*
X317648Y334252D01*
Y336192D01*
X321624D01*
Y335236D01*
X321719Y335007D01*
X321949Y334912D01*
X332242D01*
X346232Y320922D01*
Y312164D01*
X345731Y311913D01*
X345669Y311939D01*
X344488D01*
X344259Y311844D01*
X343930D01*
X343701Y311939D01*
X342520D01*
X342290Y311844D01*
X342195Y311614D01*
Y306102D01*
X342290Y305873D01*
X342520Y305778D01*
X343701D01*
X343930Y305873D01*
X344259D01*
X344488Y305778D01*
X345669D01*
X345899Y305873D01*
X346227D01*
X346457Y305778D01*
X347638D01*
X347867Y305873D01*
X348196D01*
X348425Y305778D01*
X349606D01*
X349836Y305873D01*
X350164D01*
X350394Y305778D01*
X351575D01*
X351804Y305873D01*
X352133D01*
X352362Y305778D01*
X353543D01*
X353773Y305873D01*
X354101D01*
X354331Y305778D01*
X355512D01*
X355742Y305873D01*
X356070D01*
X356299Y305778D01*
X357480D01*
X357710Y305873D01*
X358038D01*
X358268Y305778D01*
X359449D01*
X359679Y305873D01*
X360007D01*
X360236Y305778D01*
X361417D01*
X361647Y305873D01*
X361975D01*
X362205Y305778D01*
X363218D01*
X363231Y305712D01*
X363452Y305381D01*
X363783Y305160D01*
X364173Y305083D01*
X364264D01*
Y308858D01*
X365264D01*
Y305083D01*
X365354D01*
X365417Y305095D01*
X365917Y304720D01*
Y295417D01*
X358171Y287671D01*
X357874Y287731D01*
X357577Y287671D01*
X343490Y301758D01*
X343226Y301935D01*
X342914Y301997D01*
X342913Y301997D01*
X338421D01*
X338419Y302001D01*
X338189Y302096D01*
X332677D01*
X332448Y302001D01*
X332058Y302265D01*
X329442Y304881D01*
X329459Y304921D01*
Y308662D01*
X329363Y308891D01*
X329134Y308986D01*
X323622D01*
X323393Y308891D01*
X323297Y308662D01*
Y304921D01*
X323393Y304692D01*
X323622Y304597D01*
X327419D01*
X329118Y302898D01*
X328911Y302397D01*
X326878D01*
Y299508D01*
Y296618D01*
X329134D01*
X329524Y296696D01*
X329855Y296917D01*
X330076Y297248D01*
X330153Y297638D01*
Y298397D01*
X331702D01*
X331735Y298232D01*
X331956Y297901D01*
X332287Y297680D01*
X332352Y297667D01*
Y296654D01*
X332448Y296424D01*
Y296096D01*
X332352Y295866D01*
Y294685D01*
X332378Y294623D01*
X332127Y294123D01*
X329459D01*
Y294882D01*
X329363Y295112D01*
X329134Y295207D01*
X323622D01*
X323393Y295112D01*
X323297Y294882D01*
Y291142D01*
X323393Y290912D01*
X323622Y290817D01*
X329134D01*
X329363Y290912D01*
X329459Y291142D01*
Y292491D01*
X332127D01*
X332378Y291991D01*
X332352Y291929D01*
Y290748D01*
X332448Y290518D01*
Y290190D01*
X332352Y289961D01*
Y288779D01*
X332448Y288550D01*
Y288222D01*
X332352Y287992D01*
Y286811D01*
X332448Y286581D01*
Y286253D01*
X332352Y286024D01*
Y284842D01*
X332448Y284613D01*
Y284285D01*
X332352Y284055D01*
Y282874D01*
X332448Y282645D01*
Y282316D01*
X332352Y282087D01*
Y280906D01*
X332448Y280676D01*
Y280348D01*
X332352Y280118D01*
Y278937D01*
X332448Y278708D01*
Y278379D01*
X332352Y278150D01*
Y276969D01*
X332448Y276739D01*
Y276411D01*
X332352Y276181D01*
Y275000D01*
X332448Y274770D01*
Y274442D01*
X332352Y274213D01*
Y273031D01*
X332378Y272969D01*
X332127Y272469D01*
X313457D01*
X313451Y272515D01*
X313119Y273318D01*
X312590Y274007D01*
X311900Y274536D01*
X311098Y274869D01*
X310236Y274982D01*
X309375Y274869D01*
X308572Y274536D01*
X307883Y274007D01*
X307354Y273318D01*
X307021Y272515D01*
X306908Y271654D01*
X307021Y270792D01*
X307354Y269989D01*
X307883Y269300D01*
X308572Y268771D01*
X309375Y268439D01*
X310236Y268325D01*
X311098Y268439D01*
X311900Y268771D01*
X312590Y269300D01*
X313119Y269989D01*
X313451Y270792D01*
X313457Y270838D01*
X332446D01*
X332448Y270833D01*
X332677Y270738D01*
X338189D01*
X338419Y270833D01*
X338514Y271063D01*
Y272244D01*
X338419Y272474D01*
Y272802D01*
X338514Y273031D01*
Y274213D01*
X338419Y274442D01*
Y274770D01*
X338514Y275000D01*
Y276181D01*
X338419Y276411D01*
Y276739D01*
X338514Y276969D01*
Y278150D01*
X338419Y278379D01*
Y278708D01*
X338514Y278937D01*
Y280118D01*
X338419Y280348D01*
Y280676D01*
X338514Y280906D01*
Y282087D01*
X338419Y282316D01*
Y282645D01*
X338514Y282874D01*
Y284055D01*
X338419Y284285D01*
Y284613D01*
X338514Y284842D01*
Y286024D01*
X338419Y286253D01*
Y286581D01*
X338514Y286811D01*
Y287992D01*
X338419Y288222D01*
Y288550D01*
X338514Y288779D01*
Y289961D01*
X338419Y290190D01*
Y290518D01*
X338514Y290748D01*
Y291929D01*
X338419Y292159D01*
Y292487D01*
X338514Y292717D01*
Y293898D01*
X338419Y294127D01*
Y294456D01*
X338514Y294685D01*
Y295866D01*
X338419Y296096D01*
Y296424D01*
X338514Y296654D01*
Y297667D01*
X338579Y297680D01*
X338910Y297901D01*
X339131Y298232D01*
X339209Y298622D01*
Y298713D01*
X335433D01*
Y299713D01*
X339209D01*
Y299803D01*
X339196Y299865D01*
X339572Y300365D01*
X342576D01*
X356423Y286518D01*
X356364Y286221D01*
X356423Y285923D01*
X342533Y272033D01*
X342357Y271769D01*
X342295Y271457D01*
X342295Y271457D01*
Y266964D01*
X342290Y266962D01*
X342195Y266732D01*
Y264792D01*
X341043D01*
X341043Y264792D01*
X340731Y264730D01*
X340467Y264553D01*
X334489Y258576D01*
X334449Y258592D01*
X330709D01*
X330479Y258497D01*
X330384Y258268D01*
Y252756D01*
X330479Y252526D01*
X330709Y252431D01*
X334449D01*
X334678Y252526D01*
X334773Y252756D01*
Y256553D01*
X336473Y258252D01*
X336973Y258045D01*
Y256012D01*
X339862D01*
X342752D01*
Y257248D01*
X345655Y260152D01*
X346108Y259931D01*
X346232Y259838D01*
Y252503D01*
X342969Y249241D01*
X323802D01*
X313091Y259953D01*
X313119Y259989D01*
X313451Y260792D01*
X313565Y261653D01*
X313451Y262515D01*
X313119Y263318D01*
X312590Y264007D01*
X311900Y264536D01*
X311098Y264869D01*
X310236Y264982D01*
X309375Y264869D01*
X308572Y264536D01*
X307883Y264007D01*
X307354Y263318D01*
X307021Y262515D01*
X306908Y261653D01*
X307021Y260792D01*
X307354Y259989D01*
X307883Y259300D01*
X308572Y258771D01*
X309375Y258438D01*
X310236Y258325D01*
X311098Y258438D01*
X311900Y258771D01*
X311937Y258799D01*
X322888Y247849D01*
X322888Y247848D01*
X323152Y247672D01*
X323465Y247609D01*
X323465Y247609D01*
X342752D01*
X342959Y247110D01*
X340366Y244516D01*
X285827D01*
X285827Y244516D01*
X285515Y244454D01*
X285250Y244278D01*
X224226Y183254D01*
X224050Y182989D01*
X223988Y182677D01*
X223988Y182677D01*
Y70177D01*
X223988Y70177D01*
X224050Y69865D01*
X224226Y69600D01*
X226841Y66986D01*
Y63189D01*
X226936Y62959D01*
X227165Y62864D01*
X228220D01*
Y58366D01*
X228220Y58366D01*
X228282Y58054D01*
X228459Y57789D01*
X231398Y54851D01*
X231369Y54814D01*
X231037Y54011D01*
X230924Y53150D01*
X231037Y52288D01*
X231369Y51485D01*
X231898Y50796D01*
X232588Y50267D01*
X233390Y49935D01*
X234252Y49821D01*
X235114Y49935D01*
X235916Y50267D01*
X236606Y50796D01*
X237135Y51485D01*
X237467Y52288D01*
X237580Y53150D01*
X237467Y54011D01*
X237135Y54814D01*
X236606Y55503D01*
X235916Y56032D01*
X235114Y56365D01*
X234252Y56478D01*
X233390Y56365D01*
X232588Y56032D01*
X232551Y56004D01*
X229851Y58704D01*
Y62864D01*
X230906D01*
X231135Y62959D01*
X231230Y63189D01*
Y68701D01*
X231135Y68930D01*
X230906Y69025D01*
X227165D01*
X227125Y69009D01*
X225619Y70515D01*
Y182339D01*
X286165Y242885D01*
X340237D01*
X340444Y242385D01*
X336276Y238217D01*
X320079D01*
X319767Y238155D01*
X319502Y237978D01*
X319502Y237978D01*
X276546Y195023D01*
X276370Y194758D01*
X276308Y194446D01*
X276308Y194446D01*
Y69025D01*
X275253D01*
X275024Y68930D01*
X274928Y68701D01*
Y63189D01*
X275024Y62959D01*
X275253Y62864D01*
X276308D01*
Y58366D01*
X276308Y58366D01*
X276370Y58054D01*
X276546Y57789D01*
X279485Y54851D01*
X279457Y54814D01*
X279125Y54011D01*
X279011Y53150D01*
X279125Y52288D01*
X279457Y51485D01*
X279986Y50796D01*
X280676Y50267D01*
X281478Y49935D01*
X282340Y49821D01*
X283201Y49935D01*
X284004Y50267D01*
X284693Y50796D01*
X285222Y51485D01*
X285555Y52288D01*
X285668Y53150D01*
X285555Y54011D01*
X285222Y54814D01*
X284693Y55503D01*
X284004Y56032D01*
X283201Y56365D01*
X282340Y56478D01*
X281478Y56365D01*
X280676Y56032D01*
X280639Y56004D01*
X277939Y58704D01*
Y62864D01*
X278993D01*
X279223Y62959D01*
X279318Y63189D01*
Y68701D01*
X279223Y68930D01*
X278993Y69025D01*
X277939D01*
Y194108D01*
X320417Y236586D01*
X336614D01*
X336614Y236586D01*
X336926Y236648D01*
X337191Y236825D01*
X351561Y251195D01*
X351561Y251195D01*
X351637Y251309D01*
X352137Y251157D01*
Y228368D01*
X301293Y177524D01*
X301116Y177259D01*
X301054Y176947D01*
X301054Y176947D01*
Y120207D01*
X300000D01*
X299770Y120112D01*
X299675Y119882D01*
Y114370D01*
X299770Y114140D01*
X300000Y114045D01*
X301054D01*
Y109547D01*
X301054Y109547D01*
X301116Y109235D01*
X301293Y108970D01*
X301293Y108970D01*
X304232Y106032D01*
X304204Y105995D01*
X303871Y105192D01*
X303758Y104331D01*
X303871Y103469D01*
X304204Y102667D01*
X304733Y101977D01*
X305422Y101448D01*
X306225Y101116D01*
X307087Y101002D01*
X307948Y101116D01*
X308751Y101448D01*
X309440Y101977D01*
X309969Y102667D01*
X310302Y103469D01*
X310415Y104331D01*
X310302Y105192D01*
X309969Y105995D01*
X309440Y106684D01*
X308751Y107213D01*
X307948Y107546D01*
X307087Y107659D01*
X306225Y107546D01*
X305422Y107213D01*
X305386Y107185D01*
X302686Y109885D01*
Y114045D01*
X303740D01*
X303970Y114140D01*
X304065Y114370D01*
Y119882D01*
X303970Y120112D01*
X303740Y120207D01*
X302686D01*
Y176609D01*
X353530Y227453D01*
X353530Y227453D01*
X354028Y227321D01*
X354106Y227267D01*
Y209590D01*
X324634Y180118D01*
X324457Y179854D01*
X324395Y179542D01*
X324395Y179542D01*
Y69025D01*
X323341D01*
X323111Y68930D01*
X323016Y68701D01*
Y63189D01*
X323111Y62959D01*
X323341Y62864D01*
X324395D01*
Y58366D01*
X324395Y58366D01*
X324457Y58054D01*
X324634Y57789D01*
X327573Y54851D01*
X327545Y54814D01*
X327212Y54011D01*
X327099Y53150D01*
X327212Y52288D01*
X327545Y51485D01*
X328074Y50796D01*
X328763Y50267D01*
X329566Y49935D01*
X330427Y49821D01*
X331289Y49935D01*
X332092Y50267D01*
X332781Y50796D01*
X333310Y51485D01*
X333643Y52288D01*
X333756Y53150D01*
X333643Y54011D01*
X333310Y54814D01*
X332781Y55503D01*
X332092Y56032D01*
X331289Y56365D01*
X330427Y56478D01*
X329566Y56365D01*
X328763Y56032D01*
X328727Y56004D01*
X326027Y58704D01*
Y62864D01*
X327081D01*
X327310Y62959D01*
X327406Y63189D01*
Y68701D01*
X327310Y68930D01*
X327081Y69025D01*
X326027D01*
Y179204D01*
X355498Y208675D01*
X355498Y208675D01*
X355574Y208789D01*
X356074Y208637D01*
Y203291D01*
X350506Y197722D01*
X350329Y197458D01*
X350267Y197146D01*
X350267Y197145D01*
Y120207D01*
X349213D01*
X348983Y120112D01*
X348888Y119882D01*
Y114370D01*
X348983Y114140D01*
X349213Y114045D01*
X350267D01*
Y109547D01*
X350267Y109547D01*
X350329Y109235D01*
X350506Y108970D01*
X350506Y108970D01*
X353445Y106032D01*
X353417Y105995D01*
X353084Y105192D01*
X352971Y104331D01*
X353084Y103469D01*
X353417Y102667D01*
X353946Y101977D01*
X354635Y101448D01*
X355438Y101116D01*
X356299Y101002D01*
X357161Y101116D01*
X357963Y101448D01*
X358653Y101977D01*
X359182Y102667D01*
X359514Y103469D01*
X359628Y104331D01*
X359514Y105192D01*
X359182Y105995D01*
X358653Y106684D01*
X357963Y107213D01*
X357161Y107546D01*
X356299Y107659D01*
X355438Y107546D01*
X354635Y107213D01*
X354598Y107185D01*
X351898Y109885D01*
Y114045D01*
X352953D01*
X353182Y114140D01*
X353277Y114370D01*
Y119882D01*
X353182Y120112D01*
X352953Y120207D01*
X351898D01*
Y196808D01*
X357467Y202376D01*
X357467Y202376D01*
X357606Y202585D01*
X357874Y202615D01*
X358142Y202585D01*
X358282Y202376D01*
X372483Y188175D01*
Y69025D01*
X371428D01*
X371199Y68930D01*
X371104Y68701D01*
Y63189D01*
X371199Y62959D01*
X371428Y62864D01*
X372483D01*
Y58366D01*
X372483Y58366D01*
X372545Y58054D01*
X372722Y57789D01*
X375661Y54851D01*
X375633Y54814D01*
X375300Y54011D01*
X375187Y53150D01*
X375300Y52288D01*
X375633Y51485D01*
X376162Y50796D01*
X376851Y50267D01*
X377654Y49935D01*
X378515Y49821D01*
X379377Y49935D01*
X380179Y50267D01*
X380869Y50796D01*
X381398Y51485D01*
X381730Y52288D01*
X381844Y53150D01*
X381730Y54011D01*
X381398Y54814D01*
X380869Y55503D01*
X380179Y56032D01*
X379377Y56365D01*
X378515Y56478D01*
X377654Y56365D01*
X376851Y56032D01*
X376814Y56004D01*
X374114Y58704D01*
Y62864D01*
X375169D01*
X375398Y62959D01*
X375493Y63189D01*
Y68701D01*
X375398Y68930D01*
X375169Y69025D01*
X374114D01*
Y188512D01*
X374052Y188825D01*
X373875Y189089D01*
X373875Y189089D01*
X359674Y203291D01*
Y204700D01*
X360174Y204852D01*
X360250Y204738D01*
X370683Y194305D01*
X370683Y194305D01*
X370948Y194128D01*
X371260Y194066D01*
X371260Y194066D01*
X411079D01*
X420936Y184209D01*
Y69025D01*
X419882D01*
X419652Y68930D01*
X419557Y68701D01*
Y63189D01*
X419652Y62959D01*
X419882Y62864D01*
X420936D01*
Y58001D01*
X420936Y58001D01*
X420998Y57688D01*
X421175Y57424D01*
X421175Y57424D01*
X423748Y54851D01*
X423720Y54814D01*
X423388Y54011D01*
X423274Y53150D01*
X423388Y52288D01*
X423720Y51485D01*
X424249Y50796D01*
X424939Y50267D01*
X425741Y49935D01*
X426603Y49821D01*
X427464Y49935D01*
X428267Y50267D01*
X428956Y50796D01*
X429485Y51485D01*
X429818Y52288D01*
X429931Y53150D01*
X429818Y54011D01*
X429485Y54814D01*
X428956Y55503D01*
X428267Y56032D01*
X427464Y56365D01*
X426603Y56478D01*
X425741Y56365D01*
X424939Y56032D01*
X424902Y56004D01*
X422568Y58338D01*
Y62864D01*
X423622D01*
X423852Y62959D01*
X423947Y63189D01*
Y68701D01*
X423852Y68930D01*
X423622Y69025D01*
X422568D01*
Y184547D01*
X422506Y184859D01*
X422329Y185124D01*
X422329Y185124D01*
X411994Y195459D01*
X411729Y195635D01*
X411417Y195698D01*
X411417Y195698D01*
X371598D01*
X361642Y205653D01*
Y206669D01*
X362142Y206821D01*
X362219Y206707D01*
X371470Y197455D01*
X371470Y197455D01*
X371735Y197278D01*
X372047Y197216D01*
X435883D01*
X446724Y186375D01*
Y120207D01*
X445669D01*
X445440Y120112D01*
X445345Y119882D01*
Y114370D01*
X445440Y114140D01*
X445669Y114045D01*
X446724D01*
Y109547D01*
X446724Y109547D01*
X446786Y109235D01*
X446963Y108970D01*
X446963Y108970D01*
X449901Y106032D01*
X449873Y105995D01*
X449541Y105192D01*
X449428Y104331D01*
X449541Y103469D01*
X449873Y102667D01*
X450402Y101977D01*
X451092Y101448D01*
X451895Y101116D01*
X452756Y101002D01*
X453617Y101116D01*
X454420Y101448D01*
X455110Y101977D01*
X455639Y102667D01*
X455971Y103469D01*
X456084Y104331D01*
X455971Y105192D01*
X455639Y105995D01*
X455110Y106684D01*
X454420Y107213D01*
X453617Y107546D01*
X452756Y107659D01*
X451895Y107546D01*
X451092Y107213D01*
X451055Y107185D01*
X448355Y109885D01*
Y114045D01*
X449409D01*
X449639Y114140D01*
X449734Y114370D01*
Y119882D01*
X449639Y120112D01*
X449409Y120207D01*
X448355D01*
Y186713D01*
X448293Y187025D01*
X448116Y187289D01*
X448116Y187289D01*
X436797Y198608D01*
X436533Y198785D01*
X436221Y198847D01*
X436220Y198847D01*
X372385D01*
X363611Y207621D01*
Y208243D01*
X364111Y208395D01*
X364187Y208281D01*
X372258Y200211D01*
X372258Y200211D01*
X372522Y200034D01*
X372835Y199972D01*
X372835Y199972D01*
X458323D01*
X468658Y189637D01*
Y69616D01*
X467604D01*
X467374Y69521D01*
X467279Y69291D01*
Y63779D01*
X467374Y63550D01*
X467604Y63455D01*
X468658D01*
Y58366D01*
X468658Y58366D01*
X468720Y58054D01*
X468897Y57789D01*
X471836Y54851D01*
X471808Y54814D01*
X471476Y54011D01*
X471362Y53150D01*
X471476Y52288D01*
X471808Y51485D01*
X472337Y50796D01*
X473026Y50267D01*
X473829Y49935D01*
X474691Y49821D01*
X475552Y49935D01*
X476355Y50267D01*
X477044Y50796D01*
X477573Y51485D01*
X477906Y52288D01*
X478019Y53150D01*
X477906Y54011D01*
X477573Y54814D01*
X477044Y55503D01*
X476355Y56032D01*
X475552Y56365D01*
X474691Y56478D01*
X473829Y56365D01*
X473026Y56032D01*
X472990Y56004D01*
X470290Y58704D01*
Y63455D01*
X471344D01*
X471574Y63550D01*
X471669Y63779D01*
Y69291D01*
X471574Y69521D01*
X471344Y69616D01*
X470290D01*
Y189975D01*
X470290Y189975D01*
X470228Y190287D01*
X470051Y190552D01*
X470051Y190552D01*
X459238Y201364D01*
X458974Y201541D01*
X458661Y201603D01*
X458661Y201603D01*
X373172D01*
X365805Y208971D01*
X365832Y209079D01*
X366386Y209232D01*
X372652Y202967D01*
X372652Y202966D01*
X372916Y202790D01*
X373228Y202728D01*
X373228Y202728D01*
X459898D01*
X493968Y168658D01*
Y120207D01*
X492913D01*
X492684Y120112D01*
X492589Y119882D01*
Y114370D01*
X492684Y114140D01*
X492913Y114045D01*
X493968D01*
Y109547D01*
X493968Y109547D01*
X494030Y109235D01*
X494207Y108970D01*
X494207Y108970D01*
X497146Y106032D01*
X497118Y105995D01*
X496785Y105192D01*
X496671Y104331D01*
X496785Y103469D01*
X497118Y102667D01*
X497646Y101977D01*
X498336Y101448D01*
X499138Y101116D01*
X500000Y101002D01*
X500862Y101116D01*
X501664Y101448D01*
X502354Y101977D01*
X502882Y102667D01*
X503215Y103469D01*
X503329Y104331D01*
X503215Y105192D01*
X502882Y105995D01*
X502354Y106684D01*
X501664Y107213D01*
X500862Y107546D01*
X500000Y107659D01*
X499138Y107546D01*
X498336Y107213D01*
X498299Y107185D01*
X495599Y109885D01*
Y114045D01*
X496654D01*
X496883Y114140D01*
X496978Y114370D01*
Y119882D01*
X496883Y120112D01*
X496654Y120207D01*
X495599D01*
Y168996D01*
X495599Y168996D01*
X495537Y169308D01*
X495360Y169573D01*
X460813Y204120D01*
X460548Y204297D01*
X460236Y204359D01*
X460236Y204359D01*
X373566D01*
X367548Y210377D01*
Y233834D01*
X368048Y233986D01*
X368124Y233872D01*
X375801Y226195D01*
X375801Y226195D01*
X376066Y226018D01*
X376378Y225956D01*
X376378Y225956D01*
X450056D01*
X478557Y197455D01*
X478822Y197278D01*
X479134Y197216D01*
X479134Y197216D01*
X508323D01*
X516746Y188793D01*
Y69025D01*
X515692D01*
X515462Y68930D01*
X515367Y68701D01*
Y63189D01*
X515462Y62959D01*
X515692Y62864D01*
X516746D01*
Y58366D01*
X516746Y58366D01*
X516808Y58054D01*
X516985Y57789D01*
X519924Y54851D01*
X519896Y54814D01*
X519563Y54011D01*
X519450Y53150D01*
X519563Y52288D01*
X519896Y51485D01*
X520425Y50796D01*
X521114Y50267D01*
X521917Y49935D01*
X522778Y49821D01*
X523640Y49935D01*
X524443Y50267D01*
X525132Y50796D01*
X525661Y51485D01*
X525993Y52288D01*
X526107Y53150D01*
X525993Y54011D01*
X525661Y54814D01*
X525132Y55503D01*
X524443Y56032D01*
X523640Y56365D01*
X522778Y56478D01*
X521917Y56365D01*
X521114Y56032D01*
X521077Y56004D01*
X518377Y58704D01*
Y62864D01*
X519432D01*
X519662Y62959D01*
X519757Y63189D01*
Y68701D01*
X519662Y68930D01*
X519432Y69025D01*
X518377D01*
Y189131D01*
X518315Y189443D01*
X518139Y189708D01*
X518139Y189708D01*
X509238Y198608D01*
X508974Y198785D01*
X508661Y198847D01*
X508661Y198847D01*
X479472D01*
X450971Y227348D01*
X450706Y227525D01*
X450394Y227587D01*
X450394Y227587D01*
X376716D01*
X369742Y234561D01*
X369769Y234670D01*
X370323Y234823D01*
X375801Y229345D01*
X375801Y229345D01*
X376066Y229168D01*
X376378Y229106D01*
X376378Y229106D01*
X525646D01*
X541212Y213540D01*
Y120207D01*
X540158D01*
X539928Y120112D01*
X539833Y119882D01*
Y114370D01*
X539928Y114140D01*
X540158Y114045D01*
X541212D01*
Y109547D01*
X541212Y109547D01*
X541274Y109235D01*
X541451Y108970D01*
X544390Y106032D01*
X544361Y105995D01*
X544029Y105192D01*
X543916Y104331D01*
X544029Y103469D01*
X544361Y102667D01*
X544890Y101977D01*
X545580Y101448D01*
X546383Y101116D01*
X547244Y101002D01*
X548105Y101116D01*
X548908Y101448D01*
X549598Y101977D01*
X550127Y102667D01*
X550459Y103469D01*
X550572Y104331D01*
X550459Y105192D01*
X550127Y105995D01*
X549598Y106684D01*
X548908Y107213D01*
X548105Y107546D01*
X547244Y107659D01*
X546383Y107546D01*
X545580Y107213D01*
X545543Y107185D01*
X542843Y109885D01*
Y114045D01*
X543898D01*
X544127Y114140D01*
X544222Y114370D01*
Y119882D01*
X544127Y120112D01*
X543898Y120207D01*
X542843D01*
Y213878D01*
X542781Y214190D01*
X542604Y214455D01*
X542604Y214455D01*
X526561Y230498D01*
X526296Y230675D01*
X525984Y230737D01*
X525984Y230737D01*
X376716D01*
X371711Y235742D01*
X371738Y235851D01*
X372291Y236004D01*
X376589Y231707D01*
X376589Y231707D01*
X376853Y231530D01*
X377165Y231468D01*
X548481D01*
X564834Y215115D01*
Y69025D01*
X563779D01*
X563550Y68930D01*
X563455Y68701D01*
Y63189D01*
X563550Y62959D01*
X563779Y62864D01*
X564834D01*
Y58366D01*
X564834Y58366D01*
X564896Y58054D01*
X565073Y57789D01*
X568012Y54851D01*
X567983Y54814D01*
X567651Y54011D01*
X567537Y53150D01*
X567651Y52288D01*
X567983Y51485D01*
X568512Y50796D01*
X569202Y50267D01*
X570005Y49935D01*
X570866Y49821D01*
X571728Y49935D01*
X572530Y50267D01*
X573220Y50796D01*
X573748Y51485D01*
X574081Y52288D01*
X574194Y53150D01*
X574081Y54011D01*
X573748Y54814D01*
X573220Y55503D01*
X572530Y56032D01*
X571728Y56365D01*
X570866Y56478D01*
X570005Y56365D01*
X569202Y56032D01*
X569165Y56004D01*
X566465Y58704D01*
Y62864D01*
X567520D01*
X567749Y62959D01*
X567844Y63189D01*
Y68701D01*
X567749Y68930D01*
X567520Y69025D01*
X566465D01*
Y215453D01*
X566465Y215453D01*
X566403Y215765D01*
X566226Y216030D01*
X549396Y232860D01*
X549131Y233037D01*
X548819Y233099D01*
X548819Y233099D01*
X377503D01*
X373453Y237149D01*
Y260989D01*
X373458Y260991D01*
X373553Y261221D01*
Y266732D01*
X373458Y266962D01*
X373228Y267057D01*
X372047D01*
X371818Y266962D01*
X371490D01*
X371260Y267057D01*
X370079D01*
X369849Y266962D01*
X369521D01*
X369291Y267057D01*
X368110D01*
X367881Y266962D01*
X367552D01*
X367323Y267057D01*
X366142D01*
X365912Y266962D01*
X365584D01*
X365354Y267057D01*
X364173D01*
X363944Y266962D01*
X363615D01*
X363386Y267057D01*
X362205D01*
X361975Y266962D01*
X361647D01*
X361417Y267057D01*
X360236D01*
X360007Y266962D01*
X359679D01*
X359449Y267057D01*
X358268D01*
X358038Y266962D01*
X357710D01*
X357480Y267057D01*
X356299D01*
X356070Y266962D01*
X355742D01*
X355512Y267057D01*
X354331D01*
X354101Y266962D01*
X353773D01*
X353543Y267057D01*
X352362D01*
X352133Y266962D01*
X351804D01*
X351575Y267057D01*
X350394D01*
X350302Y267019D01*
X349836Y266962D01*
X349606Y267057D01*
X349364Y267057D01*
X348425D01*
X348334Y267019D01*
X347867Y266962D01*
X347638Y267057D01*
X347396Y267057D01*
X346624D01*
X346611Y267123D01*
X346390Y267453D01*
X346059Y267674D01*
X345669Y267752D01*
X345579D01*
Y263977D01*
X344579D01*
Y267752D01*
X344488D01*
X344426Y267740D01*
X343926Y268115D01*
Y271119D01*
X357577Y284770D01*
X357874Y284710D01*
X358171Y284770D01*
X371864Y271077D01*
X371864Y271077D01*
X372129Y270900D01*
X372441Y270838D01*
X377328D01*
X377329Y270833D01*
X377559Y270738D01*
X383071D01*
X383300Y270833D01*
X383302Y270838D01*
X385390D01*
X388275Y267954D01*
X388258Y267913D01*
Y264173D01*
X388353Y263944D01*
X388583Y263848D01*
X394094D01*
X394324Y263944D01*
X394419Y264173D01*
Y267913D01*
X394324Y268143D01*
X394094Y268238D01*
X390297D01*
X388598Y269937D01*
X388805Y270437D01*
X390839D01*
Y273327D01*
Y276217D01*
X388583D01*
X388193Y276139D01*
X387862Y275918D01*
X387641Y275587D01*
X387563Y275197D01*
Y274438D01*
X385949D01*
X385797Y274938D01*
X385911Y275014D01*
X385911Y275014D01*
X389723Y278826D01*
X389764Y278809D01*
X393504D01*
X393734Y278904D01*
X393829Y279134D01*
Y284646D01*
X393734Y284875D01*
X393504Y284970D01*
X389764D01*
X389534Y284875D01*
X389439Y284646D01*
Y280849D01*
X384997Y276406D01*
X383621D01*
X383370Y276906D01*
X383396Y276969D01*
Y278150D01*
X383300Y278379D01*
Y278708D01*
X383396Y278937D01*
Y280118D01*
X383300Y280348D01*
Y280676D01*
X383396Y280906D01*
Y282087D01*
X383300Y282316D01*
Y282645D01*
X383396Y282874D01*
Y284055D01*
X383300Y284285D01*
Y284613D01*
X383396Y284842D01*
Y286024D01*
X383370Y286086D01*
X383621Y286586D01*
X399662D01*
X400121Y286127D01*
X399929Y285665D01*
X399417D01*
Y282390D01*
X401807D01*
Y283788D01*
X402269Y283979D01*
X412329Y273920D01*
X412269Y273622D01*
X412384Y273044D01*
X412712Y272554D01*
X413202Y272227D01*
X413779Y272112D01*
X414357Y272227D01*
X414847Y272554D01*
X415175Y273044D01*
X415290Y273622D01*
X415175Y274200D01*
X414999Y274462D01*
X414967Y274511D01*
X415355Y274830D01*
X416266Y273920D01*
X416206Y273622D01*
X416321Y273044D01*
X416649Y272554D01*
X417139Y272227D01*
X417717Y272112D01*
X418294Y272227D01*
X418784Y272554D01*
X419112Y273044D01*
X419179Y273382D01*
X419673Y273648D01*
X419703Y273650D01*
X419710Y273646D01*
X419759Y273578D01*
X419865Y273044D01*
X420192Y272554D01*
X420682Y272227D01*
X421260Y272112D01*
X421838Y272227D01*
X422328Y272554D01*
X422655Y273044D01*
X422770Y273622D01*
X422655Y274200D01*
X422328Y274690D01*
X421838Y275017D01*
X421260Y275132D01*
X420962Y275073D01*
X404120Y291915D01*
X404006Y291991D01*
X404158Y292491D01*
X414524D01*
X435630Y271386D01*
X435602Y271349D01*
X435269Y270547D01*
X435156Y269685D01*
X435269Y268824D01*
X435602Y268021D01*
X436131Y267331D01*
X436820Y266803D01*
X437623Y266470D01*
X438484Y266357D01*
X439346Y266470D01*
X440148Y266803D01*
X440838Y267331D01*
X441367Y268021D01*
X441699Y268824D01*
X441813Y269685D01*
X441699Y270547D01*
X441367Y271349D01*
X440838Y272039D01*
X440148Y272568D01*
X439346Y272900D01*
X438484Y273013D01*
X437623Y272900D01*
X436820Y272568D01*
X436783Y272539D01*
X415439Y293884D01*
X415174Y294061D01*
X414862Y294123D01*
X414862Y294123D01*
X383621D01*
X383370Y294623D01*
X383396Y294685D01*
Y295866D01*
X383370Y295928D01*
X383621Y296428D01*
X387471D01*
Y296063D01*
X387566Y295833D01*
X387795Y295738D01*
X393307D01*
X393537Y295833D01*
X393632Y296063D01*
Y299803D01*
X393537Y300033D01*
X393307Y300128D01*
X387795D01*
X387566Y300033D01*
X387471Y299803D01*
Y298060D01*
X385162D01*
X385010Y298560D01*
X385124Y298636D01*
X388815Y302327D01*
X390051D01*
Y304717D01*
X386776D01*
Y303347D01*
X386853Y302956D01*
X386967Y302786D01*
X384491Y300310D01*
X384423Y300293D01*
X383874Y300400D01*
X383792Y300524D01*
X383461Y300745D01*
X383396Y300758D01*
Y301772D01*
X383300Y302001D01*
X383071Y302096D01*
X377559D01*
X377329Y302001D01*
X377234Y301772D01*
Y300758D01*
X377169Y300745D01*
X376838Y300524D01*
X376617Y300193D01*
X376539Y299803D01*
Y299713D01*
X380315D01*
Y298713D01*
X376539D01*
Y298622D01*
X376552Y298560D01*
X376177Y298060D01*
X368898D01*
X368585Y297998D01*
X368321Y297821D01*
X368321Y297821D01*
X368010Y297510D01*
X367548Y297701D01*
Y305552D01*
X368048Y305803D01*
X368110Y305778D01*
X369291D01*
X369521Y305873D01*
X369849D01*
X370079Y305778D01*
X371260D01*
X371490Y305873D01*
X371818D01*
X372047Y305778D01*
X373228D01*
X373458Y305873D01*
X373553Y306102D01*
Y311614D01*
X373458Y311844D01*
X373228Y311939D01*
X372047D01*
X371818Y311844D01*
X371490D01*
X371260Y311939D01*
X370079D01*
X369849Y311844D01*
X369521D01*
X369291Y311939D01*
X368110D01*
X368048Y311913D01*
X367548Y312164D01*
Y314242D01*
X371260D01*
X371489Y314337D01*
X371585Y314567D01*
Y320079D01*
X371489Y320308D01*
X371260Y320404D01*
X367520D01*
X367290Y320308D01*
X367195Y320079D01*
Y316282D01*
X366156Y315242D01*
X366016Y315033D01*
X365748Y315003D01*
X365480Y315033D01*
X365340Y315242D01*
X365340Y315242D01*
X364996Y315587D01*
Y316823D01*
X362606D01*
Y313547D01*
X363948D01*
Y312589D01*
X363783Y312556D01*
X363452Y312335D01*
X363231Y312004D01*
X363218Y311939D01*
X362205D01*
X361975Y311844D01*
X361647D01*
X361417Y311939D01*
X360236D01*
X360007Y311844D01*
X359679D01*
X359449Y311939D01*
X358268D01*
X358038Y311844D01*
X357710D01*
X357480Y311939D01*
X356299D01*
X356237Y311913D01*
X355737Y312164D01*
Y321512D01*
X358606Y324381D01*
X399535D01*
X399541Y324336D01*
X399873Y323533D01*
X400402Y322843D01*
X401092Y322314D01*
X401895Y321982D01*
X402756Y321868D01*
X403617Y321982D01*
X404420Y322314D01*
X405110Y322843D01*
X405639Y323533D01*
X405971Y324336D01*
X406084Y325197D01*
X405971Y326058D01*
X405639Y326861D01*
X405110Y327551D01*
X404420Y328080D01*
X403617Y328412D01*
X402756Y328525D01*
X401895Y328412D01*
X401092Y328080D01*
X400402Y327551D01*
X399873Y326861D01*
X399541Y326058D01*
X399535Y326013D01*
X358268D01*
X357956Y325951D01*
X357691Y325774D01*
X357691Y325774D01*
X354345Y322427D01*
X354168Y322162D01*
X354106Y321850D01*
X354106Y321850D01*
Y312164D01*
X353606Y311913D01*
X353543Y311939D01*
X352362D01*
X352133Y311844D01*
X351804D01*
X351575Y311939D01*
X350394D01*
X350331Y311913D01*
X349831Y312164D01*
Y320922D01*
X363821Y334912D01*
X374114D01*
X374344Y335007D01*
X374439Y335236D01*
Y336192D01*
X378415D01*
Y334252D01*
X378511Y334022D01*
X378740Y333927D01*
X382480D01*
X382710Y334022D01*
X382805Y334252D01*
Y339764D01*
X382710Y339993D01*
X382480Y340089D01*
D02*
G37*
G36*
X209244Y341232D02*
X206854D01*
Y338976D01*
X206932Y338586D01*
X207153Y338255D01*
X207484Y338034D01*
X207874Y337957D01*
X209244D01*
Y341232D01*
D02*
G37*
G36*
X534386Y270346D02*
X530815D01*
Y268646D01*
X533366D01*
X533756Y268723D01*
X534087Y268944D01*
X534308Y269275D01*
X534386Y269665D01*
Y270346D01*
D02*
G37*
G36*
X231783Y272083D02*
X229528D01*
X229137Y272005D01*
X228807Y271784D01*
X228586Y271453D01*
X228508Y271063D01*
Y269693D01*
X231783D01*
Y272083D01*
D02*
G37*
G36*
X235039D02*
X232783D01*
Y269693D01*
X236059D01*
Y271063D01*
X235981Y271453D01*
X235760Y271784D01*
X235430Y272005D01*
X235039Y272083D01*
D02*
G37*
G36*
X529815Y270346D02*
X526244D01*
Y269665D01*
X526322Y269275D01*
X526543Y268944D01*
X526874Y268723D01*
X527264Y268646D01*
X529815D01*
Y270346D01*
D02*
G37*
G36*
X458169Y273013D02*
X457308Y272900D01*
X456505Y272568D01*
X455816Y272039D01*
X455287Y271349D01*
X454954Y270547D01*
X454841Y269685D01*
X454954Y268824D01*
X455287Y268021D01*
X455816Y267331D01*
X456505Y266803D01*
X457308Y266470D01*
X458169Y266357D01*
X459031Y266470D01*
X459833Y266803D01*
X460523Y267331D01*
X461052Y268021D01*
X461384Y268824D01*
X461498Y269685D01*
X461384Y270547D01*
X461052Y271349D01*
X460523Y272039D01*
X459833Y272568D01*
X459031Y272900D01*
X458169Y273013D01*
D02*
G37*
G36*
X450787Y282018D02*
X445276D01*
X445046Y281923D01*
X444951Y281693D01*
Y277953D01*
X445046Y277723D01*
X445276Y277628D01*
X447511D01*
Y272906D01*
X447465Y272900D01*
X446663Y272568D01*
X445973Y272039D01*
X445444Y271349D01*
X445112Y270547D01*
X444998Y269685D01*
X445112Y268824D01*
X445444Y268021D01*
X445973Y267331D01*
X446663Y266803D01*
X447465Y266470D01*
X448327Y266357D01*
X449188Y266470D01*
X449991Y266803D01*
X450028Y266831D01*
X468616Y248242D01*
X468616Y248242D01*
X468881Y248065D01*
X469193Y248003D01*
X469193Y248003D01*
X519685D01*
X519685Y248003D01*
X519997Y248065D01*
X520262Y248242D01*
X538850Y266831D01*
X538887Y266803D01*
X539690Y266470D01*
X540551Y266357D01*
X541413Y266470D01*
X542215Y266803D01*
X542905Y267331D01*
X543434Y268021D01*
X543766Y268824D01*
X543880Y269685D01*
X543766Y270547D01*
X543434Y271349D01*
X542905Y272039D01*
X542215Y272568D01*
X541413Y272900D01*
X540551Y273013D01*
X539690Y272900D01*
X538887Y272568D01*
X538198Y272039D01*
X537669Y271349D01*
X537336Y270547D01*
X537223Y269685D01*
X537336Y268824D01*
X537669Y268021D01*
X537697Y267984D01*
X519347Y249635D01*
X469531D01*
X451181Y267984D01*
X451209Y268021D01*
X451542Y268824D01*
X451655Y269685D01*
X451542Y270547D01*
X451209Y271349D01*
X450680Y272039D01*
X449991Y272568D01*
X449188Y272900D01*
X449142Y272906D01*
Y277628D01*
X450787D01*
X451017Y277723D01*
X451112Y277953D01*
Y281693D01*
X451017Y281923D01*
X450787Y282018D01*
D02*
G37*
G36*
X533366Y277352D02*
X527264D01*
X527034Y277257D01*
X526939Y277028D01*
Y274665D01*
X527034Y274436D01*
X527264Y274341D01*
X533366D01*
X533596Y274436D01*
X533691Y274665D01*
Y275031D01*
X543894D01*
X547539Y271386D01*
X547511Y271349D01*
X547179Y270547D01*
X547065Y269685D01*
X547179Y268824D01*
X547511Y268021D01*
X548040Y267331D01*
X548729Y266803D01*
X549532Y266470D01*
X550394Y266357D01*
X551255Y266470D01*
X552058Y266803D01*
X552747Y267331D01*
X553276Y268021D01*
X553609Y268824D01*
X553722Y269685D01*
X553609Y270547D01*
X553276Y271349D01*
X552747Y272039D01*
X552058Y272568D01*
X551255Y272900D01*
X550394Y273013D01*
X549532Y272900D01*
X548729Y272568D01*
X548693Y272539D01*
X544809Y276423D01*
X544544Y276600D01*
X544232Y276662D01*
X544232Y276662D01*
X533691D01*
Y277028D01*
X533596Y277257D01*
X533366Y277352D01*
D02*
G37*
G36*
X559736Y273654D02*
X559192Y273582D01*
X558219Y273179D01*
X557383Y272538D01*
X556742Y271702D01*
X556339Y270729D01*
X556267Y270185D01*
X559736D01*
Y273654D01*
D02*
G37*
G36*
X394094Y276217D02*
X391839D01*
Y273827D01*
X395114D01*
Y275197D01*
X395036Y275587D01*
X394815Y275918D01*
X394485Y276139D01*
X394094Y276217D01*
D02*
G37*
G36*
X235039Y286348D02*
X229528D01*
X229298Y286253D01*
X229203Y286024D01*
Y282283D01*
X229298Y282054D01*
X229528Y281959D01*
X231468D01*
Y278671D01*
X229528D01*
X229298Y278576D01*
X229203Y278346D01*
Y274606D01*
X229298Y274377D01*
X229528Y274282D01*
X235039D01*
X235269Y274377D01*
X235364Y274606D01*
Y278346D01*
X235269Y278576D01*
X235039Y278671D01*
X233099D01*
Y281959D01*
X235039D01*
X235269Y282054D01*
X235364Y282283D01*
Y286024D01*
X235269Y286253D01*
X235039Y286348D01*
D02*
G37*
G36*
X509055Y277357D02*
X509033Y277352D01*
X506004D01*
X505774Y277257D01*
X505679Y277028D01*
Y274665D01*
X505774Y274436D01*
X506004Y274341D01*
X509033D01*
X509055Y274336D01*
X509077Y274341D01*
X512106D01*
X512336Y274436D01*
X512431Y274665D01*
Y277028D01*
X512336Y277257D01*
X512106Y277352D01*
X509077D01*
X509055Y277357D01*
D02*
G37*
G36*
X533366Y273047D02*
X530815D01*
Y271346D01*
X534386D01*
Y272028D01*
X534308Y272418D01*
X534087Y272748D01*
X533756Y272970D01*
X533366Y273047D01*
D02*
G37*
G36*
X560736Y273654D02*
Y270185D01*
X564205D01*
X564133Y270729D01*
X563730Y271702D01*
X563089Y272538D01*
X562254Y273179D01*
X561280Y273582D01*
X560736Y273654D01*
D02*
G37*
G36*
X395114Y272827D02*
X391839D01*
Y270437D01*
X394094D01*
X394485Y270515D01*
X394815Y270736D01*
X395036Y271067D01*
X395114Y271457D01*
Y272827D01*
D02*
G37*
G36*
X529815Y273047D02*
X527264D01*
X526874Y272970D01*
X526543Y272748D01*
X526322Y272418D01*
X526244Y272028D01*
Y271346D01*
X529815D01*
Y273047D01*
D02*
G37*
G36*
X512992Y258396D02*
X507480D01*
X507251Y258300D01*
X507156Y258071D01*
Y257016D01*
X503868D01*
Y258071D01*
X503773Y258300D01*
X503543Y258396D01*
X498032D01*
X497802Y258300D01*
X497707Y258071D01*
Y254331D01*
X497802Y254101D01*
X498032Y254006D01*
X503543D01*
X503773Y254101D01*
X503868Y254331D01*
Y255385D01*
X507156D01*
Y254331D01*
X507251Y254101D01*
X507480Y254006D01*
X512992D01*
X513222Y254101D01*
X513317Y254331D01*
Y258071D01*
X513222Y258300D01*
X512992Y258396D01*
D02*
G37*
G36*
X500287Y262984D02*
X497012D01*
Y261614D01*
X497089Y261224D01*
X497310Y260893D01*
X497641Y260672D01*
X498032Y260595D01*
X500287D01*
Y262984D01*
D02*
G37*
G36*
X504563D02*
X501287D01*
Y260595D01*
X503543D01*
X503933Y260672D01*
X504264Y260893D01*
X504485Y261224D01*
X504563Y261614D01*
Y262984D01*
D02*
G37*
G36*
X313236Y255673D02*
X310736D01*
Y252153D01*
X314256D01*
Y254654D01*
X314178Y255044D01*
X313957Y255375D01*
X313626Y255595D01*
X313236Y255673D01*
D02*
G37*
G36*
X229421Y254268D02*
X228543D01*
X228153Y254190D01*
X227822Y253969D01*
X227601Y253638D01*
X227524Y253248D01*
Y252075D01*
X229421D01*
Y254268D01*
D02*
G37*
G36*
X231299D02*
X230421D01*
Y252075D01*
X232319D01*
Y253248D01*
X232241Y253638D01*
X232020Y253969D01*
X231689Y254190D01*
X231299Y254268D01*
D02*
G37*
G36*
X309736Y255673D02*
X307236D01*
X306846Y255595D01*
X306515Y255375D01*
X306294Y255044D01*
X306217Y254654D01*
Y252153D01*
X309736D01*
Y255673D01*
D02*
G37*
G36*
X484350Y273848D02*
X477067D01*
X476837Y273753D01*
X476742Y273524D01*
Y260335D01*
X476837Y260105D01*
X477067Y260010D01*
X484350D01*
X484580Y260105D01*
X484675Y260335D01*
Y269742D01*
X484964Y270031D01*
X505679D01*
Y269665D01*
X505774Y269436D01*
X506004Y269341D01*
X508240D01*
Y265679D01*
X507480D01*
X507251Y265584D01*
X507156Y265354D01*
Y261614D01*
X507251Y261385D01*
X507480Y261289D01*
X512992D01*
X513222Y261385D01*
X513317Y261614D01*
Y265354D01*
X513222Y265584D01*
X512992Y265679D01*
X509871D01*
Y269341D01*
X512106D01*
X512336Y269436D01*
X512431Y269665D01*
Y272028D01*
X512336Y272257D01*
X512106Y272352D01*
X506004D01*
X505774Y272257D01*
X505679Y272028D01*
Y271662D01*
X484675D01*
Y273524D01*
X484580Y273753D01*
X484350Y273848D01*
D02*
G37*
G36*
X564205Y269185D02*
X560736D01*
Y265716D01*
X561280Y265788D01*
X562254Y266191D01*
X563089Y266832D01*
X563730Y267668D01*
X564133Y268641D01*
X564205Y269185D01*
D02*
G37*
G36*
X231783Y268693D02*
X228508D01*
Y267323D01*
X228586Y266933D01*
X228807Y266602D01*
X229137Y266381D01*
X229528Y266303D01*
X231783D01*
Y268693D01*
D02*
G37*
G36*
X236059D02*
X232783D01*
Y266303D01*
X235039D01*
X235430Y266381D01*
X235760Y266602D01*
X235981Y266933D01*
X236059Y267323D01*
Y268693D01*
D02*
G37*
G36*
X559736Y269185D02*
X556267D01*
X556339Y268641D01*
X556742Y267668D01*
X557383Y266832D01*
X558219Y266191D01*
X559192Y265788D01*
X559736Y265716D01*
Y269185D01*
D02*
G37*
G36*
X500287Y266374D02*
X498032D01*
X497641Y266296D01*
X497310Y266075D01*
X497089Y265744D01*
X497012Y265354D01*
Y263984D01*
X500287D01*
Y266374D01*
D02*
G37*
G36*
X503543D02*
X501287D01*
Y263984D01*
X504563D01*
Y265354D01*
X504485Y265744D01*
X504264Y266075D01*
X503933Y266296D01*
X503543Y266374D01*
D02*
G37*
G36*
X225964Y308203D02*
X225387Y308088D01*
X224897Y307761D01*
X224569Y307271D01*
X224454Y306693D01*
Y303346D01*
X224569Y302769D01*
X224897Y302279D01*
X225149Y302110D01*
Y298750D01*
X223031D01*
X222802Y298655D01*
X222707Y298425D01*
Y292913D01*
X222802Y292684D01*
X223031Y292589D01*
X224086D01*
Y274550D01*
X219151Y269616D01*
X215354D01*
X215125Y269521D01*
X215030Y269291D01*
Y265551D01*
X215125Y265321D01*
X215354Y265226D01*
X220866D01*
X221096Y265321D01*
X221191Y265551D01*
Y269291D01*
X221174Y269332D01*
X225478Y273636D01*
X225655Y273900D01*
X225717Y274213D01*
X225717Y274213D01*
Y292589D01*
X226772D01*
X227001Y292684D01*
X227096Y292913D01*
Y298425D01*
X227001Y298655D01*
X226780Y298746D01*
Y302110D01*
X227032Y302279D01*
X227360Y302769D01*
X227475Y303346D01*
Y306693D01*
X227360Y307271D01*
X227032Y307761D01*
X226542Y308088D01*
X225964Y308203D01*
D02*
G37*
G36*
X499500Y290783D02*
X497244D01*
X496854Y290706D01*
X496523Y290485D01*
X496302Y290154D01*
X496224Y289764D01*
Y288394D01*
X499500D01*
Y290783D01*
D02*
G37*
G36*
X502756D02*
X500500D01*
Y288394D01*
X503776D01*
Y289764D01*
X503698Y290154D01*
X503477Y290485D01*
X503146Y290706D01*
X502756Y290783D01*
D02*
G37*
G36*
X230964Y308203D02*
X230387Y308088D01*
X229897Y307761D01*
X229569Y307271D01*
X229454Y306693D01*
Y303346D01*
X229569Y302769D01*
X229897Y302279D01*
X230287Y302018D01*
Y293632D01*
X229528D01*
X229298Y293537D01*
X229203Y293307D01*
Y289567D01*
X229298Y289337D01*
X229528Y289242D01*
X235039D01*
X235269Y289337D01*
X235364Y289567D01*
Y293307D01*
X235269Y293537D01*
X235039Y293632D01*
X231918D01*
Y302202D01*
X232032Y302279D01*
X232360Y302769D01*
X232475Y303346D01*
Y306693D01*
X232360Y307271D01*
X232032Y307761D01*
X231542Y308088D01*
X230964Y308203D01*
D02*
G37*
G36*
X450787Y289996D02*
X448531D01*
Y287606D01*
X451807D01*
Y288976D01*
X451729Y289367D01*
X451508Y289697D01*
X451178Y289918D01*
X450787Y289996D01*
D02*
G37*
G36*
X325878Y288618D02*
X323622D01*
X323232Y288540D01*
X322901Y288319D01*
X322680Y287989D01*
X322603Y287598D01*
Y286228D01*
X325878D01*
Y288618D01*
D02*
G37*
G36*
X329134D02*
X326878D01*
Y286228D01*
X330153D01*
Y287598D01*
X330076Y287989D01*
X329855Y288319D01*
X329524Y288540D01*
X329134Y288618D01*
D02*
G37*
G36*
X447532Y289996D02*
X445276D01*
X444885Y289918D01*
X444555Y289697D01*
X444334Y289367D01*
X444256Y288976D01*
Y287606D01*
X447532D01*
Y289996D01*
D02*
G37*
G36*
X431004Y302907D02*
X429538Y302714D01*
X428172Y302149D01*
X426999Y301249D01*
X426099Y300076D01*
X425533Y298710D01*
X425341Y297244D01*
X425533Y295778D01*
X426099Y294412D01*
X426999Y293239D01*
X428172Y292339D01*
X429538Y291774D01*
X431004Y291581D01*
X432470Y291774D01*
X433836Y292339D01*
X435009Y293239D01*
X435909Y294412D01*
X436474Y295778D01*
X436667Y297244D01*
X436474Y298710D01*
X435909Y300076D01*
X435009Y301249D01*
X433836Y302149D01*
X432470Y302714D01*
X431004Y302907D01*
D02*
G37*
G36*
X220508Y295169D02*
X218118D01*
Y291894D01*
X219488D01*
X219878Y291971D01*
X220209Y292192D01*
X220430Y292523D01*
X220508Y292913D01*
Y295169D01*
D02*
G37*
G36*
X254421Y295563D02*
X252327D01*
Y294685D01*
X252404Y294295D01*
X252626Y293964D01*
X252956Y293743D01*
X253346Y293666D01*
X254421D01*
Y295563D01*
D02*
G37*
G36*
X257516D02*
X255421D01*
Y293666D01*
X256496D01*
X256886Y293743D01*
X257217Y293964D01*
X257438Y294295D01*
X257516Y294685D01*
Y295563D01*
D02*
G37*
G36*
X217118Y295169D02*
X214728D01*
Y292913D01*
X214806Y292523D01*
X215027Y292192D01*
X215358Y291971D01*
X215748Y291894D01*
X217118D01*
Y295169D01*
D02*
G37*
G36*
X465650Y302907D02*
X464184Y302714D01*
X462818Y302149D01*
X461645Y301249D01*
X460745Y300076D01*
X460179Y298710D01*
X459986Y297244D01*
X460179Y295778D01*
X460745Y294412D01*
X461645Y293239D01*
X462818Y292339D01*
X464184Y291774D01*
X465650Y291581D01*
X467115Y291774D01*
X468481Y292339D01*
X469654Y293239D01*
X470554Y294412D01*
X471120Y295778D01*
X471313Y297244D01*
X471120Y298710D01*
X470554Y300076D01*
X469654Y301249D01*
X468481Y302149D01*
X467115Y302714D01*
X465650Y302907D01*
D02*
G37*
G36*
X533071D02*
X531605Y302714D01*
X530239Y302149D01*
X529066Y301249D01*
X528166Y300076D01*
X527600Y298710D01*
X527407Y297244D01*
X527600Y295778D01*
X528166Y294412D01*
X529066Y293239D01*
X530239Y292339D01*
X531605Y291774D01*
X533071Y291581D01*
X534537Y291774D01*
X535903Y292339D01*
X537076Y293239D01*
X537976Y294412D01*
X538541Y295778D01*
X538734Y297244D01*
X538541Y298710D01*
X537976Y300076D01*
X537076Y301249D01*
X535903Y302149D01*
X534537Y302714D01*
X533071Y302907D01*
D02*
G37*
G36*
X567717D02*
X566251Y302714D01*
X564885Y302149D01*
X563712Y301249D01*
X562812Y300076D01*
X562246Y298710D01*
X562053Y297244D01*
X562246Y295778D01*
X562812Y294412D01*
X563712Y293239D01*
X564885Y292339D01*
X566251Y291774D01*
X567717Y291581D01*
X569182Y291774D01*
X570548Y292339D01*
X571721Y293239D01*
X572621Y294412D01*
X573187Y295778D01*
X573380Y297244D01*
X573187Y298710D01*
X572621Y300076D01*
X571721Y301249D01*
X570548Y302149D01*
X569182Y302714D01*
X567717Y302907D01*
D02*
G37*
G36*
X503776Y287394D02*
X500500D01*
Y285004D01*
X502756D01*
X503146Y285082D01*
X503477Y285303D01*
X503698Y285633D01*
X503776Y286024D01*
Y287394D01*
D02*
G37*
G36*
X533366Y282352D02*
X527264D01*
X527034Y282257D01*
X526939Y282028D01*
Y279665D01*
X527034Y279436D01*
X527264Y279341D01*
X533366D01*
X533596Y279436D01*
X533691Y279665D01*
Y282028D01*
X533596Y282257D01*
X533366Y282352D01*
D02*
G37*
G36*
X480709Y308840D02*
X479847Y308727D01*
X479044Y308394D01*
X478355Y307865D01*
X477826Y307176D01*
X477494Y306373D01*
X477380Y305512D01*
X477494Y304650D01*
X477826Y303848D01*
X478355Y303158D01*
X479044Y302629D01*
X479847Y302297D01*
X479893Y302291D01*
Y293337D01*
X477067D01*
X476837Y293241D01*
X476742Y293012D01*
Y279823D01*
X476837Y279593D01*
X477067Y279498D01*
X484350D01*
X484580Y279593D01*
X484675Y279823D01*
Y293012D01*
X484580Y293241D01*
X484350Y293337D01*
X481524D01*
Y302291D01*
X481570Y302297D01*
X482373Y302629D01*
X483062Y303158D01*
X483591Y303848D01*
X483924Y304650D01*
X484037Y305512D01*
X483924Y306373D01*
X483591Y307176D01*
X483062Y307865D01*
X482373Y308394D01*
X481570Y308727D01*
X480709Y308840D01*
D02*
G37*
G36*
X398417Y285665D02*
X397047D01*
X396657Y285588D01*
X396326Y285367D01*
X396105Y285036D01*
X396028Y284646D01*
Y282390D01*
X398417D01*
Y285665D01*
D02*
G37*
G36*
X502756Y282805D02*
X497244D01*
X497015Y282710D01*
X496919Y282480D01*
Y278740D01*
X497015Y278511D01*
X497244Y278415D01*
X502756D01*
X502985Y278511D01*
X503081Y278740D01*
Y280031D01*
X505679D01*
Y279665D01*
X505774Y279436D01*
X506004Y279341D01*
X512106D01*
X512336Y279436D01*
X512431Y279665D01*
Y282028D01*
X512336Y282257D01*
X512106Y282352D01*
X506004D01*
X505774Y282257D01*
X505679Y282028D01*
Y281662D01*
X503081D01*
Y282480D01*
X502985Y282710D01*
X502756Y282805D01*
D02*
G37*
G36*
X398417Y281390D02*
X396028D01*
Y279134D01*
X396105Y278744D01*
X396326Y278413D01*
X396657Y278192D01*
X397047Y278114D01*
X398417D01*
Y281390D01*
D02*
G37*
G36*
X401807D02*
X399417D01*
Y278114D01*
X400787D01*
X401178Y278192D01*
X401508Y278413D01*
X401729Y278744D01*
X401807Y279134D01*
Y281390D01*
D02*
G37*
G36*
X310236Y284982D02*
X309375Y284869D01*
X308572Y284536D01*
X307883Y284007D01*
X307354Y283318D01*
X307021Y282515D01*
X306908Y281653D01*
X307021Y280792D01*
X307354Y279989D01*
X307382Y279953D01*
X277851Y250422D01*
X266323D01*
X266105Y250949D01*
X265678Y251505D01*
X265122Y251932D01*
X264475Y252200D01*
X263779Y252291D01*
X263085Y252200D01*
X262558Y251982D01*
X256089Y258451D01*
X255824Y258628D01*
X255512Y258690D01*
X255512Y258690D01*
X231624D01*
Y259547D01*
X231529Y259777D01*
X231299Y259872D01*
X229077D01*
X228234Y260715D01*
X227970Y260891D01*
X227657Y260953D01*
X227657Y260953D01*
X221191D01*
Y262008D01*
X221096Y262238D01*
X220866Y262333D01*
X215354D01*
X215125Y262238D01*
X215030Y262008D01*
Y258268D01*
X215125Y258038D01*
X215354Y257943D01*
X220866D01*
X221096Y258038D01*
X221191Y258268D01*
Y259322D01*
X227320D01*
X228219Y258423D01*
Y256201D01*
X228314Y255971D01*
X228543Y255876D01*
X231299D01*
X231529Y255971D01*
X231624Y256201D01*
Y257058D01*
X255174D01*
X261404Y250828D01*
X261186Y250301D01*
X261094Y249606D01*
X261186Y248911D01*
X261454Y248264D01*
X261881Y247708D01*
X262437Y247281D01*
X263085Y247013D01*
X263779Y246921D01*
X264475Y247013D01*
X265122Y247281D01*
X265678Y247708D01*
X266105Y248264D01*
X266323Y248791D01*
X278189D01*
X278189Y248791D01*
X278501Y248853D01*
X278766Y249030D01*
X308535Y278799D01*
X308572Y278771D01*
X309375Y278438D01*
X310236Y278325D01*
X311098Y278438D01*
X311900Y278771D01*
X312590Y279300D01*
X313119Y279989D01*
X313451Y280792D01*
X313565Y281653D01*
X313451Y282515D01*
X313119Y283318D01*
X312590Y284007D01*
X311900Y284536D01*
X311098Y284869D01*
X310236Y284982D01*
D02*
G37*
G36*
X512106Y287352D02*
X506004D01*
X505774Y287257D01*
X505679Y287028D01*
Y284665D01*
X505774Y284436D01*
X506004Y284341D01*
X512106D01*
X512336Y284436D01*
X512431Y284665D01*
Y287028D01*
X512336Y287257D01*
X512106Y287352D01*
D02*
G37*
G36*
X533366D02*
X527264D01*
X527034Y287257D01*
X526939Y287028D01*
Y284665D01*
X527034Y284436D01*
X527264Y284341D01*
X533366D01*
X533596Y284436D01*
X533691Y284665D01*
Y287028D01*
X533596Y287257D01*
X533366Y287352D01*
D02*
G37*
G36*
X499500Y287394D02*
X496224D01*
Y286024D01*
X496302Y285633D01*
X496523Y285303D01*
X496854Y285082D01*
X497244Y285004D01*
X499500D01*
Y287394D01*
D02*
G37*
G36*
X451807Y286606D02*
X448531D01*
Y284217D01*
X450787D01*
X451178Y284294D01*
X451508Y284515D01*
X451729Y284846D01*
X451807Y285236D01*
Y286606D01*
D02*
G37*
G36*
X330153Y285228D02*
X326878D01*
Y282839D01*
X329134D01*
X329524Y282916D01*
X329855Y283137D01*
X330076Y283468D01*
X330153Y283858D01*
Y285228D01*
D02*
G37*
G36*
X325878D02*
X322603D01*
Y283858D01*
X322680Y283468D01*
X322901Y283137D01*
X323232Y282916D01*
X323622Y282839D01*
X325878D01*
Y285228D01*
D02*
G37*
G36*
X447532Y286606D02*
X444256D01*
Y285236D01*
X444334Y284846D01*
X444555Y284515D01*
X444885Y284294D01*
X445276Y284217D01*
X447532D01*
Y286606D01*
D02*
G37*
%LPD*%
G36*
X377260Y295928D02*
X377234Y295866D01*
Y294685D01*
X377329Y294456D01*
Y294127D01*
X377234Y293898D01*
Y292717D01*
X377329Y292487D01*
Y292159D01*
X377234Y291929D01*
Y290748D01*
X377329Y290518D01*
Y290190D01*
X377234Y289961D01*
Y288779D01*
X377329Y288550D01*
Y288222D01*
X377234Y287992D01*
Y286811D01*
X377329Y286581D01*
Y286253D01*
X377234Y286024D01*
Y284842D01*
X377329Y284613D01*
Y284285D01*
X377234Y284055D01*
Y282874D01*
X377329Y282645D01*
Y282316D01*
X377234Y282087D01*
Y280906D01*
X377329Y280676D01*
Y280348D01*
X377234Y280118D01*
Y278937D01*
X377329Y278708D01*
Y278379D01*
X377234Y278150D01*
Y276969D01*
X377329Y276739D01*
Y276411D01*
X377234Y276181D01*
Y275168D01*
X377169Y275155D01*
X376838Y274934D01*
X376617Y274603D01*
X376539Y274213D01*
Y274122D01*
X380315D01*
Y273122D01*
X376539D01*
Y273031D01*
X376552Y272969D01*
X376176Y272469D01*
X372779D01*
X359325Y285923D01*
X359384Y286221D01*
X359325Y286518D01*
X367309Y294502D01*
X367309Y294502D01*
X369235Y296428D01*
X377009D01*
X377260Y295928D01*
D02*
G37*
D10*
X331988Y301181D02*
X335433D01*
X326378Y306791D02*
X331988Y301181D01*
X428346Y325197D02*
X433760Y330610D01*
X436614D01*
X428346Y342913D02*
X433366Y337894D01*
X436614D01*
X547244Y129921D02*
Y140157D01*
X500000Y129921D02*
Y140157D01*
X452362Y130315D02*
X452756Y129921D01*
X452362Y130315D02*
Y140157D01*
X542028Y109547D02*
X547244Y104331D01*
X542028Y109547D02*
Y117126D01*
X529528Y104331D02*
X534744Y109547D01*
Y117126D01*
X494783Y109547D02*
X500000Y104331D01*
X494783Y109547D02*
Y117126D01*
X482283Y104331D02*
X487500Y109547D01*
Y117126D01*
X570866Y78740D02*
Y88189D01*
X571260Y88583D01*
X522778Y89215D02*
X522835Y89272D01*
X474691Y78740D02*
X474803Y78853D01*
Y87697D01*
X469474Y58366D02*
X474691Y53150D01*
X469474Y58366D02*
Y66535D01*
X456974Y53150D02*
X462191Y58366D01*
Y66535D01*
X447539Y109547D02*
X452756Y104331D01*
X447539Y109547D02*
Y117126D01*
X435039Y104331D02*
X440256Y109547D01*
Y117126D01*
X426378Y78965D02*
X426603Y78740D01*
X426378Y78965D02*
Y88583D01*
X351083Y109547D02*
X356299Y104331D01*
X351083Y109547D02*
Y117126D01*
X338583Y104331D02*
X343799Y109547D01*
Y117126D01*
X421752Y58001D02*
X426603Y53150D01*
X421752Y58001D02*
Y65945D01*
X408886Y53150D02*
X414469Y58732D01*
Y65945D01*
X373299Y58366D02*
X378515Y53150D01*
X373299Y58366D02*
Y65945D01*
X360799Y53150D02*
X366015Y58366D01*
Y65945D01*
X378346Y78909D02*
X378515Y78740D01*
X378346Y78909D02*
Y88583D01*
X330427Y78740D02*
X330709Y79021D01*
Y88583D01*
X356299Y129921D02*
Y140157D01*
X307087Y129921D02*
Y140157D01*
X282283Y78796D02*
X282340Y78740D01*
X282283Y78796D02*
Y88583D01*
X234252Y78740D02*
Y88583D01*
X301870Y109547D02*
X307087Y104331D01*
X301870Y109547D02*
Y117126D01*
X289370Y104331D02*
X294587Y109547D01*
Y117126D01*
X325211Y58366D02*
X330427Y53150D01*
X325211Y58366D02*
Y65945D01*
X312711Y53150D02*
X317927Y58366D01*
Y65945D01*
X277123Y58366D02*
X282340Y53150D01*
X277123Y58366D02*
Y65945D01*
X264623Y53150D02*
X269840Y58366D01*
Y65945D01*
X229035Y58366D02*
X234252Y53150D01*
X229035Y58366D02*
Y65945D01*
X216535Y53150D02*
X221752Y58366D01*
Y65945D01*
X326378Y299508D02*
X326673Y299213D01*
X335433D01*
X385335Y275591D02*
X391634Y281890D01*
X380315Y275591D02*
X385335D01*
X366732Y314665D02*
X369390Y317323D01*
X366732Y308858D02*
Y314665D01*
X385728Y271654D02*
X391339Y266043D01*
X380315Y271654D02*
X385728D01*
X391043Y273622D02*
X391339Y273327D01*
X380315Y273622D02*
X391043D01*
X344980Y263878D02*
X345079Y263976D01*
X230964Y305020D02*
X231102Y304882D01*
X230964Y334803D02*
X231102Y334941D01*
X230964Y326476D02*
Y334803D01*
X207874Y311713D02*
X216929D01*
X235964Y305020D02*
Y309311D01*
X233465Y311811D02*
X235964Y309311D01*
X217717Y311811D02*
X233465D01*
X235964Y321988D02*
Y326476D01*
X233071Y319094D02*
X235964Y321988D01*
X217717Y319094D02*
X233071D01*
X240965Y305020D02*
X248228Y312283D01*
Y312402D01*
Y318701D02*
Y319213D01*
X240965Y326476D02*
X248228Y319213D01*
X522778Y78740D02*
Y89215D01*
X448327Y269685D02*
Y279528D01*
X448032Y279823D02*
X448327Y279528D01*
X349016Y308858D02*
Y321260D01*
X364764Y337008D01*
X347047Y308858D02*
Y321260D01*
X331299Y337008D02*
X347047Y321260D01*
X550394Y269685D02*
X550531Y269547D01*
X500787Y256201D02*
X510236D01*
X509055Y264665D02*
Y270847D01*
Y264665D02*
X510236Y263484D01*
X500236Y280847D02*
X509055D01*
X500000Y280610D02*
X500236Y280847D01*
X530315Y275847D02*
X544232D01*
X550394Y269685D01*
X480709Y266929D02*
X484626Y270847D01*
X509055D01*
X448327Y269685D02*
X469193Y248819D01*
X519685D01*
X540551Y269685D01*
X480709Y286417D02*
Y305512D01*
X232283Y276476D02*
Y284154D01*
X232283Y276476D02*
X232283Y276476D01*
X225964Y296732D02*
Y305020D01*
X224902Y295669D02*
X225964Y296732D01*
X510278Y58366D02*
Y65945D01*
X505062Y53150D02*
X510278Y58366D01*
X517562D02*
Y65945D01*
Y58366D02*
X522778Y53150D01*
X558366Y58366D02*
Y65945D01*
X553150Y53150D02*
X558366Y58366D01*
X565650D02*
Y65945D01*
Y58366D02*
X570866Y53150D01*
X326673Y293307D02*
X335433D01*
X326378Y293012D02*
X326673Y293307D01*
X380315Y297244D02*
X389862D01*
X390551Y297933D01*
X380315Y299213D02*
X384547D01*
X390551Y305217D01*
X231102Y290945D02*
Y304882D01*
X345079Y260728D02*
Y263976D01*
X339862Y255512D02*
X345079Y260728D01*
X341043Y263976D02*
X343110D01*
X332579Y255512D02*
X341043Y263976D01*
X240965Y296240D02*
Y305020D01*
X260039Y277165D02*
X263779D01*
X240965Y296240D02*
X241142Y296063D01*
X260039Y277165D01*
X224902Y274213D02*
Y295669D01*
X218110Y267421D02*
X224902Y274213D01*
X218110Y260138D02*
X227657D01*
X229921Y257874D01*
X255512D01*
X263779Y249606D01*
X278189D01*
X310236Y281653D01*
X335433Y301181D02*
X342914D01*
X357874Y286221D01*
X366732Y295079D01*
X343110Y263976D02*
Y271457D01*
X357874Y286221D01*
X372441Y271654D02*
X380315D01*
X357874Y286221D02*
X372441Y271654D01*
X368898Y297244D02*
X380315D01*
X366732Y295079D02*
Y308858D01*
Y295079D02*
X368898Y297244D01*
X364764Y337008D02*
X380610D01*
X364764Y337008D02*
X364764Y337008D01*
X315453D02*
X331299D01*
X331299Y337008D01*
X347047Y252165D02*
Y263976D01*
X343307Y248425D02*
X347047Y252165D01*
X323465Y248425D02*
X343307D01*
X310236Y261653D02*
X323465Y248425D01*
X310236Y271654D02*
X335433D01*
X310236Y271654D02*
X310236Y271654D01*
X380315Y293307D02*
X414862D01*
X438484Y269685D01*
X349016Y252013D02*
Y263976D01*
X340704Y243701D02*
X349016Y252013D01*
X285827Y243701D02*
X340704D01*
X224803Y182677D02*
X285827Y243701D01*
X224803Y70177D02*
Y182677D01*
Y70177D02*
X229035Y65945D01*
X350984Y251772D02*
Y263976D01*
X336614Y237402D02*
X350984Y251772D01*
X320079Y237402D02*
X336614D01*
X277123Y194446D02*
X320079Y237402D01*
X277123Y65945D02*
Y194446D01*
X380315Y287402D02*
X400000D01*
X413779Y273622D01*
X380315Y289370D02*
X401969D01*
X417717Y273622D01*
X380315Y291339D02*
X403543D01*
X421260Y273622D01*
X364764Y308858D02*
Y314665D01*
X362106Y317323D02*
X364764Y314665D01*
X354921Y308858D02*
Y321850D01*
X358268Y325197D01*
X402756D01*
X352953Y228030D02*
Y263976D01*
X301870Y176947D02*
X352953Y228030D01*
X301870Y117126D02*
Y176947D01*
X354921Y209252D02*
Y263976D01*
X325211Y179542D02*
X354921Y209252D01*
X325211Y65945D02*
Y179542D01*
X356890Y202953D02*
Y263976D01*
X351083Y197146D02*
X356890Y202953D01*
X351083Y117126D02*
Y197146D01*
X358858Y202953D02*
Y263976D01*
Y202953D02*
X373299Y188512D01*
Y65945D02*
Y188512D01*
X360827Y205315D02*
Y263976D01*
X421752Y65945D02*
Y184547D01*
X360827Y205315D02*
X371260Y194882D01*
X411417D01*
X421752Y184547D01*
X362795Y207283D02*
Y263976D01*
Y207283D02*
X372047Y198031D01*
X436221D01*
X447539Y186713D01*
Y117126D02*
Y186713D01*
X364764Y208858D02*
Y263976D01*
X458661Y200787D02*
X469474Y189975D01*
Y66535D02*
Y189975D01*
X364764Y208858D02*
X372835Y200787D01*
X458661D01*
X366732Y210039D02*
Y263976D01*
Y210039D02*
X373228Y203543D01*
X460236D01*
X494783Y168996D01*
Y117126D02*
Y168996D01*
X517562Y65945D02*
Y189131D01*
X368701Y234449D02*
Y263976D01*
Y234449D02*
X376378Y226772D01*
X450394D01*
X370669Y235630D02*
Y263976D01*
Y235630D02*
X376378Y229921D01*
X525984D01*
X542028Y213878D01*
X372638Y236811D02*
Y263976D01*
Y236811D02*
X377165Y232283D01*
X542028Y117126D02*
Y213878D01*
X377165Y232283D02*
X548819D01*
X565650Y215453D01*
Y65945D02*
Y215453D01*
X450394Y226772D02*
X479134Y198031D01*
X508661D01*
X517562Y189131D01*
X216929Y341831D02*
X217028Y341732D01*
Y357382D01*
X216929Y357480D02*
X217028Y357382D01*
X216929Y318996D02*
Y341732D01*
D11*
X428346Y325197D02*
D03*
X402756D02*
D03*
X428346Y342913D02*
D03*
X402756D02*
D03*
X570866Y53150D02*
D03*
Y78740D02*
D03*
X553150Y53150D02*
D03*
Y78740D02*
D03*
X547244Y104331D02*
D03*
Y129921D02*
D03*
X529528Y104331D02*
D03*
Y129921D02*
D03*
X522778Y53150D02*
D03*
Y78740D02*
D03*
X505062Y53150D02*
D03*
Y78740D02*
D03*
X500000Y104331D02*
D03*
Y129921D02*
D03*
X482283Y104331D02*
D03*
Y129921D02*
D03*
X474691Y53150D02*
D03*
Y78740D02*
D03*
X456974Y53150D02*
D03*
Y78740D02*
D03*
X452756Y104331D02*
D03*
Y129921D02*
D03*
X435039Y104331D02*
D03*
Y129921D02*
D03*
X426603Y53150D02*
D03*
Y78740D02*
D03*
X408886Y53150D02*
D03*
Y78740D02*
D03*
X378515Y53150D02*
D03*
Y78740D02*
D03*
X360799Y53150D02*
D03*
Y78740D02*
D03*
X356299Y104331D02*
D03*
Y129921D02*
D03*
X338583Y104331D02*
D03*
Y129921D02*
D03*
X330427Y53150D02*
D03*
Y78740D02*
D03*
X312711Y53150D02*
D03*
Y78740D02*
D03*
X307087Y104331D02*
D03*
Y129921D02*
D03*
X289370Y104331D02*
D03*
Y129921D02*
D03*
X282340Y53150D02*
D03*
Y78740D02*
D03*
X264623Y53150D02*
D03*
Y78740D02*
D03*
X234252Y53150D02*
D03*
Y78740D02*
D03*
X216535Y53150D02*
D03*
Y78740D02*
D03*
X231102Y351181D02*
D03*
X216929Y357480D02*
D03*
X488780Y187008D02*
D03*
X498622D02*
D03*
X508465D02*
D03*
X386713D02*
D03*
X396555D02*
D03*
X406398D02*
D03*
X284646D02*
D03*
X294488D02*
D03*
X304331D02*
D03*
X540551Y269685D02*
D03*
X550394D02*
D03*
X560236D02*
D03*
X438484D02*
D03*
X448327D02*
D03*
X458169D02*
D03*
X310236Y271654D02*
D03*
Y261653D02*
D03*
Y281653D02*
D03*
X480709Y305512D02*
D03*
X500000D02*
D03*
D12*
X481299Y214567D02*
D03*
X515945D02*
D03*
X379232D02*
D03*
X413878D02*
D03*
X277165D02*
D03*
X311811D02*
D03*
X533071Y297244D02*
D03*
X567717D02*
D03*
X431004D02*
D03*
X465650D02*
D03*
D13*
X263779Y249606D02*
D03*
Y277165D02*
D03*
D14*
X310236Y251654D02*
D03*
D15*
X234252Y95866D02*
D03*
X282283Y95965D02*
D03*
X330709D02*
D03*
X378346D02*
D03*
X426378D02*
D03*
X474803Y95177D02*
D03*
X522835D02*
D03*
X571260Y95965D02*
D03*
X547244Y147539D02*
D03*
X500000D02*
D03*
X452362D02*
D03*
X356299D02*
D03*
X307087D02*
D03*
X357874Y286221D02*
D03*
X413779Y273622D02*
D03*
X417717D02*
D03*
X421260D02*
D03*
X509055Y275847D02*
D03*
X200000Y60000D02*
D03*
X210000Y80000D02*
D03*
X200000Y100000D02*
D03*
X210000Y120000D02*
D03*
X200000Y140000D02*
D03*
X210000Y160000D02*
D03*
X200000Y180000D02*
D03*
X210000Y200000D02*
D03*
X200000Y220000D02*
D03*
X210000Y240000D02*
D03*
X200000Y260000D02*
D03*
X210000Y280000D02*
D03*
X200000Y300000D02*
D03*
Y340000D02*
D03*
X220000Y100000D02*
D03*
X230000Y120000D02*
D03*
X220000Y140000D02*
D03*
X230000Y160000D02*
D03*
X220000Y180000D02*
D03*
X230000Y200000D02*
D03*
X220000Y220000D02*
D03*
X230000Y240000D02*
D03*
Y280000D02*
D03*
X240000Y60000D02*
D03*
X250000Y80000D02*
D03*
X240000Y100000D02*
D03*
X250000Y120000D02*
D03*
X240000Y140000D02*
D03*
X250000Y160000D02*
D03*
X240000Y180000D02*
D03*
X250000Y200000D02*
D03*
X240000Y220000D02*
D03*
X250000Y240000D02*
D03*
X240000Y260000D02*
D03*
X250000Y280000D02*
D03*
X240000Y340000D02*
D03*
X260000Y60000D02*
D03*
X270000Y80000D02*
D03*
X260000Y100000D02*
D03*
X270000Y120000D02*
D03*
X260000Y140000D02*
D03*
X270000Y160000D02*
D03*
X260000Y180000D02*
D03*
X270000Y200000D02*
D03*
Y240000D02*
D03*
X260000Y260000D02*
D03*
X270000Y280000D02*
D03*
X260000Y300000D02*
D03*
X270000Y320000D02*
D03*
X260000Y340000D02*
D03*
X280000Y60000D02*
D03*
X290000Y80000D02*
D03*
X280000Y100000D02*
D03*
X290000Y120000D02*
D03*
X280000Y140000D02*
D03*
X290000Y160000D02*
D03*
X280000Y180000D02*
D03*
X290000Y200000D02*
D03*
Y240000D02*
D03*
X280000Y260000D02*
D03*
X290000Y280000D02*
D03*
X280000Y300000D02*
D03*
X290000Y320000D02*
D03*
X280000Y340000D02*
D03*
X300000Y60000D02*
D03*
Y100000D02*
D03*
X310000Y120000D02*
D03*
Y160000D02*
D03*
X300000Y180000D02*
D03*
X310000Y240000D02*
D03*
X300000Y260000D02*
D03*
Y300000D02*
D03*
X310000Y320000D02*
D03*
X300000Y340000D02*
D03*
X320000Y60000D02*
D03*
Y100000D02*
D03*
Y140000D02*
D03*
Y180000D02*
D03*
X330000Y200000D02*
D03*
X320000Y220000D02*
D03*
X330000Y240000D02*
D03*
X320000Y260000D02*
D03*
Y300000D02*
D03*
X330000Y320000D02*
D03*
X320000Y340000D02*
D03*
X340000Y60000D02*
D03*
X350000Y80000D02*
D03*
X340000Y100000D02*
D03*
Y140000D02*
D03*
Y180000D02*
D03*
X350000Y200000D02*
D03*
X340000Y220000D02*
D03*
X350000Y240000D02*
D03*
X360000Y60000D02*
D03*
X370000Y80000D02*
D03*
X360000Y100000D02*
D03*
X370000Y120000D02*
D03*
Y160000D02*
D03*
X360000Y180000D02*
D03*
X370000Y280000D02*
D03*
X360000Y300000D02*
D03*
X380000Y60000D02*
D03*
X390000Y80000D02*
D03*
Y120000D02*
D03*
Y160000D02*
D03*
X380000Y180000D02*
D03*
X390000Y240000D02*
D03*
X380000Y260000D02*
D03*
X390000Y320000D02*
D03*
X400000Y60000D02*
D03*
Y100000D02*
D03*
X410000Y120000D02*
D03*
X400000Y140000D02*
D03*
X410000Y160000D02*
D03*
X400000Y180000D02*
D03*
Y220000D02*
D03*
X410000Y240000D02*
D03*
X400000Y300000D02*
D03*
X410000Y320000D02*
D03*
X430000Y120000D02*
D03*
Y160000D02*
D03*
X420000Y220000D02*
D03*
X430000Y240000D02*
D03*
X420000Y260000D02*
D03*
Y300000D02*
D03*
X430000Y320000D02*
D03*
X420000Y340000D02*
D03*
X440000Y60000D02*
D03*
X450000Y80000D02*
D03*
X440000Y100000D02*
D03*
Y140000D02*
D03*
Y180000D02*
D03*
Y220000D02*
D03*
X450000Y240000D02*
D03*
X440000Y260000D02*
D03*
Y300000D02*
D03*
X450000Y320000D02*
D03*
X460000Y60000D02*
D03*
Y100000D02*
D03*
Y140000D02*
D03*
Y180000D02*
D03*
X470000Y200000D02*
D03*
Y240000D02*
D03*
Y280000D02*
D03*
Y320000D02*
D03*
X460000Y340000D02*
D03*
X480000Y60000D02*
D03*
X490000Y80000D02*
D03*
X480000Y100000D02*
D03*
Y140000D02*
D03*
X490000Y160000D02*
D03*
X480000Y180000D02*
D03*
X490000Y240000D02*
D03*
Y280000D02*
D03*
Y320000D02*
D03*
X480000Y340000D02*
D03*
X500000Y60000D02*
D03*
X510000Y120000D02*
D03*
Y160000D02*
D03*
X500000Y180000D02*
D03*
X510000Y200000D02*
D03*
X500000Y220000D02*
D03*
X510000Y240000D02*
D03*
X500000Y300000D02*
D03*
Y340000D02*
D03*
X520000Y60000D02*
D03*
X530000Y80000D02*
D03*
X520000Y100000D02*
D03*
X530000Y120000D02*
D03*
X520000Y140000D02*
D03*
X530000Y160000D02*
D03*
X520000Y180000D02*
D03*
X530000Y200000D02*
D03*
Y240000D02*
D03*
X520000Y260000D02*
D03*
Y300000D02*
D03*
X530000Y320000D02*
D03*
X520000Y340000D02*
D03*
X540000Y60000D02*
D03*
Y100000D02*
D03*
X550000Y120000D02*
D03*
X540000Y140000D02*
D03*
X550000Y160000D02*
D03*
X540000Y180000D02*
D03*
X550000Y200000D02*
D03*
X540000Y220000D02*
D03*
X550000Y240000D02*
D03*
X540000Y260000D02*
D03*
X550000Y280000D02*
D03*
X540000Y300000D02*
D03*
X550000Y320000D02*
D03*
X540000Y340000D02*
D03*
X560000Y100000D02*
D03*
Y140000D02*
D03*
Y180000D02*
D03*
X570000Y200000D02*
D03*
Y240000D02*
D03*
X560000Y260000D02*
D03*
X570000Y280000D02*
D03*
X560000Y300000D02*
D03*
X570000Y320000D02*
D03*
X560000Y340000D02*
D03*
X580000Y60000D02*
D03*
Y100000D02*
D03*
Y140000D02*
D03*
Y180000D02*
D03*
Y220000D02*
D03*
Y260000D02*
D03*
Y300000D02*
D03*
Y340000D02*
D03*
D16*
X229921Y251575D02*
D03*
Y257874D02*
D03*
X248228Y312402D02*
D03*
Y318701D02*
D03*
D17*
X217618Y295669D02*
D03*
X224902D02*
D03*
X398917Y281890D02*
D03*
X391634D02*
D03*
X558366Y65945D02*
D03*
X565650D02*
D03*
X534744Y117126D02*
D03*
X542028D02*
D03*
X510278Y65945D02*
D03*
X517562D02*
D03*
X487500Y117126D02*
D03*
X494783D02*
D03*
X369390Y317323D02*
D03*
X362106D02*
D03*
X462191Y66535D02*
D03*
X469474D02*
D03*
X440256Y117126D02*
D03*
X447539D02*
D03*
X414469Y65945D02*
D03*
X421752D02*
D03*
X380610Y337008D02*
D03*
X387894D02*
D03*
X366015Y65945D02*
D03*
X373299D02*
D03*
X332579Y255512D02*
D03*
X339862D02*
D03*
X315453Y337008D02*
D03*
X308169D02*
D03*
X343799Y117126D02*
D03*
X351083D02*
D03*
X317927Y65945D02*
D03*
X325211D02*
D03*
X294587Y117126D02*
D03*
X301870D02*
D03*
X269840Y65945D02*
D03*
X277123D02*
D03*
X221752D02*
D03*
X229035D02*
D03*
X217028Y341732D02*
D03*
X209744D02*
D03*
D18*
X218110Y267421D02*
D03*
Y260138D02*
D03*
X232283Y269193D02*
D03*
Y276476D02*
D03*
X231102Y342224D02*
D03*
Y334941D02*
D03*
X207874Y318996D02*
D03*
Y311713D02*
D03*
X216929D02*
D03*
Y318996D02*
D03*
X571260Y88583D02*
D03*
Y95866D02*
D03*
X547244Y140157D02*
D03*
Y147441D02*
D03*
X522835Y87697D02*
D03*
Y94980D02*
D03*
X500000Y140157D02*
D03*
Y147441D02*
D03*
X474803Y87697D02*
D03*
Y94980D02*
D03*
X452362Y140157D02*
D03*
Y147441D02*
D03*
X426378Y88583D02*
D03*
Y95866D02*
D03*
X378346Y88583D02*
D03*
Y95866D02*
D03*
X356299Y140157D02*
D03*
Y147441D02*
D03*
X330709Y88583D02*
D03*
Y95866D02*
D03*
X307087Y140157D02*
D03*
Y147441D02*
D03*
X282283Y88583D02*
D03*
Y95866D02*
D03*
X234252Y88583D02*
D03*
Y95866D02*
D03*
X391339Y266043D02*
D03*
Y273327D02*
D03*
X390551Y297933D02*
D03*
Y305217D02*
D03*
X436614Y337894D02*
D03*
Y330610D02*
D03*
X326378Y306791D02*
D03*
Y299508D02*
D03*
X500787Y263484D02*
D03*
Y256201D02*
D03*
X510236Y263484D02*
D03*
Y256201D02*
D03*
X448032Y287106D02*
D03*
Y279823D02*
D03*
X500000Y280610D02*
D03*
Y287894D02*
D03*
X232283Y284154D02*
D03*
Y291437D02*
D03*
X326378Y293012D02*
D03*
Y285728D02*
D03*
D19*
X364764Y337008D02*
D03*
X331299D02*
D03*
D20*
X335433Y301181D02*
D03*
Y299213D02*
D03*
Y297244D02*
D03*
Y295276D02*
D03*
Y293307D02*
D03*
Y291339D02*
D03*
Y289370D02*
D03*
Y287402D02*
D03*
Y285433D02*
D03*
Y283465D02*
D03*
Y281496D02*
D03*
Y279528D02*
D03*
Y277559D02*
D03*
Y275591D02*
D03*
Y273622D02*
D03*
Y271654D02*
D03*
X380315D02*
D03*
Y273622D02*
D03*
Y275591D02*
D03*
Y277559D02*
D03*
Y279528D02*
D03*
Y281496D02*
D03*
Y283465D02*
D03*
Y285433D02*
D03*
Y287402D02*
D03*
Y289370D02*
D03*
Y291339D02*
D03*
Y293307D02*
D03*
Y295276D02*
D03*
Y297244D02*
D03*
Y299213D02*
D03*
Y301181D02*
D03*
D21*
X343110Y263976D02*
D03*
X345079D02*
D03*
X347047D02*
D03*
X349016D02*
D03*
X350984D02*
D03*
X352953D02*
D03*
X354921D02*
D03*
X356890D02*
D03*
X358858D02*
D03*
X360827D02*
D03*
X362795D02*
D03*
X364764D02*
D03*
X366732D02*
D03*
X368701D02*
D03*
X370669D02*
D03*
X372638D02*
D03*
Y308858D02*
D03*
X370669D02*
D03*
X368701D02*
D03*
X366732D02*
D03*
X364764D02*
D03*
X362795D02*
D03*
X360827D02*
D03*
X358858D02*
D03*
X356890D02*
D03*
X354921D02*
D03*
X352953D02*
D03*
X350984D02*
D03*
X349016D02*
D03*
X347047D02*
D03*
X345079D02*
D03*
X343110D02*
D03*
D22*
X225964Y326476D02*
D03*
X230964D02*
D03*
X235964D02*
D03*
X240965D02*
D03*
X225964Y305020D02*
D03*
X230964D02*
D03*
X235964D02*
D03*
X240965D02*
D03*
D23*
X241142Y296063D02*
D03*
X254921D02*
D03*
D24*
X480709Y266929D02*
D03*
Y286417D02*
D03*
D25*
X530315Y285846D02*
D03*
Y280847D02*
D03*
Y275847D02*
D03*
Y270847D02*
D03*
X509055Y285846D02*
D03*
Y280847D02*
D03*
Y275847D02*
D03*
Y270847D02*
D03*
M02*
