M48
;Layer_Color=9474304
;FILE_FORMAT=2:5
INCH,TZ
;TYPE=PLATED
T1F00S00C0.01181
T2F00S00C0.03543
T3F00S00C0.03937
T4F00S00C0.09055
%
T01
X200000Y60000
X210000Y80000
X200000Y100000
X220000
X234252Y95866
X240000Y100000
X260000
X280000
X282283Y95965
X300000Y100000
X290000Y80000
X270000
X250000
X240000Y60000
X260000
X280000
X300000
X290000Y120000
X270000
X250000
X230000
X210000
X200000Y140000
X220000
X240000
X260000
X280000
X307087Y147539
X310000Y120000
X320000Y100000
X330709Y95965
X340000Y100000
X360000
X378346Y95965
X370000Y80000
X350000
X340000Y60000
X320000
X360000
X380000
X400000
X390000Y80000
X400000Y100000
X390000Y120000
X370000
X410000
X430000
X426378Y95965
X440000Y100000
X460000
X450000Y80000
X440000Y60000
X460000
Y140000
X452362Y147539
X440000Y140000
X400000
X356299Y147539
X340000Y140000
X320000
X480000
X500000Y147539
X520000Y140000
X540000
X547244Y147539
X560000Y140000
X580000
Y100000
X571260Y95965
X560000Y100000
X540000
X520000
X522835Y95177
X530000Y80000
X520000Y60000
X500000
X480000
X490000Y80000
X480000Y100000
X474803Y95177
X510000Y120000
X530000
X550000
X540000Y60000
X580000
Y180000
X560000
X540000
X520000
X500000
X480000
X470000Y200000
Y240000
X490000
X510000
X530000
X550000
X570000
X560000Y260000
X540000
X520000
X509055Y275847
X490000Y280000
X470000
X500000Y300000
X520000
X540000
X560000
X580000
X570000Y280000
X550000
X580000Y260000
Y220000
X570000Y200000
X550000
X530000
X510000
X500000Y220000
X540000
X530000Y160000
X510000
X490000
X550000
X460000Y180000
X440000
X430000Y160000
X410000
X390000
X370000
X360000Y180000
X340000
X320000
X330000Y200000
X350000
X340000Y220000
X320000
X330000Y240000
X350000
X390000
X410000
X430000
X450000
X440000Y220000
X420000
X400000
Y180000
X380000
Y260000
X370000Y280000
X357874Y286221
X360000Y300000
X320000
Y260000
X420000
X421260Y273622
X417717
X413779
X420000Y300000
X400000
X440000
Y260000
X300000
X280000
X260000
X240000
X230000Y240000
X210000
X200000Y220000
X220000
X240000
X230000Y200000
X210000
X200000Y180000
X220000
X240000
X260000
X280000
X300000
X290000Y160000
X270000
X250000
X230000
X210000
X250000Y200000
X270000
X290000
Y240000
X270000
X250000
Y280000
X230000
X210000
X200000Y260000
Y300000
X260000
X280000
X300000
X290000Y280000
X270000
X310000Y240000
Y160000
Y320000
X290000
X270000
X260000Y340000
X240000
X200000
X280000
X300000
X320000
X330000Y320000
X390000
X410000
X430000
X450000
X460000Y340000
X420000
X480000
X500000
X520000
X540000
X560000
X580000
X570000Y320000
X550000
X530000
X490000
X470000
T02
X263779Y249606
Y277165
T03
X216535Y53150
X234252
Y78740
X216535
X264623
X282340
Y53150
X264623
X289370Y104331
X307087
Y129921
X289370
X338583
X356299
Y104331
X338583
X330427Y78740
X312711
Y53150
X330427
X360799
X378515
Y78740
X360799
X408886
X426603
Y53150
X408886
X456974
Y78740
X452756Y104331
X435039
Y129921
X452756
X482283
X500000
Y104331
X482283
X474691Y78740
Y53150
X505062
X522778
Y78740
X505062
X553150
X570866
Y53150
X553150
X547244Y104331
X529528
Y129921
X547244
X508465Y187008
X498622
X488780
X480709Y305512
X500000
X540551Y269685
X550394
X560236
X458169
X448327
X438484
X406398Y187008
X396555
X386713
X304331
X294488
X284646
X310236Y251654
Y261653
Y271654
Y281653
X231102Y351181
X216929Y357480
X402756Y342913
Y325197
X428346
Y342913
T04
X481299Y214567
X515945
X533071Y297244
X567717
X465650
X431004
X413878Y214567
X379232
X311811
X277165
M30
